<?xml version="1.0" standalone="no"?>
<!DOCTYPE svg PUBLIC "-//W3C//DTD SVG 1.1//EN" "http://www.w3.org/Graphics/SVG/1.1/DTD/svg11.dtd" >
<svg>
<metadata>
Created by FontForge 20090914 at Tue Mar 31 11:08:00 2020
 By www-data
Appetite designed by Denis Serebryakov | www.dsgn.by
</metadata>
<defs>
<font id="Appetite-Italic" horiz-adv-x="615" >
  <font-face 
    font-family="Appetite"
    font-weight="400"
    font-style="italic"
    font-stretch="normal"
    units-per-em="1000"
    panose-1="2 0 0 0 0 0 0 0 0 0"
    ascent="750"
    descent="-250"
    x-height="520.001"
    cap-height="745.5"
    bbox="-197.619 -343.248 2352.33 1032.67"
    underline-thickness="50"
    underline-position="-50"
    unicode-range="U+0020-U+FB06"
  />
<missing-glyph horiz-adv-x="249" 
 />
    <glyph glyph-name="ff" unicode="ff" horiz-adv-x="697" 
d="M626 557c-0.666992 2.66699 -0.000976562 6 1.99902 10s4.83301 10.167 8.5 18.5s6.5 17.5 8.5 27.5c5.33301 34.667 -5.33398 50.334 -32.001 47.001c-49.333 -6 -62.333 -58.333 -39 -157h138l3 -5l-15 -84l-5 -5h-133l-71 -403l-5 -6h-193l-3 5l71 404h-90l-71 -403
l-5 -6h-193l-2 5l70 404h-56l-3 5l15 85l5 4h58c5.33301 45.333 22.5 84.666 51.5 117.999s61.333 56.333 97 69s71.667 16.5 108 11.5s64.5 -19.5 84.5 -43.5l2 -7c19.333 29.333 47.333 51.833 84 67.5s76 23.5 118 23.5c58.667 0 102.834 -10.167 132.501 -30.5
s42.5 -48.166 38.5 -83.499c-4 -24.667 -16.5 -45.667 -37.5 -63s-45.167 -26 -72.5 -26c-15.333 0 -30.166 2.16699 -44.499 6.5s-22.5 8.16602 -24.5 11.499zM282.999 503h87.001c9.33301 14 12.5 33.5 9.5 58.5s-15.167 37.5 -36.5 37.5c-20 0 -35.333 -9.5 -46 -28.5
s-15.334 -41.5 -14.001 -67.5z" />
    <glyph glyph-name="fi" unicode="fi" horiz-adv-x="601" 
d="M365 547c-0.666992 2.66699 0.00195312 5.99805 2.00195 9.99805s4.83301 10.167 8.5 18.5s6.5 17.5 8.5 27.5c5.33301 28.667 -3.33398 47 -26.001 55c-20.667 7.33301 -40 2 -58 -16c-10.667 -10.667 -17.667 -24 -21 -40c-2.66699 -19.333 -3.83398 -32 -3.50098 -38
s1.66602 -15 3.99902 -27s3.83301 -23.333 4.5 -34h153c42 0 76 -13.333 102 -40s35.333 -62.667 28 -108l-62 -349l-5 -6h-197l-3 5c26 131.333 43 219.666 51 264.999c10 59.333 8.5 98 -4.5 116s-37.833 25.667 -74.5 23l-71 -403l-5 -6h-193
c-2 0.666992 -3 2.33398 -3 5.00098l70 404h-55l-3 5l15 85l4 4h57c8 61.333 33.333 114.333 76 159s104 71.334 184 80.001c67.333 7.33301 123.666 -1.33398 168.999 -26.001s61.333 -61.667 48 -111c-6.66699 -24.667 -21.667 -44.167 -45 -58.5
s-47.666 -21.166 -72.999 -20.499s-49.333 5.33398 -72 14.001c-5.33301 2 -8.66602 4.33301 -9.99902 7z" />
    <glyph glyph-name="fl" unicode="fl" horiz-adv-x="619" 
d="M313 130l49.999 278.999h-89l-71 -403l-5 -6h-193l-3 5l71 404h-56l-3 5l15 85l5 4h57c11.333 160 113.666 240 306.999 240c107.333 0 179 -30.667 215 -92c1.33301 -1.33301 1.66602 -4.66602 0.999023 -9.99902l-78 -440l-1 -1c-6 -38 -7.5 -66.833 -4.5 -86.5
s8.16699 -32.334 15.5 -38.001s13.5 -10.167 18.5 -13.5s6.16699 -7.66602 3.5 -12.999c-8.66699 -16.667 -27.667 -32.667 -57 -48s-57.666 -23 -84.999 -23c-41.333 0 -72.666 13.833 -93.999 41.5s-27.666 64.5 -18.999 110.5zM379.999 502.999l19 96.001
c6 31.333 -3 51.333 -27 60c-22 7.33301 -43.333 2.33301 -64 -15c-14 -12.667 -22.333 -29 -25 -49c-1.33301 -10.667 -2.16602 -20.667 -2.49902 -30s-0.333008 -15.833 0 -19.5s1.16602 -10.834 2.49902 -21.501s2.33301 -17.667 3 -21h94z" />
    <glyph glyph-name="ffi" unicode="ffi" horiz-adv-x="881" 
d="M645 547c-0.666992 2.66699 -0.000976562 6.00098 1.99902 10.001s4.83301 10.167 8.5 18.5s6.5 17.5 8.5 27.5c5.33301 28.667 -2.33398 47 -23.001 55c-19.333 7.33301 -37.333 2.33301 -54 -15c-10 -10.667 -16 -24.334 -18 -41.001
c-3.33301 -28 -1.66602 -61 5.00098 -99h143c42 0 76 -13.5 102 -40.5s35 -62.833 27 -107.5l-61 -349l-5 -6h-197l-3 5c25.333 131.333 42 219.666 50 264.999c5.33301 24.667 7.5 45.5 6.5 62.5s-2.66699 30.5 -5 40.5s-6.33301 17.667 -12 23s-10.5 8.83301 -14.5 10.5
s-8.33301 2.5 -13 2.5h-30l-71 -403l-5 -6h-193l-3 5l71 404h-90l-71 -403l-5 -6h-193l-2 5l70 404h-56l-3 5l15 85l5 4h58c5.33301 45.333 22.5 84.666 51.5 117.999s61.333 56.333 97 69s71.667 16.5 108 11.5s64.5 -19.5 84.5 -43.5l9 -14
c13.333 23.333 38.666 44.5 75.999 63.5s78.333 30.5 123 34.5c43.333 4 81.833 1.83301 115.5 -6.5s59.5 -23.833 77.5 -46.5s22.667 -50.667 14 -84c-6.66699 -24.667 -21.667 -44.167 -45 -58.5s-47.666 -21.166 -72.999 -20.499s-49.333 5.33398 -72 14.001
c-5.33301 2 -8.66602 4.33301 -9.99902 7zM282.999 503.001l90.001 -0.000976562c9.33301 14 12.5 33.5 9.5 58.5s-15.167 37.5 -36.5 37.5c-20 0 -35.833 -9.66699 -47.5 -29s-16.834 -41.666 -15.501 -66.999z" />
    <glyph glyph-name="ffl" unicode="ffl" horiz-adv-x="908" 
d="M901 641l-34.0029 -194.002l-1 -2l-42 -244c-6 -38 -7.5 -67 -4.5 -87s8.16699 -32.833 15.5 -38.5l18 -13.5c4.66699 -3.33301 5.66699 -7.66602 3 -12.999c-8 -16.667 -26.667 -32.667 -56 -48s-57.666 -23 -84.999 -23c-41.333 0 -72.666 13.833 -93.999 41.5
s-27.666 64.5 -18.999 110.5h-1l49 279h-86l-71 -403l-5 -6h-193l-3 5l71 404h-90l-71 -403l-5 -6h-193l-3 5l71 404h-56l-3 5l15 85l4 4h58c5.33301 45.333 22.5 84.666 51.5 117.999s61.5 56.333 97.5 69s72.167 16.5 108.5 11.5s64.5 -19.5 84.5 -43.5l2 -7
c22 25.333 54 46.833 96 64.5s93.667 26.834 155 27.501c47.333 0 91.5 -9.5 132.5 -28.5s68.5 -40.167 82.5 -63.5v-1c0.666992 -1.33301 1 -2.66602 1 -3.99902v-5zM665.997 502.998l18.999 96.001c6 32 -2.33301 52 -25 60c-21.333 7.33301 -41.666 2 -60.999 -16
c-13.333 -12.667 -21.333 -28.667 -24 -48c-2.66699 -18.667 -2 -49.334 2 -92.001h89zM283.996 502.999l87 0.000976562c5.33301 10.667 9 23.167 11 37.5s0 27.666 -6 39.999s-16.333 18.5 -31 18.5c-20 0 -35.5 -9.5 -46.5 -28.5s-15.833 -41.5 -14.5 -67.5z" />
    <glyph glyph-name="s_t" unicode="st" horiz-adv-x="855" 
d="M758 503h121.003l2 -5l-15 -84l-5 -5h-120l-36 -208c-8 -46.667 -2.83301 -77.834 15.5 -93.501s45.5 -21.5 81.5 -17.5c7.33301 0.666992 11.833 -1.83301 13.5 -7.5s0.166992 -11.5 -4.5 -17.5c-19.333 -27.333 -46.833 -48.833 -82.5 -64.5
s-71.834 -23.5 -108.501 -23.5c-47.333 0 -83 13.833 -107 41.5s-31.667 65.5 -23 113.5l63 355c4.66699 27.333 -3.33301 46.5 -24 57.5s-44.334 12.333 -71.001 4s-45.667 -23.166 -57 -44.499c24 -9.33301 44.5 -23.333 61.5 -42s23.5 -39.334 19.5 -62.001
c-4 -24.667 -16.5 -45.667 -37.5 -63s-45.833 -26 -74.5 -26c-32 0 -56.333 11.167 -73 33.5s-23 48.5 -19 78.5h-7c-14 -0.666992 -26.333 -6 -37 -16s-17 -20.333 -19 -31c-2 -14 1.5 -26 10.5 -36s20.333 -17.833 34 -23.5s31.834 -11.834 54.501 -18.501
c6.66699 -1.33301 11.667 -2.66602 15 -3.99902c101.333 -30.667 145.666 -82 132.999 -154c-6.66699 -38 -26 -69.833 -58 -95.5s-67 -43.334 -105 -53.001s-78 -14.5 -120 -14.5c-34 0 -67 3.66699 -99 11s-60 21.333 -84 42s-33.333 46.334 -28 77.001
c4.66699 25.333 17.5 46.833 38.5 64.5s45.5 26.5 73.5 26.5c16.667 0 32.5 -1.83301 47.5 -5.5s23.167 -7.5 24.5 -11.5c1.33301 -5.33301 1.83301 -8.83301 1.5 -10.5s-1.33301 -6.16699 -3 -13.5s-2.83398 -13 -3.50098 -17c-3.33301 -19.333 -0.5 -34.333 8.5 -45
s22.167 -16 39.5 -16c32.667 0 52.334 15 59.001 45c0.666992 6.66699 0.333984 12.834 -0.999023 18.501s-4.33301 10.667 -9 15s-9.33398 8.16602 -14.001 11.499s-11.667 6.83301 -21 10.5l-23.5 9c-6.33301 2.33301 -15.5 5.33301 -27.5 9s-21.667 6.83398 -29 9.50098
c-36.667 14 -65.667 33.5 -87 58.5s-29 55.833 -23 92.5l1 3c8.66699 48.667 39.167 88 91.5 118s106.5 45 162.5 45c12 0 20.667 -0.333008 26 -1c18.667 40 51.167 75 97.5 105s101.166 45 164.499 45c74.667 0 128 -16.833 160 -50.5s44 -73.5 36 -119.5z" />
    <glyph glyph-name="t_t" unicode="tt" horiz-adv-x="722" 
d="M664 90c8.66699 0 13.498 -2.66602 14.498 -7.99902s-1.16699 -11.333 -6.5 -18c-18 -26.667 -45 -48.5 -81 -65.5s-72.333 -25.5 -109 -25.5c-34 1.33301 -62.333 9 -85 23c-40 28 -54.667 72.667 -44 134l49 279h-132l-39 -224
c-1.33301 -8 -2.66602 -18.667 -3.99902 -32c0 -12.667 1.5 -23.5 4.5 -32.5s6.66699 -15.667 11 -20s10.666 -7.5 18.999 -9.5s15.166 -3 20.499 -3s12.833 0.333008 22.5 1s16.5 1 20.5 1c8.66699 0 13.5 -2.66699 14.5 -8s-1.16699 -11.333 -6.5 -18
c-18 -26.667 -44.333 -48.5 -79 -65.5s-70 -25.5 -106 -25.5c-34 1.33301 -62.333 9 -85 23c-40 28 -54.667 72.667 -44 134l49 279h-51l-3 5l15 85l5 4h51l13 76l6 5l206 79l3 -5c-7.33301 -46.667 -16 -98.334 -26 -155.001h132l24 136l6 5l206 79l3 -5l-37 -215h122l2 -5
l-15 -84l-5 -5h-121l-39 -224c-1.33301 -8 -2.66602 -18.667 -3.99902 -32c0 -12.667 1.66699 -23.5 5 -32.5s7.33301 -15.667 12 -20s11.334 -7.5 20.001 -9.5s15.834 -3 21.501 -3s13.5 0.333008 23.5 1s17 1 21 1z" />
    <glyph glyph-name="t_y" unicode="ty" horiz-adv-x="914" 
d="M354 90c8.66699 0 13.5029 -2.66797 14.5029 -8.00098s-0.833008 -11.333 -5.5 -18c-18 -26.667 -45 -48.5 -81 -65.5s-72.333 -25.5 -109 -25.5c-34.667 1.33301 -63 9 -85 23c-40.667 27.333 -55.667 72 -45 134l50 279h-51l-3 5l15 85l4 4h51l14 76l6 5l205 79l4 -5
l-27 -155l185 1c42.667 0 76.667 -13.667 102 -41s34 -63.666 26 -108.999l-33 -178c-6.66699 -36 -0.333984 -55.333 18.999 -58c18 -2.66699 36.667 9.66602 56 36.999c14 21.333 23.667 46 29 74l48 268l5 5h194l3 -5l-77 -444
c-12.667 -89.333 -47.834 -161.166 -105.501 -215.499s-131.5 -81.5 -221.5 -81.5c-34 0 -64.5 5.16699 -91.5 15.5s-47.833 23.166 -62.5 38.499s-25.834 30 -33.501 44s-12.167 26.667 -13.5 38c-2.66699 16 -3.33398 28.167 -2.00098 36.5s3.33301 13.833 6 16.5
s6 3.66699 10 3c4.66699 -0.666992 10.834 -5.16699 18.501 -13.5l24.5 -27c8.66699 -9.66699 22.667 -18.334 42 -26.001s41.666 -11.5 66.999 -11.5c38 0 70.833 12.5 98.5 37.5s45.167 53.833 52.5 86.5l17 100c-26 -40 -55.333 -69.333 -88 -88s-64 -28 -94 -28
c-38 0 -67.667 15.333 -89 46s-27.666 70.334 -18.999 119.001l27 156c8 46.667 3 77.667 -15 93s-51.667 21 -101 17l-40 -224c-2 -12 -3 -22.667 -3 -32c-0.666992 -15.333 1 -27.833 5 -37.5s10.667 -16.167 20 -19.5s16.833 -5.66602 22.5 -6.99902s15.5 -1.5 29.5 -0.5
s22.333 1.5 25 1.5z" />
    <glyph glyph-name="t_u" unicode="tu" horiz-adv-x="943" 
d="M872 201c-6 -38 -7.50488 -67.0029 -4.50488 -87.0029s8.16699 -32.833 15.5 -38.5l18 -13.5c4.66699 -3.33301 5.66699 -7.66602 3 -12.999c-9.33301 -17.333 -27.166 -33.5 -53.499 -48.5s-52.833 -22.5 -79.5 -22.5c-34.667 0 -62.5 10.167 -83.5 30.5
s-31.833 48.5 -32.5 84.5c-26.667 -39.333 -56.167 -68.333 -88.5 -87s-63.5 -28 -93.5 -28c-38 0 -67.667 15.333 -89 46s-27.666 70.334 -18.999 119.001l27 156c8 46.667 3 77.667 -15 93s-51.667 21 -101 17l-40 -224c-1.33301 -8 -2.66602 -18.667 -3.99902 -32
c0 -12.667 1.66699 -23.5 5 -32.5s7.33301 -15.667 12 -20s11.334 -7.5 20.001 -9.5s15.834 -3 21.501 -3s13.5 0.333008 23.5 1s17 1 21 1c8.66699 0 13.667 -2.66699 15 -8s-0.666992 -11.333 -6 -18c-18 -26.667 -45 -48.5 -81 -65.5s-72.333 -25.5 -109 -25.5
c-34.667 1.33301 -63 9 -85 23c-40.667 27.333 -55.667 72 -45 134l50 279h-51c-2.66699 0 -4 1.66699 -4 5l15 85l5 4h51l14 76l5 5l206 79l3 -5c-7.33301 -46.667 -16 -98.334 -26 -155.001l185 1c42.667 0 76.667 -13.667 102 -41s34 -63.666 26 -108.999l-17 -89
l-16 -89c-6 -36 0.333008 -55.333 19 -58c18 -2.66699 36.333 9.33301 55 36c13.333 18.667 23 41.334 29 68.001l48 275l5 6h200l3 -5c-31.333 -152 -51 -251 -59 -297z" />
    <glyph glyph-name="t_i" unicode="ti" horiz-adv-x="638" 
d="M552 6l-5.00098 -6.00098h-199l-4 5c12 66.667 30.667 164.667 56 294c8 46 1 76.833 -21 92.5s-58.667 21.5 -110 17.5l-40 -224c-0.666992 -4.66699 -1.33398 -11 -2.00098 -19s-1 -12.333 -1 -13c0 -12.667 1.66699 -23.5 5 -32.5s7.33301 -15.667 12 -20
s11.334 -7.5 20.001 -9.5s15.834 -3 21.501 -3s13.5 0.333008 23.5 1s17 1 21 1c17.333 0 20 -8.66699 8 -26c-18 -26.667 -45 -48.5 -81 -65.5s-72.333 -25.5 -109 -25.5c-34.667 1.33301 -63 9 -85 23c-40 28 -54.667 72.667 -44 134l49 279h-51l-3 5l15 85l5 4h51l13 76
l6 5l206 79l3 -5l-26 -155l199 1c42.667 0 76.5 -13.667 101.5 -41s33.5 -63.666 25.5 -108.999zM656.999 644.999c-4.66699 -26 -20.1689 -48 -46.502 -66s-55.5 -27 -87.5 -27s-57.667 9 -77 27s-26.666 40 -21.999 66c4.66699 25.333 19.834 47.166 45.501 65.499
s54.5 27.5 86.5 27.5s58 -9.16699 78 -27.5s27.667 -40.166 23 -65.499z" />
    <glyph glyph-name="f_b" unicode="fb" horiz-adv-x="914" 
d="M742 525c30.667 0 57.165 -8.00098 79.498 -24.001s39 -36.833 50 -62.5s18.5 -54.834 22.5 -87.501s2.33301 -65.667 -5 -99c-12.667 -73.333 -41.667 -136.833 -87 -190.5s-99 -80.5 -161 -80.5c-64 0 -108 31.667 -132 95l-12 -70c0 -1.33301 -0.5 -2.5 -1.5 -3.5
s-2.16699 -1.83301 -3.5 -2.5h-1h-193l-3 5l71 403l-3 1h-91l-71 -403l-5 -6h-193c-2 0.666992 -3 2.33398 -3 5.00098l71 404h-56l-3 5l15 85l4 4h57c4.66699 38.667 14.834 72.667 30.501 102s33.834 52.5 54.501 69.5s44.667 30.833 72 41.5s53 17.834 77 21.501
s48.667 5.5 74 5.5c56.667 0 102.5 -9 137.5 -27s59.833 -39.667 74.5 -65c2 -2 2.66699 -5.33301 2 -10l-39 -221c49.333 70 106.333 105 171 105zM584.998 115.999c23.333 0 44.001 12.833 62.001 38.5s30.333 58.167 37 97.5s5.66699 71.666 -3 96.999s-24.667 38 -48 38
c-24 0 -44.833 -12.667 -62.5 -38s-29.834 -57.666 -36.501 -96.999s-5.66699 -71.833 3 -97.5s24.667 -38.5 48 -38.5zM378.999 502.999l19 96.001c6 32 -3.33301 52 -28 60c-23.333 7.33301 -45 2 -65 -16c-13.333 -13.333 -21.333 -29.333 -24 -48s-2 -49.334 2 -92.001
h96z" />
    <glyph glyph-name="f_k" unicode="fk" horiz-adv-x="929" 
d="M869 66c7.33301 -4 10.8301 -8.00684 10.4971 -12.0068s-5.5 -11 -15.5 -21c-15.333 -14 -36.666 -26.667 -63.999 -38s-54 -17 -80 -17c-27.333 0 -51.166 4.5 -71.499 13.5s-36.166 21 -47.499 36s-20.5 31 -27.5 48s-11.333 35.167 -13 54.5
s-2.33398 36.166 -2.00098 50.499s1.5 27.833 3.5 40.5c2 14.667 7 22 15 22c50 0 84.333 18.667 103 56c14 28 14.333 52.333 1 73c-8 12.667 -19.333 19 -34 19c-27.333 0 -49.166 -10.667 -65.499 -32s-27.5 -46 -33.5 -74l-49 -279l-5 -6h-193l-3 5l68 403l-1 1h-91
l-71 -403l-5 -6h-193l-3 5l71 404h-56l-3 5l15 85l5 4h57c2.66699 38.667 11.667 72.834 27 102.501s33.5 52.834 54.5 69.501s45.333 30.334 73 41.001s53.667 17.834 78 21.501s49.166 5.5 74.499 5.5c56.667 0 102.5 -8.83301 137.5 -26.5s60.167 -39.5 75.5 -65.5
c1.33301 -1.33301 1.66602 -4.66602 0.999023 -9.99902l-38 -217c25.333 33.333 54.5 58.5 87.5 75.5s65.833 25.5 98.5 25.5c54 0 90.833 -21.5 110.5 -64.5s16.334 -87.833 -9.99902 -134.5s-69.166 -74.667 -128.499 -84l-1 -2
c0.666992 -3.33301 1.66699 -7.66602 3 -12.999s5.33301 -15.666 12 -30.999s14.667 -29.833 24 -43.5s22.833 -28.667 40.5 -45s37.167 -30.166 58.5 -41.499zM381.997 502.993l19.001 96.001c6 32 -3.33301 52 -28 60c-22.667 7.33301 -44.334 2 -65.001 -16
c-14 -12.667 -22.333 -28.667 -25 -48c-1.33301 -10.667 -2.16602 -20.667 -2.49902 -30s-0.333008 -15.833 0 -19.5s1.16602 -10.834 2.49902 -21.501s2.33301 -17.667 3 -21h96z" />
    <glyph glyph-name="f_t" unicode="ft" horiz-adv-x="685" 
d="M625 90c8.66699 0 13.667 -2.66895 15 -8.00195s-0.666992 -11.333 -6 -18c-18 -26.667 -45 -48.5 -81 -65.5s-72.333 -25.5 -109 -25.5c-34.667 1.33301 -63 9 -85 23c-40.667 27.333 -55.667 72 -45 134l49 278l-3 1h-91l-71 -403l-5 -6h-193
c-1.33301 0.666992 -2 2.33398 -2 5.00098l70 404h-56l-3 5l15 85l5 4h57c3.33301 37.333 12.833 70.5 28.5 99.5s34 52.167 55 69.5s45 31.5 72 42.5s52.667 18.5 77 22.5s49.166 6 74.499 6c55.333 0 101 -9 137 -27s61.333 -39.667 76 -65
c1.33301 -1.33301 1.66602 -4.66602 0.999023 -9.99902l-24 -138h121l2 -5l-15 -84l-5 -5h-120l-44 -256c0 -12.667 1.66699 -23.5 5 -32.5s7.33301 -15.667 12 -20s11.334 -7.5 20.001 -9.5s15.834 -3 21.501 -3s13.5 0.333008 23.5 1s17 1 21 1zM377 502.998l18.998 96
c6 32 -3.33301 52 -28 60c-22.667 7.33301 -44.334 2 -65.001 -16c-14 -12.667 -22.333 -28.667 -25 -48c-1.33301 -21.333 -2.16602 -33.5 -2.49902 -36.5s0.333984 -12 2.00098 -27s2.83398 -24.5 3.50098 -28.5h96z" />
    <glyph glyph-name="f_y" unicode="fy" horiz-adv-x="883" 
d="M360 545c-1.33301 2.66699 -1.16992 6.00098 0.49707 10.001l7.5 18.5c3.33301 8.33301 6 17.5 8 27.5c3.33301 15.333 3 29.166 -1 41.499s-12.667 18.5 -26 18.5c-17.333 0 -30.666 -6.5 -39.999 -19.5s-14.166 -28.833 -14.499 -47.5s0.5 -36 2.5 -52
s4.66699 -29 8 -39l148 1c42.667 0 76.667 -13.667 102 -41s34 -63.666 26 -108.999l-33 -178c-6.66699 -36 -0.333984 -55.333 18.999 -58c18 -2.66699 36.667 9.66602 56 36.999c14 21.333 23.667 46 29 74l48 268l5 5h194l3 -5l-77 -444
c-12.667 -88.667 -48 -160.334 -106 -215.001s-132 -82 -222 -82c-34 0 -64.5 5.16699 -91.5 15.5s-47.833 23.333 -62.5 39s-25.667 30.334 -33 44.001s-12 26.167 -14 37.5c-2.66699 16 -3.16699 28.167 -1.5 36.5s3.83398 13.833 6.50098 16.5s6 3.66699 10 3
c4.66699 -0.666992 10.834 -5.16699 18.501 -13.5l24.5 -27c8.66699 -9.66699 22.667 -18.334 42 -26.001s41.666 -11.5 66.999 -11.5c38 0 70.667 12.5 98 37.5s44.666 53.833 51.999 86.5l18 100c-26 -40 -55.333 -69.333 -88 -88s-64 -28 -94 -28
c-38 0 -67.667 15.333 -89 46s-27.666 70.334 -18.999 119.001l27 156c8 42.667 6.5 71.667 -4.5 87s-33.833 23.333 -68.5 24l-1 -1l-71 -403l-5 -6h-193c-2.66699 0.666992 -4 2.33398 -4 5.00098l72 404h-56l-3 5l14 85l5 4h57c3.33301 46 13.833 85.5 31.5 118.5
s39.834 57.833 66.501 74.5s54 28.667 82 36s57.667 11 89 11c56 0 97.667 -12.667 125 -38s38 -55 32 -89c-3.33301 -24.667 -15.333 -45.667 -36 -63s-44.667 -26 -72 -26c-15.333 0 -30 2.16699 -44 6.5s-22 8.16602 -24 11.499z" />
    <glyph glyph-name="f_u" unicode="fu" horiz-adv-x="905" 
d="M823 201c-6 -38 -7.50098 -67 -4.50098 -87s8.16699 -32.833 15.5 -38.5s13.5 -10.167 18.5 -13.5s6.16699 -7.66602 3.5 -12.999c-9.33301 -17.333 -27.333 -33.5 -54 -48.5s-53.334 -22.5 -80.001 -22.5c-34.667 0 -62.5 10.167 -83.5 30.5s-31.833 48.5 -32.5 84.5
c-26.667 -39.333 -56.167 -68.333 -88.5 -87s-63.5 -28 -93.5 -28c-38 0 -67.5 15.333 -88.5 46s-27.5 70.334 -19.5 119.001l28 156c7.33301 42 5.33301 70.833 -6 86.5s-34 23.834 -68 24.501l-1 -1l-71 -403l-5 -6h-193l-2 5l70 404h-56l-3 5l15 85l5 4h57
c2 43.333 11.333 81.166 28 113.499s38 57.333 64 75s53.167 30.667 81.5 39s57.833 12.5 88.5 12.5c56.667 0 99.667 -12.667 129 -38s41 -55 35 -89c-4 -24.667 -16.167 -45.5 -36.5 -62.5s-44.166 -25.5 -71.499 -25.5c-16 0 -31 2 -45 6s-22 7.66699 -24 11
c-0.666992 2.66699 -0.166992 6 1.5 10l7.5 18.5c3.33301 8.33301 6 17.5 8 27.5c2.66699 16 2 30 -2 42s-12.667 18 -26 18c-18 0 -31.5 -6.33301 -40.5 -19s-13.5 -28.834 -13.5 -48.501s1 -36.667 3 -51s4.66699 -27.5 8 -39.5l148 1c42.667 0 76.5 -13.667 101.5 -41
s33.5 -63.666 25.5 -108.999l-16 -89l-16 -89c-6 -36 0.333008 -55.333 19 -58s37.334 9.66602 56.001 36.999c12.667 18.667 21.667 41 27 67l49 275l5 6h200c2 -0.666992 3 -2.33398 3 -5.00098c-31.333 -152 -51.333 -251 -60 -297z" />
    <glyph glyph-name="f_j" unicode="fj" horiz-adv-x="589" 
d="M586 355l-57.001 -323c-34 -197.333 -125.333 -296 -274 -296c-56 0 -97.667 12.5 -125 37.5s-38 54.5 -32 88.5c4.66699 25.333 17.667 48.166 39 68.499s45.333 30.5 72 30.5c15.333 0 30.166 -2 44.499 -6s22.166 -8 23.499 -12c0.666992 -2 0 -5.83301 -2 -11.5
l-8.5 -23.5c-3.66699 -10 -6.5 -20 -8.5 -30c-6 -40 2.66699 -60 26 -60c25.333 0 41.666 19 48.999 57c3.33301 21.333 2.66602 48 -2.00098 80s-5.33398 60.333 -2.00098 85l46 264c4.66699 44.667 0.333984 73.834 -12.999 87.501s-36.666 19.5 -69.999 17.5l-71 -403
l-5 -6h-193l-3 5l70 404h-55l-3 5l15 85l3 4h57c7.33301 67.333 32.5 123 75.5 167s104.833 68 185.5 72c72 4 129.333 -5.5 172 -28.5s57.334 -59.167 44.001 -108.5c-6.66699 -24.667 -21.5 -44 -44.5 -58s-47.167 -20.833 -72.5 -20.5s-49.333 4.83301 -72 13.5
c-5.33301 2 -8.66602 4.33301 -9.99902 7c-0.666992 2.66699 0 6 2 10s4.83301 10.167 8.5 18.5s6.5 17.5 8.5 27.5c5.33301 28.667 -3 47 -25 55c-20.667 8 -40.334 3 -59.001 -15c-10.667 -10.667 -17.667 -24.334 -21 -41.001c-2 -10 -3.16699 -20.167 -3.5 -30.5
s-0.166016 -18.166 0.500977 -23.499s1.83398 -13.333 3.50098 -24s2.83398 -17.667 3.50098 -21h153c42.667 0 77 -13.5 103 -40.5s35 -62.833 27 -107.5z" />
    <glyph glyph-name="c_t" unicode="ct" horiz-adv-x="852" 
d="M807 90c8.66699 0 13.4941 -2.66797 14.4941 -8.00098s-1.16699 -11.333 -6.5 -18c-18 -26.667 -45 -48.5 -81 -65.5s-72.333 -25.5 -109 -25.5c-34 1.33301 -62.333 9 -85 23c-34 22.667 -49.667 59.334 -47 110.001c-34.667 -36 -72.667 -64.333 -114 -85
s-81.333 -33.167 -120 -37.5s-75.5 -1.5 -110.5 8.5s-64.667 26.333 -89 49s-42.166 52.334 -53.499 89.001s-13 77.334 -5 122.001c12.667 73.333 48.667 136.166 108 188.499s127.333 80.166 204 83.499c61.333 0 112 -12.167 152 -36.5s56 -58.833 48 -103.5
c-4 -25.333 -17.167 -48.333 -39.5 -69s-47.5 -31 -75.5 -31c-15.333 0 -29.833 2 -43.5 6s-21.5 7.66699 -23.5 11c-0.666992 4.66699 -0.833984 8 -0.500977 10s1.33301 6.5 3 13.5s2.83398 12.833 3.50098 17.5c4 20.667 2.66699 37.334 -4 50.001s-17 19 -31 19
c-25.333 0 -47.666 -16.5 -66.999 -49.5s-30.666 -69.5 -33.999 -109.5c-4 -43.333 5.33301 -75.666 28 -96.999s51 -31.333 85 -30s69.333 9.66602 106 24.999s66.667 35.333 90 60l65 369c0 1.33301 0.5 2.5 1.5 3.5s2.16699 1.5 3.5 1.5l1 1l206 78l3 -1v-4
c-7.33301 -46.667 -16 -98.334 -26 -155.001h122l2 -5l-15 -84l-5 -5h-121l-39 -224c-1.33301 -8 -2.66602 -18.667 -3.99902 -32c0 -12.667 1.66699 -23.5 5 -32.5s7.33301 -15.667 12 -20s11.334 -7.5 20.001 -9.5s15.834 -3 21.501 -3s13.5 0.333008 23.5 1s17 1 21 1z
" />
    <glyph glyph-name="f_h" unicode="fh" horiz-adv-x="928" 
d="M837 204c-6 -38 -7.16602 -66.999 -3.49902 -86.999s9.66699 -33 18 -39s15.333 -10.667 21 -14s7.16699 -7.66602 4.5 -12.999c-9.33301 -16.667 -27.333 -32.5 -54 -47.5s-53.334 -22.5 -80.001 -22.5c-41.333 0 -73.666 13.833 -96.999 41.5s-31 64.5 -23 110.5
l34 194c6.66699 35.333 0 54.666 -20 57.999c-19.333 3.33301 -39.333 -8.33398 -60 -35.001c-16 -21.333 -26.667 -46.666 -32 -75.999l-47 -268l-5 -6h-193l-3 5l68 403l-2 1h-91l-71 -403l-5 -6h-193c-2 0.666992 -3 2.33398 -3 5.00098l71 404h-56l-3 5l15 85l4 4h57
c2.66699 39.333 11.667 74 27 104s33.5 53.333 54.5 70s45.5 30.167 73.5 40.5s54 17.166 78 20.499s49 5 75 5c56.667 0 102.5 -9 137.5 -27s59.833 -39.667 74.5 -65c2 -2 2.66699 -5.33301 2 -10l-41 -228c27.333 38 58 66.167 92 84.5s65.667 27.5 95 27.5
c38 0 67.667 -15.333 89 -46s27.666 -70.334 18.999 -119.001zM379.001 503.001l19 96.001c6 32 -3.33301 52 -28 60c-23.333 7.33301 -45 2 -65 -16c-13.333 -13.333 -21.333 -29.333 -24 -48s-2 -49.334 2 -92.001h96z" />
    <glyph glyph-name="c_h" unicode="ch" horiz-adv-x="1084" 
d="M1004 204c-6 -38 -7.16504 -66.9951 -3.49805 -86.9951s9.66699 -33 18 -39s15.333 -10.667 21 -14s7.16699 -7.66602 4.5 -12.999c-9.33301 -16.667 -27.333 -32.5 -54 -47.5s-53.334 -22.5 -80.001 -22.5c-41.333 0 -73.666 13.833 -96.999 41.5s-31 64.5 -23 110.5
l34 194c6.66699 35.333 0 54.666 -20 57.999c-19.333 3.33301 -39.333 -8.33398 -60 -35.001c-16 -21.333 -26.667 -46.666 -32 -75.999l-47 -268l-5 -6h-193l-3 5c3.33301 22.667 7.66602 50.334 12.999 83.001c-34.667 -32 -72.5 -56.833 -113.5 -74.5
s-80.333 -27.834 -118 -30.501s-73.5 1.5 -107.5 12.5s-62.833 27.667 -86.5 50s-40.834 51.5 -51.501 87.5s-12 75.667 -4 119c12.667 73.333 48.667 136.166 108 188.499s127.333 80.166 204 83.499c61.333 0 111.833 -12.167 151.5 -36.5s55.5 -58.833 47.5 -103.5
c-4 -25.333 -17 -48.333 -39 -69s-47 -31 -75 -31c-15.333 0 -29.833 2 -43.5 6s-21.5 7.66699 -23.5 11c-1.33301 2 0.666992 15.667 6 41c3.33301 20.667 1.66602 37.334 -5.00098 50.001s-17 19 -31 19c-25.333 0 -47.666 -16.5 -66.999 -49.5
s-30.666 -69.5 -33.999 -109.5c-4 -41.333 3.83301 -73.333 23.5 -96s45.167 -34.834 76.5 -36.501s65 3.66602 101 15.999s69 30.166 99 53.499l91 526l4 4h197l3 -1v-3l-54 -302c27.333 38 58 66.167 92 84.5s65.667 27.5 95 27.5c38 0 67.667 -15.333 89 -46
s27.666 -70.334 18.999 -119.001z" />
    <glyph glyph-name="c_l" unicode="cl" horiz-adv-x="794" 
d="M602 714l6 5.00098h200l3 -5l-89 -513c-6 -38 -7.5 -67 -4.5 -87s8.16699 -32.833 15.5 -38.5l18 -13.5c4.66699 -3.33301 5.66699 -7.66602 3 -12.999c-8.66699 -16.667 -27.667 -32.667 -57 -48s-57.666 -23 -84.999 -23c-37.333 0 -66.5 11.333 -87.5 34
s-30.5 53.667 -28.5 93c-34.667 -35.333 -73 -63.333 -115 -84s-82.5 -33.167 -121.5 -37.5s-76.333 -1.33301 -112 9s-66 26.666 -91 48.999s-43.167 51.833 -54.5 88.5s-13 77.334 -5 122.001c12 73.333 47.667 136.166 107 188.499s127.666 80.166 204.999 83.499
c61.333 0 111.833 -12.167 151.5 -36.5s55.5 -58.833 47.5 -103.5c-4 -25.333 -17.167 -48.333 -39.5 -69s-47.5 -31 -75.5 -31c-15.333 0 -29.833 2 -43.5 6s-21.5 7.66699 -23.5 11c-0.666992 1.33301 1.66602 15 6.99902 41
c3.33301 20.667 1.66602 37.334 -5.00098 50.001s-17 19 -31 19c-25.333 0 -47.666 -16.5 -66.999 -49.5s-30.666 -69.5 -33.999 -109.5c-4 -43.333 4.66699 -76.333 26 -99s48.833 -33.834 82.5 -33.501s69.5 8 107.5 23s71.333 35.5 100 61.5z" />
    <glyph glyph-name="c_k" unicode="ck" horiz-adv-x="1089" 
d="M1041 66c7.33301 -4 10.8291 -8 10.4961 -12s-5.5 -11 -15.5 -21c-15.333 -14 -36.666 -26.667 -63.999 -38s-54 -17 -80 -17c-27.333 0 -51.166 4.5 -71.499 13.5s-36.166 21 -47.499 36s-20.5 31 -27.5 48s-11.333 35.167 -13 54.5s-2.33398 36.166 -2.00098 50.499
s1.5 27.833 3.5 40.5c2 14.667 7 22 15 22c50 0 84.333 18.667 103 56c14 28 14.333 52.333 1 73c-8 12.667 -19.333 19 -34 19c-27.333 0 -49.166 -10.667 -65.499 -32s-27.5 -46 -33.5 -74l-49 -279l-5 -6h-193l-3 5l14 89c-34.667 -33.333 -72.667 -59.5 -114 -78.5
s-81 -30 -119 -33s-74.5 0.833008 -109.5 11.5s-64.5 27.167 -88.5 49.5s-41.5 51.666 -52.5 87.999s-12.5 76.5 -4.5 120.5c12.667 73.333 48.667 136.166 108 188.499s127.333 80.166 204 83.499c61.333 0 111.833 -12.167 151.5 -36.5s55.834 -58.833 48.501 -103.5
c-4 -25.333 -17.167 -48.333 -39.5 -69s-47.5 -31 -75.5 -31c-15.333 0 -29.833 2 -43.5 6s-21.5 7.66699 -23.5 11c-0.666992 4.66699 -0.833984 8 -0.500977 10s1.33301 6.5 3 13.5s2.83398 12.833 3.50098 17.5c3.33301 20.667 1.66602 37.334 -5.00098 50.001
s-17 19 -31 19c-25.333 0 -47.666 -16.5 -66.999 -49.5s-30.666 -69.5 -33.999 -109.5c-4 -42 4.16699 -74.333 24.5 -97s46.666 -34.5 78.999 -35.5s67 5.16699 104 18.5s70.167 32.333 99.5 57l90 520l5 4h196l3 -1v-3l-52 -293c26 34 55.5 59.667 88.5 77
s65.833 26 98.5 26c54 0 90.833 -21.5 110.5 -64.5s16.5 -87.833 -9.5 -134.5s-68.667 -74.667 -128 -84l-1 -2c0.666992 -3.33301 1.66699 -7.66602 3 -12.999s5.33301 -15.666 12 -30.999s14.667 -29.833 24 -43.5s22.833 -28.667 40.5 -45s37.167 -30.166 58.5 -41.499z
" />
    <glyph glyph-name="T_h" unicode="Th" horiz-adv-x="1135" 
d="M1043 204c-6 -38 -7.16211 -67.002 -3.49512 -87.002s9.66699 -33 18 -39s15.333 -10.667 21 -14s7.16699 -7.66602 4.5 -12.999c-8.66699 -16.667 -26.334 -32.5 -53.001 -47.5s-53.334 -22.5 -80.001 -22.5c-42 0 -74.5 13.833 -97.5 41.5s-30.5 64.5 -22.5 110.5
l34 194c6 34.667 -1 54 -21 58c-19.333 4 -39.333 -7.66699 -60 -35c-16 -21.333 -26.667 -46.666 -32 -75.999l-47 -268l-5 -6h-193l-3 5l94 552c-12 -3.33301 -30.833 -5.5 -56.5 -6.5s-48.5 -1.16699 -68.5 -0.5l-29 1l-56 -351c-4.66699 -36 -5 -63.167 -1 -81.5
s10 -30.333 18 -36l19 -13.5c4.66699 -3.33301 5.66699 -7.66602 3 -12.999c-8.66699 -18 -28.5 -35.167 -59.5 -51.5s-60.833 -24.5 -89.5 -24.5c-42.667 0 -75.834 13.667 -99.501 41s-30.5 68.666 -20.5 123.999l79 408c-67.333 1.33301 -129 -3.33398 -185 -14.001l-6 5
c-0.666992 0.666992 -1.5 5 -2.5 13s-0.666992 18.667 1 32s5 27.333 10 42s14.667 29.834 29 45.501s32.166 28.834 53.499 39.501c28 13.333 69.333 20.333 124 21s140.5 -2 257.5 -8s220.167 -9.33301 309.5 -10l2 -1v-3l-53 -302c26.667 38 57.167 66.167 91.5 84.5
s66.166 27.5 95.499 27.5c38 0 67.5 -15.333 88.5 -46s27.5 -70.334 19.5 -119.001z" />
    <glyph glyph-name="C_o_period" unicode="Co&#x2e;" horiz-adv-x="1329" 
d="M1109 249c-13.333 -76.667 -51.001 -141.173 -113.001 -193.506s-133.667 -78.5 -215 -78.5c-51.333 0 -95.833 11.333 -133.5 34s-65.167 53.334 -82.5 92.001c-68.667 -80 -158 -121.333 -268 -124c-64.667 -1.33301 -120.834 15.5 -168.501 50.5
s-81.334 82 -101.001 141s-23.834 122.5 -12.501 190.5c18 102.667 66.333 190.834 145 264.501s169.334 110.834 272.001 111.501c78 0.666992 138.833 -16.166 182.5 -50.499s60.834 -78.5 51.501 -132.5c-4.66699 -29.333 -19.167 -55.666 -43.5 -78.999
s-53.5 -35 -87.5 -35c-22 0 -40 3.5 -54 10.5s-19.667 15.5 -17 25.5c12.667 32.667 15.334 63.334 8.00098 92.001s-26.666 43 -57.999 43c-28.667 0 -56.167 -14.667 -82.5 -44s-47 -63.666 -62 -102.999s-23.5 -76.333 -25.5 -111
c-3.33301 -54.667 4 -99.834 22 -135.501s42.167 -59.667 72.5 -72s63.833 -17 100.5 -14s72.667 13.833 108 32.5c-4 26 -3.33301 54.333 2 85c13.333 76 51.333 140.333 114 193s134 79 214 79s142 -26.333 186 -79s59.333 -117 46 -193zM745.999 248.994
c-7.33301 -46 -6.83301 -83.9971 1.5 -113.997s26.166 -45 53.499 -45c28.667 0 52.334 14.667 71.001 44s32 67.666 40 114.999c9.33301 43.333 9.33301 80.666 0 111.999s-27.666 47 -54.999 47c-28 0 -51.333 -14.833 -70 -44.5s-32.334 -67.834 -41.001 -114.501z
M1263 79.9971c-5.33301 -27.333 -19.333 -50.5 -42 -69.5s-47.334 -28.5 -74.001 -28.5c-27.333 0 -48.666 9.66699 -63.999 29s-20.666 42.333 -15.999 69s18.167 49.667 40.5 69s47.166 29 74.499 29c26.667 0 48 -9.5 64 -28.5s21.667 -42.167 17 -69.5z" />
    <glyph glyph-name="t_f" unicode="tf" horiz-adv-x="740" 
d="M669 545c-0.666992 2.66699 -0.167969 5.99805 1.49902 9.99805l7.5 18.5c3.33301 8.33301 6 17.5 8 27.5c3.33301 15.333 3 29.166 -1 41.499s-12.667 18.5 -26 18.5c-18 0 -31.667 -6.33301 -41 -19s-13.833 -29 -13.5 -49s1.33301 -36.667 3 -50
s4.16699 -26.666 7.5 -39.999h138l3 -5l-15 -84l-5 -5h-133l-71 -403l-5 -6h-193c-2 0.666992 -3 2.33398 -3 5.00098l71 404h-134c-22.667 -129.333 -36.334 -212.333 -41.001 -249c0 -11.333 0.5 -21.166 1.5 -29.499s3.5 -15 7.5 -20l9.5 -12
c2.33301 -3 7 -5.16699 14 -6.5s11.833 -2.16602 14.5 -2.49902s8.5 -0.333008 17.5 0s14.5 0.5 16.5 0.5c8.66699 0 13.5 -2.66699 14.5 -8s-0.833008 -11.333 -5.5 -18c-19.333 -28 -43.666 -50.167 -72.999 -66.5s-61.666 -24.5 -96.999 -24.5
c-34.667 1.33301 -63 9 -85 23c-40.667 27.333 -55.667 72 -45 134l49 279h-51l-3 5l15 85l5 4h51l13 76l6 5l206 79l3 -5c-7.33301 -46.667 -16 -98.334 -26 -155.001h135c5.33301 82.667 33.666 143.334 84.999 182.001s110.333 58 177 58
c56.667 0 99.667 -12.667 129 -38s41 -55 35 -89c-3.33301 -24.667 -15.333 -45.667 -36 -63s-44.667 -26 -72 -26c-15.333 0 -30.166 2.16699 -44.499 6.5s-22.5 8.16602 -24.5 11.499z" />
    <glyph glyph-name="C_o" unicode="Co" horiz-adv-x="1134" 
d="M1104 249c-13.333 -76.667 -51.001 -141.173 -113.001 -193.506s-133.667 -78.5 -215 -78.5c-51.333 0 -95.833 11.333 -133.5 34s-65.167 53.334 -82.5 92.001c-68.667 -80 -158 -121.333 -268 -124c-64.667 -1.33301 -120.834 15.5 -168.501 50.5
s-81.334 82 -101.001 141s-23.834 122.5 -12.501 190.5c18 102.667 66.333 190.834 145 264.501s169.334 110.834 272.001 111.501c78 0.666992 138.833 -16.166 182.5 -50.499s60.834 -78.5 51.501 -132.5c-4.66699 -29.333 -19.167 -55.666 -43.5 -78.999
s-53.5 -35 -87.5 -35c-22 0 -40 3.5 -54 10.5s-19.667 15.5 -17 25.5c12.667 32.667 15.334 63.334 8.00098 92.001s-26.666 43 -57.999 43c-28.667 0 -56.167 -14.667 -82.5 -44s-47 -63.666 -62 -102.999s-23.5 -76.333 -25.5 -111
c-3.33301 -54.667 4 -99.834 22 -135.501s42.167 -59.667 72.5 -72s63.833 -17 100.5 -14s72.667 13.833 108 32.5c-4 26 -3.33301 54.333 2 85c13.333 76 51.333 140.333 114 193s134 79 214 79s142 -26.333 186 -79s59.333 -117 46 -193zM740.999 248.994
c-7.33301 -46 -6.83301 -83.9971 1.5 -113.997s26.166 -45 53.499 -45c28.667 0 52.334 14.667 71.001 44s32 67.666 40 114.999c9.33301 43.333 9.33301 80.666 0 111.999s-27.666 47 -54.999 47c-28 0 -51.333 -14.833 -70 -44.5s-32.334 -67.834 -41.001 -114.501z" />
    <glyph glyph-name="f_x" unicode="fx" horiz-adv-x="860" 
d="M681 248l112 -241.999c1.33301 -4 0 -6 -4 -6h-221c-4.66699 0 -7 1.66699 -7 5l-69 173c-26 -16 -40.667 -33 -44 -51c-2 -11.333 -1.5 -21.666 1.5 -30.999s6.83301 -16.333 11.5 -21s8.83398 -9.33398 12.501 -14.001s5.16699 -8.66699 4.5 -12
c-2.66699 -17.333 -16 -33.5 -40 -48.5s-49.667 -22.5 -77 -22.5c-39.333 0 -69.333 11.833 -90 35.5s-28 53.167 -22 88.5c7.33301 41.333 28.166 74.333 62.499 99s78.833 46 133.5 64l-69 144h-104l-71 -403l-5 -6h-193c-2 0.666992 -3 2.33398 -3 5.00098l71 404h-56
l-3 5l15 85l5 4h57c4 44.667 14.5 83.334 31.5 116.001s38.333 57.667 64 75s52.167 29.833 79.5 37.5s56.333 11.5 87 11.5c56.667 0 99.667 -12.667 129 -38s41 -55 35 -89c-4 -24.667 -16.333 -45.667 -37 -63s-44.334 -26 -71.001 -26
c-15.333 0 -30.166 2.16699 -44.499 6.5s-22.5 8.16602 -24.5 11.499c-0.666992 2.66699 -0.166992 6 1.5 10l7.5 18.5c3.33301 8.33301 6 17.5 8 27.5c2.66699 16 2 30 -2 42s-12.667 18 -26 18c-18 0 -31.5 -6.33301 -40.5 -19s-13.5 -28.834 -13.5 -48.501
s1 -36.667 3 -51s4.66699 -27.5 8 -39.5h276c2.66699 0 5 -1.66699 7 -5l66 -169c21.333 12.667 33.333 26.667 36 42c2.66699 14.667 1.33398 27.334 -3.99902 38.001s-11 19.167 -17 25.5s-8.66699 11.5 -8 15.5c2.66699 16.667 16 32.5 40 47.5s49.667 22.5 77 22.5
c39.333 0 69.166 -11.833 89.499 -35.5s27.5 -52.834 21.5 -87.501s-25.333 -63.334 -58 -86.001s-75.667 -43.667 -129 -63z" />
    <glyph glyph-name="T_i" unicode="Ti" horiz-adv-x="780" 
d="M697 6l-5.00098 -6h-200c-3.33301 0.666992 -5 2.33398 -5 5.00098c30 138.667 49 231 57 277c6 38 7.5 67 4.5 87s-8.16699 32.833 -15.5 38.5l-18 13.5c-4.66699 3.33301 -5.66699 7.66602 -3 12.999c9.33301 17.333 27.333 33.5 54 48.5s53.334 22.5 80.001 22.5
c41.333 0 72.333 -13.667 93 -41s27 -64.333 19 -111zM832.999 719c-1.33301 -1.33301 -1.16406 -6.49902 0.50293 -15.499s0.666992 -21.667 -3 -38s-8.5 -32.333 -14.5 -48s-17 -31 -33 -46s-35.667 -25.833 -59 -32.5c-14.667 -4 -45 -6 -91 -6s-88.333 1 -127 3l-58 3
l-60 -339c-4.66699 -36 -5 -63.167 -1 -81.5s9.83301 -30.333 17.5 -36l18.5 -13.5c4.66699 -3.33301 5.66699 -7.66602 3 -12.999c-8.66699 -18 -28.5 -35.167 -59.5 -51.5s-60.833 -24.5 -89.5 -24.5c-42.667 0 -75.834 13.667 -99.501 41s-30.5 68.666 -20.5 123.999
l72 408c-62.667 0.666992 -121.667 -4 -177 -14c-2 0 -3.5 0.333008 -4.5 1s-1.5 1.33398 -1.5 2.00098l-1 2v1c-0.666992 4.66699 -1.33398 10 -2.00098 16s-0.166992 16.667 1.5 32s5.16699 29.666 10.5 42.999s15 27.666 29 42.999s31.667 28 53 38
c31.333 15.333 75.666 23 132.999 23s135.5 -3.5 234.5 -10.5s184.5 -10.167 256.5 -9.5l65 4c4 0 6.33301 -1.66699 7 -5z" />
    <glyph glyph-name="F_i" unicode="Fi" horiz-adv-x="604" 
d="M524 6l-5 -6.00391h-200l-4 5c24.667 112 41.334 191 50.001 237l3 15c2 10 3.16699 18.333 3.5 25s0.5 15.5 0.5 26.5s-2.66699 19.333 -8 25s-12.333 10.667 -21 15s-21.334 4.83301 -38.001 1.5s-36.334 -10 -59.001 -20l-21 -119
c-4.66699 -38 -5.16699 -66.833 -1.5 -86.5s9.66699 -32.5 18 -38.5l19.5 -14c4.66699 -3.33301 5.66699 -7.66602 3 -12.999c-9.33301 -18.667 -29.166 -36.5 -59.499 -53.5s-59.833 -25.5 -88.5 -25.5c-44 0 -77.667 14.167 -101 42.5s-29.666 71.833 -18.999 130.5
l99 561l6 5h542c4 0 6.33301 -1.66699 7 -5s1.16699 -7.66602 1.5 -12.999s-0.666992 -15.5 -3 -30.5s-6.5 -29.167 -12.5 -42.5s-16.833 -27.5 -32.5 -42.5s-35.167 -27.167 -58.5 -36.5c-24 -9.33301 -57.5 -14.166 -100.5 -14.499s-80.167 1.5 -111.5 5.5l-47 7
c-0.666992 -4 -2.16699 -12.167 -4.5 -24.5l-7.5 -40c-2.66699 -14.333 -5.33398 -29.5 -8.00098 -45.5c25.333 14 52.833 26.333 82.5 37s60.167 17.834 91.5 21.501s59 2.5 83 -3.5s42.167 -20.667 54.5 -44s14.833 -55 7.5 -95z" />
    <glyph glyph-name="F_u" unicode="Fu" horiz-adv-x="936" 
d="M854 201c-6 -38 -7.49805 -67.0039 -4.49805 -87.0039s8.16699 -32.833 15.5 -38.5s13.5 -10.167 18.5 -13.5s6.16699 -7.66602 3.5 -12.999c-9.33301 -17.333 -27.333 -33.5 -54 -48.5s-53.334 -22.5 -80.001 -22.5c-34.667 0 -62.5 10.167 -83.5 30.5
s-31.833 48.5 -32.5 84.5c-26.667 -39.333 -56.167 -68.333 -88.5 -87s-63.5 -28 -93.5 -28c-38 0 -67.5 15.333 -88.5 46s-27.5 70.334 -19.5 119.001l25 141c1.33301 12.667 0.666016 23.667 -2.00098 33s-7.83398 17.833 -15.501 25.5s-20.834 10.5 -39.501 8.5
s-41.667 -9 -69 -21l-21 -119c-4.66699 -38 -5.16699 -66.833 -1.5 -86.5s9.66699 -32.5 18 -38.5l19.5 -14c4.66699 -3.33301 5.66699 -7.66602 3 -12.999c-9.33301 -18.667 -29 -36.5 -59 -53.5s-59.333 -25.5 -88 -25.5c-44 0 -77.833 14.167 -101.5 42.5
s-30.167 71.833 -19.5 130.5l99 561l6 5h482c4 0 6.33301 -1.66699 7 -5s1.16699 -7.66602 1.5 -12.999s-0.666992 -15.5 -3 -30.5s-6.5 -29.167 -12.5 -42.5s-16.833 -27.5 -32.5 -42.5s-35.167 -27.167 -58.5 -36.5c-24 -9.33301 -52.5 -14.166 -85.5 -14.499
s-60.167 1.5 -81.5 5.5l-31 7c-1.33301 -6 -4.16602 -20.833 -8.49902 -44.5l-12.5 -65.5c24.667 17.333 52.5 32.333 83.5 45s62 21 93 25s58.833 3.16699 83.5 -2.5s43 -20 55 -43s14.667 -53.5 8 -91.5l-34 -194c-6 -36 0.333008 -55.333 19 -58
s37.334 9.66602 56.001 36.999c12.667 18.667 21.667 41 27 67l49 275l5 6h201l3 -5c-32 -152 -52.333 -251 -61 -297z" />
    <glyph glyph-name="F_y" unicode="Fy" horiz-adv-x="906" 
d="M854 73c-12.667 -88.667 -47.999 -160.339 -105.999 -215.006s-132.333 -82 -223 -82c-34 0 -64.5 5.16699 -91.5 15.5s-47.833 23.333 -62.5 39s-25.667 30.334 -33 44.001s-12 26.167 -14 37.5c-2.66699 16 -3.16699 28.167 -1.5 36.5s3.83398 13.833 6.50098 16.5
s6 3.66699 10 3c4.66699 -0.666992 10.834 -5.16699 18.501 -13.5l24 -27c8.33301 -9.66699 22.166 -18.334 41.499 -26.001s41.666 -11.5 66.999 -11.5c38.667 0 71.334 10.5 98.001 31.5s43.667 47.167 51 78.5l17 100c-26 -40 -55.333 -69.333 -88 -88s-64 -28 -94 -28
c-38 0 -67.667 15.333 -89 46s-27.666 70.334 -18.999 119.001l24 135c4 12 4.16699 23.333 0.5 34s-9.16699 19.334 -16.5 26.001s-20.5 9 -39.5 7s-42.5 -9 -70.5 -21l-21 -119c-4.66699 -38 -5.16699 -66.833 -1.5 -86.5s9.66699 -32.5 18 -38.5l19.5 -14
c4.66699 -3.33301 5.66699 -7.66602 3 -12.999c-9.33301 -18.667 -29.166 -36.5 -59.499 -53.5s-59.833 -25.5 -88.5 -25.5c-44 0 -77.667 14.167 -101 42.5s-30 71.833 -20 130.5l100 561l6 5h482c4 0 6.33301 -1.66699 7 -5s1.16699 -7.66602 1.5 -12.999
s-0.666992 -15.5 -3 -30.5s-6.5 -29.167 -12.5 -42.5s-16.833 -27.5 -32.5 -42.5s-35.167 -27.167 -58.5 -36.5c-24 -9.33301 -52.5 -14.166 -85.5 -14.499s-60.167 1.5 -81.5 5.5l-32 7c-0.666992 -4 -2.16699 -12.167 -4.5 -24.5l-7.5 -40
c-2.66699 -14.333 -5.33398 -29.5 -8.00098 -45.5c24.667 17.333 52.5 32.333 83.5 45s61.833 21 92.5 25s58.167 3.16699 82.5 -2.5s42.666 -20 54.999 -43s15.166 -53.5 8.49902 -91.5l-33 -188c-6.66699 -36 -0.333984 -55.333 18.999 -58
c18 -3.33301 36.667 8.66699 56 36c14 20.667 24 45.334 30 74.001l46 263l5 5h193l3 -5z" />
    <glyph glyph-name="t_t_y" unicode="tty" horiz-adv-x="1251" 
d="M685 90c8.66699 0 13.6631 -2.66797 14.9961 -8.00098s-0.666992 -11.333 -6 -18c-18 -26.667 -45 -48.5 -81 -65.5s-72.333 -25.5 -109 -25.5c-34.667 1.33301 -63 9 -85 23c-40.667 27.333 -55.667 72 -45 134l49 279h-132l-39 -224
c-1.33301 -8 -2.66602 -18.667 -3.99902 -32c0 -12.667 1.5 -23.5 4.5 -32.5s6.33301 -15.667 10 -20s9.33398 -7.5 17.001 -9.5s14.167 -3 19.5 -3s12.666 0.333008 21.999 1s16 1 20 1c8.66699 0 13.667 -2.66699 15 -8s-0.666992 -11.333 -6 -18
c-18.667 -27.333 -44.334 -49.333 -77.001 -66s-67 -25 -103 -25c-34.667 1.33301 -63 9 -85 23c-40.667 27.333 -55.667 72 -45 134l49 279h-51l-3 5l15 85l5 4h51l13 76l6 5l206 79l3 -5c-7.33301 -46.667 -16 -98.334 -26 -155.001h132l24 136l6 5l206 79l3 -5l-37 -215
l183 1c42.667 0 76.667 -13.667 102 -41s34 -63.666 26 -108.999l-34 -178c-6 -36 0.333008 -55.333 19 -58c18.667 -3.33301 37.334 9 56.001 37c14.667 20.667 24.667 45.334 30 74.001l48 268l5 5h194l3 -5l-77 -444c-12.667 -88.667 -48 -160.334 -106 -215.001
s-132 -82 -222 -82c-34 0 -64.5 5.16699 -91.5 15.5s-47.833 23.333 -62.5 39s-25.667 30.334 -33 44.001s-12 26.167 -14 37.5c-2.66699 16 -3.16699 28.167 -1.5 36.5s3.83398 13.833 6.50098 16.5s6 3.66699 10 3c4.66699 -0.666992 10.667 -5.16699 18 -13.5l24 -27
c8.66699 -9.66699 22.667 -18.334 42 -26.001s41.666 -11.5 66.999 -11.5c38 0 70.833 12.5 98.5 37.5s45.167 53.833 52.5 86.5l18 100c-26 -40 -55.5 -69.333 -88.5 -88s-64.5 -28 -94.5 -28c-38 0 -67.5 15.333 -88.5 46s-27.5 70.334 -19.5 119.001l28 156
c8 46 3.16699 76.667 -14.5 92s-51.167 21.333 -100.5 18l-39 -224c-1.33301 -8 -2.66602 -18.667 -3.99902 -32c0 -12.667 1.66699 -23.5 5 -32.5s7.33301 -15.667 12 -20s11.334 -7.5 20.001 -9.5s15.834 -3 21.501 -3s13.5 0.333008 23.5 1s17 1 21 1z" />
    <glyph glyph-name="t_t_i" unicode="tti" horiz-adv-x="969" 
d="M887 6l-5 -6.00098h-199l-4 5c12 66.667 30.667 164.667 56 294c7.33301 45.333 0 76 -22 92s-58 22 -108 18l-40 -224c-0.666992 -4.66699 -1.33398 -11 -2.00098 -19s-1 -12.333 -1 -13c0 -12.667 1.66699 -23.5 5 -32.5s7.33301 -15.667 12 -20
s11.334 -7.5 20.001 -9.5s15.834 -3 21.501 -3s13.5 0.333008 23.5 1s17 1 21 1c17.333 0 20 -8.66699 8 -26c-18 -26.667 -45 -48.5 -81 -65.5s-72.333 -25.5 -109 -25.5c-34.667 1.33301 -63 9 -85 23c-40 28 -54.667 72.667 -44 134l49 279h-132l-40 -224
c-0.666992 -4.66699 -1.33398 -11 -2.00098 -19s-1 -12.333 -1 -13c0 -12.667 1.5 -23.5 4.5 -32.5s6.33301 -15.667 10 -20s9.33398 -7.5 17.001 -9.5s14.167 -3 19.5 -3s12.666 0.333008 21.999 1s16 1 20 1c17.333 0 20 -8.66699 8 -26
c-18 -27.333 -43.5 -49.333 -76.5 -66s-67.5 -25 -103.5 -25c-34.667 1.33301 -63 9 -85 23c-40 28 -54.667 72.667 -44 134l49 279h-51l-3 5l15 85l5 4h51l13 76l6 5l206 79l3 -5l-26 -155h132l23 136l6 5l206 79l3 -5l-36 -215l198 1c42.667 0 76.5 -13.667 101.5 -41
s33.5 -63.666 25.5 -108.999zM992 644.999c-4.66699 -26 -20.1689 -48 -46.502 -66s-55.5 -27 -87.5 -27s-57.667 9 -77 27s-26.666 40 -21.999 66c4.66699 25.333 19.834 47.166 45.501 65.499s54.5 27.5 86.5 27.5s58 -9.16699 78 -27.5s27.667 -40.166 23 -65.499z" />
    <glyph glyph-name="afii10076_afii10085" unicode="&#x43a;&#x443;" horiz-adv-x="1129" 
d="M1083 73c-12.667 -88.667 -48.0029 -160.335 -106.003 -215.002s-132.333 -82 -223 -82c-34 0 -64.5 5.16699 -91.5 15.5s-47.833 23.333 -62.5 39s-25.667 30.334 -33 44.001s-12 26.167 -14 37.5c-2.66699 16 -3.16699 28.167 -1.5 36.5s3.83398 13.833 6.50098 16.5
s6 3.66699 10 3c4.66699 -0.666992 10.667 -5.16699 18 -13.5l24 -27c8.66699 -9.66699 22.667 -18.334 42 -26.001s41.666 -11.5 66.999 -11.5c38 0 70.833 12.5 98.5 37.5s45.167 53.833 52.5 86.5l18 100c-26 -40 -55.5 -69.333 -88.5 -88s-64.5 -28 -94.5 -28
c-38 0 -67.5 15.333 -88.5 46s-27.5 70.334 -19.5 119.001l24 131c8 46.667 -7.66699 78 -47 94c-38 16 -80.333 13 -127 -9c-36 -17.333 -63.333 -42.666 -82 -75.999c45.333 4 77.666 -9.33301 96.999 -40c6.66699 -10.667 13.167 -30.334 19.5 -59.001
s16.5 -54.834 30.5 -78.501s35.667 -43.5 65 -59.5c7.33301 -4 10.833 -8 10.5 -12s-5.16602 -11 -14.499 -21c-16 -14.667 -36.333 -27.5 -61 -38.5s-50 -16.5 -76 -16.5c-38 0 -68 7.83301 -90 23.5s-36 35 -42 58s-9.66699 45.833 -11 68.5
s-3.66602 42.334 -6.99902 59.001s-10.333 25.667 -21 27l-36 -208l-5 -6h-201l-3 5c32 152 52 251 60 297c6 38 7.5 67 4.5 87s-8.16699 32.833 -15.5 38.5l-18 13.5c-4.66699 3.33301 -5.66699 7.66602 -3 12.999c8.66699 17.333 26.334 33.5 53.001 48.5
s53.334 22.5 80.001 22.5c40.667 0 71.667 -13.833 93 -41.5s27.666 -64.5 18.999 -110.5l-14 -84c4 1.33301 9.33301 2.66602 16 3.99902c2.66699 12 7 25.333 13 40s16.667 33.834 32 57.501s33.166 44.834 53.499 63.501s47.833 35.5 82.5 50.5s73 23.833 115 26.5
c76 4 137.333 -14.333 184 -55s62.334 -99.667 47.001 -177l-18 -103c-6 -36 0.333008 -55.333 19 -58c18.667 -3.33301 37.334 8.66699 56.001 36c14.667 20.667 24.667 45.334 30 74.001l44 249l5 5h193l3 -5z" />
    <glyph glyph-name="afii10076_afii10074" unicode="&#x43a;&#x438;" horiz-adv-x="1149" 
d="M1083 201c-6 -38 -7.49902 -67.0039 -4.49902 -87.0039s8.16699 -32.833 15.5 -38.5s13.5 -10.167 18.5 -13.5s6.16699 -7.66602 3.5 -12.999c-9.33301 -17.333 -27.333 -33.5 -54 -48.5s-53.334 -22.5 -80.001 -22.5c-34.667 0 -62.5 10.167 -83.5 30.5
s-31.833 48.5 -32.5 84.5c-26.667 -39.333 -56.167 -68.333 -88.5 -87s-63.5 -28 -93.5 -28c-38 0 -67.5 15.333 -88.5 46s-27.5 70.334 -19.5 119.001l28 156c8 44 -7.66699 74 -47 90c-38 14.667 -80 11.334 -126 -9.99902c-37.333 -16.667 -65.333 -42 -84 -76
c45.333 4 77.666 -9.33301 96.999 -40c6 -10 11.667 -25 17 -45l15 -54c4.66699 -16 14 -33.333 28 -52s32.667 -34 56 -46c7.33301 -4 10.666 -8 9.99902 -12s-5.66699 -11 -15 -21c-16 -14.667 -36.333 -27.5 -61 -38.5s-50 -16.5 -76 -16.5c-38 0 -68 7.83301 -90 23.5
s-35.833 35 -41.5 58s-9.16699 45.833 -10.5 68.5s-3.66602 42.334 -6.99902 59.001s-10.333 25.667 -21 27l-37 -208l-5 -6h-201l-3 5c32 152 52 251 60 297c6 38 7.5 67 4.5 87s-8.16699 32.833 -15.5 38.5l-18 13.5c-4.66699 3.33301 -5.66699 7.66602 -3 12.999
c9.33301 17.333 27.166 33.5 53.499 48.5s52.833 22.5 79.5 22.5c40.667 0 71.667 -13.833 93 -41.5s28 -64.5 20 -110.5l-15 -84c4 1.33301 9.66699 2.66602 17 3.99902c2.66699 11.333 6.83398 24.5 12.501 39.5s16.167 34.333 31.5 58s33.166 44.834 53.499 63.501
s48 35.5 83 50.5s73.5 23.833 115.5 26.5c35.333 2 68.5 -1.5 99.5 -10.5s57.833 -22.667 80.5 -41s38.834 -43.166 48.501 -74.499s10.5 -66.666 2.5 -105.999l-23 -128c-4.66699 -33.333 2.33301 -51 21 -53c18.667 -2.66699 37.334 10 56.001 38
c12.667 18.667 21.667 40.667 27 66l49 275l5 6h201c2 -0.666992 3 -2.33398 3 -5.00098c-32 -152 -52.333 -251 -61 -297z" />
    <glyph glyph-name="afii10084_afii10085" unicode="&#x442;&#x443;" horiz-adv-x="1005" 
d="M473 143l22 125.996c8 48 2 82.333 -18 103s-52.667 23.334 -98 8.00098l-31 -177c-6 -38 -7.5 -67 -4.5 -87s8.16699 -32.833 15.5 -38.5l18 -13.5c4.66699 -3.33301 5.66699 -7.66602 3 -12.999c-8.66699 -17.333 -26 -33.5 -52 -48.5s-52.333 -22.5 -79 -22.5
c-40.667 0 -71.667 13.833 -93 41.5s-27.666 64.5 -18.999 110.5l43 244l-130 1c-2 0 -3 1.33301 -3 4l18 112l1 7c0 1.33301 1 2.66602 3 3.99902c62.667 11.333 132.167 17.833 208.5 19.5s140.166 0.5 191.499 -3.5s90.333 -8.66699 117 -14
c43.333 -9.33301 77.166 -26.166 101.499 -50.499s32.833 -58.166 25.5 -101.499l-34 -178c-6 -36 0.333008 -55.333 19 -58c18.667 -3.33301 37.334 9 56.001 37c14.667 20.667 24.667 45.334 30 74.001l48 268l5 5h194l3 -5l-77 -444
c-12.667 -88.667 -48 -160.334 -106 -215.001s-132 -82 -222 -82c-34 0 -64.5 5.16699 -91.5 15.5s-47.833 23.333 -62.5 39s-25.667 30.334 -33 44.001s-12 26.167 -14 37.5c-2.66699 16 -3.16699 28.167 -1.5 36.5s3.83398 13.833 6.50098 16.5s6 3.66699 10 3
c4.66699 -0.666992 10.667 -5.16699 18 -13.5l24 -27c8.66699 -9.66699 22.667 -18.334 42 -26.001s41.666 -11.5 66.999 -11.5c38 0 70.833 12.5 98.5 37.5s45.167 53.833 52.5 86.5l18 100c-26 -40 -55.5 -69.333 -88.5 -88s-64.5 -28 -94.5 -28
c-38 0 -67.5 15.333 -88.5 46s-27.167 70.334 -18.5 119.001z" />
    <glyph glyph-name="afii10084_afii10074" unicode="&#x442;&#x438;" horiz-adv-x="1025" 
d="M959 201c-6 -38 -7.50098 -67 -4.50098 -87s8.16699 -32.833 15.5 -38.5l18 -13.5c4.66699 -3.33301 5.66699 -7.66602 3 -12.999c-8.66699 -17.333 -26.334 -33.5 -53.001 -48.5s-53.334 -22.5 -80.001 -22.5c-34.667 0 -62.5 10.167 -83.5 30.5
s-31.833 48.5 -32.5 84.5c-26.667 -39.333 -56.167 -68.333 -88.5 -87s-63.5 -28 -93.5 -28c-38 0 -67.667 15.333 -89 46s-27.666 70.334 -18.999 119.001l26 146c3.33301 41.333 -5.16699 70.333 -25.5 87s-51.166 18 -92.499 4l-31 -177c-6 -38 -7.66699 -67 -5 -87
s7.66699 -32.833 15 -38.5s13.5 -10.167 18.5 -13.5s6.16699 -7.66602 3.5 -12.999c-9.33301 -17.333 -27 -33.5 -53 -48.5s-52.333 -22.5 -79 -22.5c-40.667 0 -71.667 13.833 -93 41.5s-27.666 64.5 -18.999 110.5l43 244l-130 1l-2 4l18 112l1 7
c0 1.33301 1 2.66602 3 3.99902c62 11.333 131.333 17.666 208 18.999s140.334 0 191.001 -4s89.667 -9 117 -15c98.667 -20.667 141 -70.667 127 -150l-34 -185c-4.66699 -32.667 2.66602 -49.667 21.999 -51c18.667 -1.33301 37 12 55 40c12 18 20.667 39.333 26 64
l48 275l5 6h201c2.66699 -0.666992 4 -2.33398 4 -5.00098c-32.667 -152 -53 -251 -61 -297z" />
    <glyph glyph-name="afii10076_afii10077" unicode="&#x43a;&#x43b;" horiz-adv-x="1135" 
d="M1148 499l-87.0049 -492.991l-5 -5h-193l-3 5l71 405h-71c-17.333 -116 -39.333 -202.667 -66 -260c-15.333 -33.333 -35.5 -62.333 -60.5 -87s-51.5 -43.334 -79.5 -56.001s-54.333 -21.834 -79 -27.501s-48 -8.5 -70 -8.5c-44 0 -81.5 4.5 -112.5 13.5
s-53.833 20.833 -68.5 35.5s-26 30.667 -34 48s-12.667 34.666 -14 51.999s-2.16602 33.166 -2.49902 47.499s-2.16602 25.666 -5.49902 33.999s-9.66602 12.166 -18.999 11.499l-37 -208l-5 -6h-201l-3 5c32 152 52 251 60 297c6 38 7.5 67 4.5 87
s-8.16699 32.833 -15.5 38.5l-18 13.5c-4.66699 3.33301 -5.66699 7.66602 -3 12.999c8.66699 17.333 26.334 33.5 53.001 48.5s53.334 22.5 80.001 22.5c40.667 0 71.667 -13.833 93 -41.5s28 -64.5 20 -110.5l-15 -84l8 3c6 20.667 15.167 42.667 27.5 66
s28.333 48.166 48 74.499s44.334 48.166 74.001 65.499s61.167 26.333 94.5 27c36.667 0.666992 64.667 -9.5 84 -30.5s26.333 -48.167 21 -81.5c-6 -32.667 -20.833 -58.5 -44.5 -77.5s-51.5 -28.5 -83.5 -28.5c-13.333 0 -24.833 2 -34.5 6s-13.834 9.66699 -12.501 17
c0 0.666992 0.666992 3.83398 2 9.50098l3 13c0.666992 3 1 7.16699 1 12.5s-0.833008 9.5 -2.5 12.5s-4.33398 5.66699 -8.00098 8s-8.5 3.5 -14.5 3.5c-30 0 -54.667 -28.667 -74 -86c30.667 3.33301 55 -2.66699 73 -18s30.167 -35 36.5 -59s11.333 -48.333 15 -73
s9.16699 -45.834 16.5 -63.501s18.333 -26.5 33 -26.5c19.333 0 38.833 15 58.5 45s36.334 66.167 50.001 108.5s26 84.833 37 127.5s19.5 79 25.5 109l8 45c0 3.33301 1.33301 5 4 5c143.333 30.667 289 30.667 437 0c2 0 3 -1.33301 3 -4z" />
    <glyph glyph-name="afii10065_afii10077" unicode="&#x430;&#x43b;" horiz-adv-x="1177" 
d="M267 117c23.333 0 43.833 12.667 61.5 38s29.834 57.666 36.501 96.999c7.33301 39.333 6.66602 71.833 -2.00098 97.5s-25 38.5 -49 38.5c-23.333 0 -43.833 -12.833 -61.5 -38.5s-30.167 -58.167 -37.5 -97.5c-6.66699 -39.333 -5.66699 -71.666 3 -96.999
s25 -38 49 -38zM1190 498l-87.002 -493l-5 -5h-193l-3 5l71 405h-71c-7.33301 -55.333 -17.833 -105.333 -31.5 -150s-28.334 -81.5 -44.001 -110.5s-34 -54.333 -55 -76s-40.333 -38.167 -58 -49.5s-37.667 -20.666 -60 -27.999s-40.333 -11.833 -54 -13.5
s-29.5 -3.16699 -47.5 -4.5c-54 -3.33301 -102.167 5.5 -144.5 26.5s-66.5 49.833 -72.5 86.5c-52 -75.333 -111.333 -113 -178 -113c-59.333 0 -101.833 27.333 -127.5 82s-32.5 118.334 -20.5 191.001c12.667 73.333 41.834 136.833 87.501 190.5s99.5 80.5 161.5 80.5
c64 0 108 -31.667 132 -95l12 69c0 1.33301 0.5 2.5 1.5 3.5l2.5 2.5h2h200c2.66699 -0.666992 4 -2.33398 4 -5.00098c-37.333 -190 -59.666 -308 -66.999 -354c-7.33301 -44.667 -2 -68 16 -70c18.667 -2 41.667 19.333 69 64c12 20 23.333 43 34 69
c14.667 34.667 28.834 76.167 42.501 124.5s23.5 88.166 29.5 119.499l10 47c0 3.33301 1.33301 5 4 5c143.333 30.667 289 30.667 437 0c2 0 3 -1.33301 3 -4z" />
    <glyph glyph-name="afii10065_afii10078" unicode="&#x430;&#x43c;" horiz-adv-x="1369" 
d="M1375 499l-79 -493.999l-5 -5h-194l-3 5l35 191l29 108l-179 -295c-2.66699 -5.33301 -7.66699 -8 -15 -8h-25c-4.66699 0 -8 2.66699 -10 8l-56 254c-14.667 -50 -33.334 -93.333 -56.001 -130s-44.5 -64.334 -65.5 -83.001s-45.333 -33.667 -73 -45
s-49.834 -18.333 -66.501 -21s-36.334 -4.66699 -59.001 -6c-54 -3.33301 -102.167 5.5 -144.5 26.5s-66.5 49.833 -72.5 86.5c-52 -75.333 -111.333 -113 -178 -113c-59.333 0 -101.833 27.333 -127.5 82s-32.5 118.334 -20.5 191.001
c12.667 73.333 41.834 136.833 87.501 190.5s99.5 80.5 161.5 80.5c64 0 108 -31.667 132 -95l12 69c0 1.33301 0.666992 2.5 2 3.5s2.33301 1.83301 3 2.5h2h200c2 -0.666992 3 -2.33398 3 -5.00098c-36.667 -190 -58.667 -308 -66 -354c-8 -47.333 -2.5 -70.333 16.5 -69
s41.833 23 68.5 65c17.333 28 31.333 57.333 42 88c10.667 30 20.834 67.5 30.501 112.5s16.834 82.5 21.501 112.5l7 46l5 5h210l4 -4l57 -187h3l131 188c1.33301 2 3.33301 3 6 3h224zM268 117.001c23.333 0 43.833 12.667 61.5 38s29.834 57.666 36.501 96.999
c7.33301 39.333 6.66602 71.833 -2.00098 97.5s-25 38.5 -49 38.5c-23.333 0 -43.833 -12.833 -61.5 -38.5s-30.167 -58.167 -37.5 -97.5c-6.66699 -39.333 -5.66699 -71.666 3 -96.999s25 -38 49 -38z" />
    <glyph glyph-name="afii10074_afii10077" unicode="&#x438;&#x43b;" horiz-adv-x="1175" 
d="M1188 498l-87.0039 -493l-5 -5h-193l-3 5l71 405h-71c-7.33301 -55.333 -17.833 -105.333 -31.5 -150s-28.334 -81.5 -44.001 -110.5s-34 -54.333 -55 -76s-40.333 -38.167 -58 -49.5s-37.667 -20.666 -60 -27.999s-40.333 -11.833 -54 -13.5s-29.5 -3.16699 -47.5 -4.5
c-53.333 -3.33301 -101.166 5.83398 -143.499 27.501s-66.833 50.834 -73.5 87.501c-26.667 -39.333 -56.167 -68.333 -88.5 -87s-63.5 -28 -93.5 -28c-38 0 -67.5 15.333 -88.5 46s-27.5 70.334 -19.5 119.001l28 156c6 38 7.16699 67 3.5 87s-9.66699 32.833 -18 38.5
s-15.333 10.167 -21 13.5s-7.16699 7.66602 -4.5 12.999c8.66699 17.333 26.334 33.5 53.001 48.5s53.334 22.5 80.001 22.5c42 0 74.667 -13.833 98 -41.5s31 -64.5 23 -110.5l-34 -194c-6 -36 0.333008 -55.333 19 -58s37.334 9.66602 56.001 36.999
c12.667 18.667 21.667 41 27 67l49 275l5 6h201c2 -0.666992 3 -2.33398 3 -5.00098c-26 -116.667 -48.667 -235 -68 -355c-7.33301 -44.667 -2 -68 16 -70c18.667 -2 41.667 19.333 69 64c12 20 23.333 43 34 69c14.667 34.667 28.834 76.167 42.501 124.5
s23.5 88.166 29.5 119.499l10 47c0 3.33301 1.33301 5 4 5c143.333 30.667 289 30.667 437 0c2 0 3 -1.33301 3 -4z" />
    <glyph glyph-name="afii10074_afii10078" unicode="&#x438;&#x43c;" horiz-adv-x="1360" 
d="M1366 499l-79.0029 -493.999l-5 -5h-194l-3 5l35 191l29 108l-179 -295c-2.66699 -5.33301 -7.66699 -8 -15 -8h-25c-4.66699 0 -8 2.66699 -10 8l-56 254c-12.667 -48.667 -29.5 -91 -50.5 -127s-42.167 -63.5 -63.5 -82.5s-45.666 -34.5 -72.999 -46.5
s-50 -19.5 -68 -22.5s-37.667 -5.16699 -59 -6.5c-54 -3.33301 -102 5.5 -144 26.5s-66 49.833 -72 86.5c-26.667 -39.333 -56.167 -68 -88.5 -86s-63.5 -27 -93.5 -27c-38 0 -67.5 15.333 -88.5 46s-27.5 70.334 -19.5 119.001l28 156c6 38 7.16699 67 3.5 87
s-9.66699 32.833 -18 38.5s-15.333 10.167 -21 13.5s-7.16699 7.66602 -4.5 12.999c8.66699 17.333 26.334 33.5 53.001 48.5s53.334 22.5 80.001 22.5c42 0 74.667 -13.833 98 -41.5s31 -64.5 23 -110.5l-34 -194c-6 -36 0.333008 -55.333 19 -58
s37.334 9.66602 56.001 36.999c12.667 18.667 21.667 41 27 67l49 275l5 6h200l3 -5c-20.667 -92 -43 -210.333 -67 -355c-3.33301 -21.333 -2.83301 -37.333 1.5 -48s10.5 -16 18.5 -16c29.333 0 57.666 34.833 84.999 104.5s47.333 139.5 60 209.5l19 105l5 5h206l4 -4
l57 -187h3l131 188c1.33301 2 3.33301 3 6 3h224z" />
    <glyph glyph-name="afii10074_afii10097" unicode="&#x438;&#x44f;" horiz-adv-x="1148" 
d="M914 418c-18.667 0 -35.167 -5.83301 -49.5 -17.5s-23.5 -28.5 -27.5 -50.5c-6.66699 -43.333 12 -65 56 -65h32l23 131c-14.667 1.33301 -26 2 -34 2zM1165 499l-87.002 -492.999l-5 -5h-193l-3 5l33 189c-7.33301 -2 -14.166 -11 -20.499 -27s-16.666 -37 -30.999 -63
s-33.5 -49 -57.5 -69c-36 -30.667 -87.667 -51.167 -155 -61.5s-131.833 -5.5 -193.5 14.5s-100.167 54.667 -115.5 104c-26.667 -39.333 -56.167 -68.333 -88.5 -87s-63.5 -28 -93.5 -28c-38 0 -67.667 15.333 -89 46s-27.666 70.334 -18.999 119.001l27 156
c6.66699 38 8.16699 67 4.5 87s-9.83398 32.833 -18.501 38.5s-15.834 10.167 -21.501 13.5s-7.16699 7.66602 -4.5 12.999c9.33301 17.333 27.333 33.5 54 48.5s53.334 22.5 80.001 22.5c42 0 74.667 -13.833 98 -41.5s31 -64.5 23 -110.5l-34 -194
c-6 -36 0.333008 -55.333 19 -58s37.334 9.66602 56.001 36.999c12.667 18.667 21.667 41 27 67l48 275l5 6h201c2.66699 -0.666992 4 -2.33398 4 -5.00098c-25.333 -112 -47.333 -227 -66 -345c-8 -50 2.66699 -74 32 -72c31.333 2 70.666 28.333 117.999 79
c15.333 16 29.333 33 42 51c-34.667 8.66699 -61.167 25.834 -79.5 51.501s-24.5 56.167 -18.5 91.5c9.33301 54 41.5 96.167 96.5 126.5s116.167 45.5 183.5 45.5c39.333 0 78.833 -2 118.5 -6s69.5 -8 89.5 -12l30 -5c2.66699 0 4 -1.33301 4 -4z" />
    <glyph glyph-name="afii10079_afii10097" unicode="&#x43d;&#x44f;" horiz-adv-x="1141" 
d="M905 418c-18.667 0 -35.167 -5.83301 -49.5 -17.5s-23.5 -28.5 -27.5 -50.5c-8 -43.333 10.333 -65 55 -65h32l23 131c-13.333 1.33301 -24.333 2 -33 2zM600 498l-61.001 -345.001c-8 -50 2.66699 -74 32 -72c31.333 2 70.666 28.333 117.999 79
c15.333 16 29.333 33 42 51c-34.667 8.66699 -61.167 25.834 -79.5 51.501s-24.5 56.167 -18.5 91.5c10 54 42.5 96.167 97.5 126.5s115.833 45.5 182.5 45.5c39.333 0 79 -2 119 -6s70 -8 90 -12l30 -5l3 -4l-87 -494l-5 -5h-193l-3 5l33 190
c-7.33301 -2 -14.166 -11 -20.499 -27s-16.333 -36.833 -30 -62.5s-32.5 -48.5 -56.5 -68.5s-58.5 -36.667 -103.5 -50s-90.5 -19.666 -136.5 -18.999c-22.667 0 -43.167 1.33301 -61.5 4s-37 7.16699 -56 13.5s-34.5 15 -46.5 26s-23 25 -33 42s-15.333 37.333 -16 61
s1.33301 51.5 6 83.5h-98l-34 -192c0 -1.33301 -0.5 -2.5 -1.5 -3.5l-2.5 -2.5h-2h-200l-3 5c31.333 152 51 251 59 297c6 38 7.5 67 4.5 87s-8.16699 32.833 -15.5 38.5l-18 13.5c-4.66699 3.33301 -5.66699 7.66602 -3 12.999c9.33301 17.333 27.333 33.5 54 48.5
s53.334 22.5 80.001 22.5c41.333 0 72.5 -13.667 93.5 -41s27.5 -64.333 19.5 -111l-10 -58h98l32 183l6 5h192z" />
    <glyph glyph-name="afii10072_afii10078" unicode="&#x436;&#x43c;" horiz-adv-x="1629" 
d="M1635 499l-78.999 -493.994l-5 -5h-194l-3 5l34 191l29 108l-179 -295c-2.66699 -5.33301 -7.33398 -8 -14.001 -8h-25c-6.66699 0 -10.334 2.66699 -11.001 8l-57 254c-9.33301 -48.667 -20 -86 -32 -112c-16 -37.333 -37.167 -68.833 -63.5 -94.5
s-54.666 -44.167 -84.999 -55.5s-57.333 -19 -81 -23s-47.834 -6 -72.501 -6c-50.667 0 -92.834 6.16699 -126.501 18.5s-56.834 27.666 -69.501 45.999s-22 38 -28 59s-8.66699 40.5 -8 58.5s-0.833008 32.667 -4.5 44s-10.5 16.666 -20.5 15.999l-36 -208l-5 -5h-193l-3 5
l36 208c-11.333 -0.666992 -21.5 -9.33398 -30.5 -26.001s-18.167 -36.334 -27.5 -59.001s-20.833 -45.5 -34.5 -68.5s-34.334 -42.5 -62.001 -58.5s-60.834 -24 -99.501 -24c-25.333 0 -48.5 5.5 -69.5 16.5s-36.167 23.833 -45.5 38.5c-6.66699 10 -9.5 17 -8.5 21
s5.83301 8 14.5 12c34.667 16 63.167 35.833 85.5 59.5s41.666 49.834 57.999 78.501s29.833 48.334 40.5 59.001c30.667 32 65.334 45.333 104.001 40h1c-1.33301 57.333 -16.333 86 -45 86c-8.66699 0 -15.667 -2.66699 -21 -8s-8.66602 -10.5 -9.99902 -15.5
s-2.5 -12 -3.5 -21s-1.5 -13.833 -1.5 -14.5c-3.33301 -15.333 -21.333 -23 -54 -23c-32 0 -56.5 9.5 -73.5 28.5s-22.5 44.833 -16.5 77.5c5.33301 32.667 21.333 59.5 48 80.5s58.334 31.5 95.001 31.5c103.333 0 157.333 -77.667 162 -233l8 -3l37 210l4 4h194l3 -1v-3
l-37 -210l7 3c8 23.333 18.667 47.166 32 71.499s30 49.166 50 74.499s44.167 46.166 72.5 62.499s58.166 24.5 89.499 24.5c36.667 0 64.834 -10.5 84.501 -31.5s26.834 -47.833 21.501 -80.5c-6 -32.667 -20.833 -58.5 -44.5 -77.5s-51.834 -28.5 -84.501 -28.5
c-13.333 0 -24.666 2 -33.999 6s-13.333 9.66699 -12 17c4 7.33301 5.83301 19 5.5 35s-8.5 24 -24.5 24c-26.667 0 -51.667 -28.667 -75 -86h1c30.667 3.33301 55 -2.66699 73 -18s30.167 -35 36.5 -59s11.333 -48.333 15 -73s9.16699 -45.834 16.5 -63.501
s18.333 -26.5 33 -26.5c10 0 20.167 3.5 30.5 10.5s22 20.333 35 40s25.5 45 37.5 76s24.333 73 37 126s24.334 113.833 35.001 182.5l5 5h210l5 -4l57 -187h3l131 188c0.666992 2 2.33398 3 5.00098 3h224c2 0 3 -1.33301 3 -4z" />
    <glyph glyph-name="afii10074_afii10072" unicode="&#x438;&#x436;" horiz-adv-x="1505" 
d="M1465 65c6.66699 -4 9.82812 -8.00391 9.49512 -12.0039s-5.5 -11 -15.5 -21c-15.333 -14.667 -35.5 -27.5 -60.5 -38.5s-50.167 -16.5 -75.5 -16.5c-38 0 -68 7.83301 -90 23.5s-36 34.834 -42 57.501s-9.66699 45.334 -11 68.001s-3.5 42.5 -6.5 59.5
s-9.83301 26.167 -20.5 27.5l-37 -208l-5 -5h-193l-3 5l37 208c-10 0 -16.333 -3.66699 -19 -11c-16 -42 -35.5 -78 -58.5 -108s-45.5 -53 -67.5 -69s-47.667 -28.5 -77 -37.5s-54.833 -14.5 -76.5 -16.5s-47.167 -3 -76.5 -3c-66.667 0 -120.5 9.33301 -161.5 28
s-68.167 50.334 -81.5 95.001c-26.667 -39.333 -56.167 -68.166 -88.5 -86.499s-63.5 -27.5 -93.5 -27.5c-38 0 -67.5 15.333 -88.5 46s-27.5 70.334 -19.5 119.001l28 156c6 38 7.16699 67 3.5 87s-9.83398 32.833 -18.501 38.5s-15.834 10.167 -21.501 13.5
s-7.16699 7.66602 -4.5 12.999c9.33301 17.333 27.333 33.5 54 48.5s53.334 22.5 80.001 22.5c42 0 74.667 -13.833 98 -41.5s31 -64.5 23 -110.5l-34 -194c-6 -36 0.333008 -55.333 19 -58s37.334 9.66602 56.001 36.999c12.667 18.667 21.667 41 27 67l49 275l5 6h201
c2 -0.666992 3 -2.33398 3 -5.00098c-6 -24.667 -18.667 -88.334 -38 -191.001c-11.333 -64 -16.833 -114.167 -16.5 -150.5s5 -61 14 -74s22.833 -19.5 41.5 -19.5c17.333 0 32.833 8.66699 46.5 26s25.834 38 36.501 62s22.834 48 36.501 72s32.834 43.833 57.501 59.5
s54 22.5 88 20.5c-1.33301 57.333 -16 86 -44 86c-6.66699 0 -12.5 -1.5 -17.5 -4.5s-8.66699 -7.16699 -11 -12.5s-4.16602 -10.166 -5.49902 -14.499s-2.33301 -9.66602 -3 -15.999s-1 -10.166 -1 -11.499c-3.33301 -15.333 -21.333 -23 -54 -23
c-32 0 -56.5 9.5 -73.5 28.5s-22.5 44.833 -16.5 77.5c5.33301 32.667 21.5 59.5 48.5 80.5s58.833 31.5 95.5 31.5c25.333 0 47.833 -5.5 67.5 -16.5s35.334 -24.667 47.001 -41s21.167 -35.333 28.5 -57s12.166 -42.167 14.499 -61.5s3.5 -38.333 3.5 -57l8 -3l37 210l5 4
h194l2 -1v-3l-37 -210l7 3c6 20.667 15.833 43.334 29.5 68.001s30.667 49.834 51 75.501s45.166 47 74.499 64s59.333 25.5 90 25.5c36.667 0 64.667 -10.333 84 -31s26.333 -47.667 21 -81c-6 -32.667 -20.833 -58.5 -44.5 -77.5s-51.834 -28.5 -84.501 -28.5
c-13.333 0 -24.666 2 -33.999 6s-13.333 9.66699 -12 17c4 7.33301 6 19 6 35s-8 24 -24 24c-27.333 0 -52.666 -28.667 -75.999 -86h1c42 5.33301 73 -8 93 -40c6.66699 -10.667 13.334 -30.334 20.001 -59.001s17 -54.834 31 -78.501s36 -43.5 66 -59.5z" />
    <glyph glyph-name="afii10065_afii10072" unicode="&#x430;&#x436;" horiz-adv-x="1504" 
d="M1464 65c6.66699 -4 9.83691 -7.99805 9.50391 -11.998s-5.5 -11 -15.5 -21c-15.333 -14.667 -35.5 -27.5 -60.5 -38.5s-50.167 -16.5 -75.5 -16.5c-38 0 -68 7.83301 -90 23.5s-36 34.834 -42 57.501s-9.66699 45.334 -11 68.001s-3.5 42.5 -6.5 59.5
s-9.83301 26.167 -20.5 27.5l-37 -208l-5 -5h-193l-3 5l37 208c-10 0 -16.333 -3.66699 -19 -11c-16 -42 -35.5 -78 -58.5 -108s-45.5 -53 -67.5 -69s-47.667 -28.5 -77 -37.5s-54.833 -14.5 -76.5 -16.5s-47.167 -3 -76.5 -3c-136.667 0 -217.334 40 -242.001 120
c-52 -72.667 -110.667 -109 -176 -109c-59.333 0 -101.833 27.333 -127.5 82s-32.167 118.334 -19.5 191.001c12.667 73.333 41.667 136.833 87 190.5s99 80.5 161 80.5c64 0 108.333 -31.667 133 -95l12 69c0 1.33301 0.5 2.5 1.5 3.5s1.83301 1.5 2.5 1.5l2 1h200l3 -5
c-18 -85.333 -33 -159 -45 -221c-12 -86 -14.167 -143.333 -6.5 -172s25.167 -43 52.5 -43c17.333 0 33.5 8.83301 48.5 26.5s28.667 38.834 41 63.501s25.666 49 39.999 73s32.833 43.667 55.5 59s48.667 21.333 78 18c-1.33301 57.333 -15.333 86 -42 86
c-6.66699 0 -12.5 -1.33301 -17.5 -4s-8.83301 -6.83398 -11.5 -12.501s-4.66699 -10.5 -6 -14.5s-2.5 -9.5 -3.5 -16.5s-1.5 -10.833 -1.5 -11.5c-3.33301 -15.333 -21.333 -23 -54 -23c-32 0 -56.5 9.5 -73.5 28.5s-22.5 44.833 -16.5 77.5
c5.33301 32.667 21.5 59.5 48.5 80.5s58.833 31.5 95.5 31.5c25.333 0 48 -5.66699 68 -17s35.833 -25.5 47.5 -42.5s21.167 -36.333 28.5 -58s12.166 -42 14.499 -61s3.16602 -37.167 2.49902 -54.5l8 -3l37 210l5 4h194l2 -1v-3l-37 -210l7 3
c7.33301 20.667 17.666 42.667 30.999 66s30.166 48.333 50.499 75s45 48.667 74 66s58.833 26 89.5 26c36.667 0 64.667 -10.333 84 -31s26.333 -47.667 21 -81c-6 -32.667 -20.833 -58.5 -44.5 -77.5s-51.834 -28.5 -84.501 -28.5c-13.333 0 -24.666 2 -33.999 6
s-13.333 9.66699 -12 17c0 1.33301 1 5.16602 3 11.499s3.33301 11.666 4 15.999s0.833984 9.16602 0.500977 14.499s-2.33301 9.5 -6 12.5s-8.83398 4.5 -15.501 4.5c-16 0 -31.167 -8.66699 -45.5 -26s-26.166 -37.333 -35.499 -60h1c42.667 6 74 -7.33301 94 -40
c6.66699 -10.667 13.334 -30.334 20.001 -59.001s17 -54.834 31 -78.501s36 -43.5 66 -59.5zM268.003 117.002c23.333 0 43.832 12.6689 61.499 38.002s30.167 57.666 37.5 96.999c6.66699 39.333 5.66699 71.833 -3 97.5s-24.667 38.5 -48 38.5s-44 -12.833 -62 -38.5
s-30.333 -58.167 -37 -97.5c-7.33301 -38.667 -6.66602 -70.834 2.00098 -96.501s25 -38.5 49 -38.5z" />
    <glyph glyph-name="afii10084_afii10084" unicode="&#x442;&#x442;" horiz-adv-x="840" 
d="M871 467c-4.66699 -30.667 -18.333 -54.332 -41 -70.999s-45.334 -26.334 -68.001 -29.001s-44.667 -2.33398 -66 0.999023h-1l-29 -165c-6.66699 -38 -8.5 -67 -5.5 -87s8.16699 -32.833 15.5 -38.5s13.5 -10.167 18.5 -13.5s6.16699 -7.66602 3.5 -12.999
c-9.33301 -17.333 -27.5 -33.5 -54.5 -48.5s-53.833 -22.5 -80.5 -22.5c-40.667 0 -71.667 13.833 -93 41.5s-27.666 64.5 -18.999 110.5l43 244l-131 1l-30 -174c-6.66699 -38 -8.5 -67 -5.5 -87s8.16699 -32.833 15.5 -38.5s13.5 -10.167 18.5 -13.5
s6.16699 -7.66602 3.5 -12.999c-9.33301 -17.333 -27.5 -33.5 -54.5 -48.5s-53.833 -22.5 -80.5 -22.5c-40.667 0 -71.667 13.833 -93 41.5s-27.666 64.5 -18.999 110.5l43 244l-130 1l-2 4l18 112l1 7c0 1.33301 1 2.66602 3 3.99902c107.333 12 250.166 18 428.499 18
s306.833 -5.33301 385.5 -16c5.33301 -0.666992 8 -4 8 -10c0.666992 -8 0 -17.667 -2 -29z" />
    <glyph glyph-name="afii10084_afii10089" unicode="&#x442;&#x447;" horiz-adv-x="999" 
d="M933 201c-6 -38 -7.5 -66.999 -4.5 -86.999s8.16699 -32.833 15.5 -38.5l18 -13.5c4.66699 -3.33301 5.66699 -7.66602 3 -12.999c-8 -16.667 -25.333 -32.667 -52 -48s-53.334 -23 -80.001 -23c-41.333 0 -72.666 13.833 -93.999 41.5s-27.666 64.5 -18.999 110.5l12 68
c-38 -42 -86.667 -63 -146 -63c-42.667 0 -74.667 13.667 -96 41s-28.666 65 -21.999 113c3.33301 42 -3.66699 71 -21 87s-46.333 17.333 -87 4l-31 -177c-6 -38 -7.66699 -67 -5 -87s7.66699 -32.833 15 -38.5s13.5 -10.167 18.5 -13.5s6.16699 -7.66602 3.5 -12.999
c-9.33301 -17.333 -27 -33.5 -53 -48.5s-52.333 -22.5 -79 -22.5c-40.667 0 -71.667 13.833 -93 41.5s-27.666 64.5 -18.999 110.5l43 244l-130 1l-2 4l18 112l1 7c0 1.33301 1 2.66602 3 3.99902c62 11.333 130.5 17.666 205.5 18.999s137 0 186 -4s87.167 -9 114.5 -15
c97.333 -20.667 138.666 -70.667 123.999 -150l-8 -44c-6.66699 -38 -1.33398 -59.667 15.999 -65c15.333 -4.66699 30.666 5.33301 45.999 30c10 15.333 17 34 21 56l29 166c0 1.33301 0.5 2.5 1.5 3.5s1.83301 1.5 2.5 1.5l2 1h200
c2.66699 -0.666992 4 -2.33398 4 -5.00098c-32.667 -152 -53 -251 -61 -297z" />
    <glyph glyph-name="afii10083_afii10084" unicode="&#x441;&#x442;" horiz-adv-x="916" 
d="M320 393c4 8.66699 6.00195 13.3369 6.00195 14.0039c-3.33301 2.66699 -9 4 -17 4c-25.333 0 -47.666 -16.5 -66.999 -49.5s-30.666 -69.5 -33.999 -109.5c-3.33301 -42.667 3.33398 -75.834 20.001 -99.501s39.334 -37 68.001 -40s58.834 -0.833008 90.501 6.5
s62.5 19 92.5 35c6 4 10.667 4.33301 14 1c2.66699 -4 2.66699 -9.33301 0 -16c-5.33301 -12.667 -14.833 -27.167 -28.5 -43.5s-31.334 -33.666 -53.001 -51.999s-48.334 -33.666 -80.001 -45.999s-64.5 -18.5 -98.5 -18.5c-76 0 -135.833 26.5 -179.5 79.5
s-58.834 117.5 -45.501 193.5c13.333 73.333 49.666 136.166 108.999 188.499s127.333 80.166 204 83.499c60 1.33301 105.333 -8 136 -28c59.333 13.333 128.333 21 207 23s138.167 1.16699 178.5 -2.5s72.833 -7.16699 97.5 -10.5c5.33301 -0.666992 8 -4 8 -10
c0.666992 -8 0 -17.667 -2 -29c-4.66699 -30.667 -18.334 -54.334 -41.001 -71.001s-45.334 -26.334 -68.001 -29.001s-44.667 -2.33398 -66 0.999023h-1l-30 -165c-6 -38 -7.5 -67 -4.5 -87s8.16699 -32.833 15.5 -38.5s13.5 -10.167 18.5 -13.5
s6.16699 -7.66602 3.5 -12.999c-9.33301 -17.333 -27.5 -33.5 -54.5 -48.5s-53.833 -22.5 -80.5 -22.5c-40.667 0 -71.667 13.833 -93 41.5s-27.666 64.5 -18.999 110.5l43 245h-54c-10.667 -26.667 -27.834 -48.834 -51.501 -66.501s-47.834 -26.5 -72.501 -26.5
c-28.667 0 -50.5 11 -65.5 33s-16.833 47.333 -5.5 76z" />
    <glyph glyph-name="afii10084_afii10094" unicode="&#x442;&#x44c;" horiz-adv-x="965" 
d="M770 394c55.333 0 100.33 -18.502 134.997 -55.502s47 -84.167 37 -141.5c-10.667 -63.333 -44.167 -115.666 -100.5 -156.999s-118.5 -62 -186.5 -62c-35.333 0 -66.5 4.5 -93.5 13.5s-47.667 21 -62 36s-26 32 -35 51s-13.5 38.5 -13.5 58.5s1 39.333 3 58l32 181h-124
l-30 -173c-6 -38 -7.66699 -67 -5 -87s7.66699 -32.833 15 -38.5s13.5 -10.167 18.5 -13.5s6.16699 -7.66602 3.5 -12.999c-9.33301 -17.333 -27.5 -33.5 -54.5 -48.5s-53.833 -22.5 -80.5 -22.5c-40.667 0 -71.667 13.833 -93 41.5s-27.666 64.5 -18.999 110.5l43 244
l-130 1l-2 4l19 119c0 1.33301 1 2.66602 3 3.99902c60.667 11.333 143.334 17.333 248.001 18s192.5 -1.16602 263.5 -5.49902s116.167 -7.83301 135.5 -10.5c5.33301 -0.666992 8 -4 8 -10c0.666992 -8 -4.66602 -44.333 -15.999 -109c30 4.66699 57 7 81 7z
M682.997 93.998c35.333 0 59.002 35.999 71.002 107.999c5.33301 28.667 2.16602 51.834 -9.50098 69.501s-28.834 26.5 -51.501 26.5c-5.33301 0 -12 -0.666992 -20 -2l-23 -132c-6.66699 -46.667 4.33301 -70 33 -70z" />
    <glyph glyph-name="afii10084_afii10093" unicode="&#x442;&#x44b;" horiz-adv-x="1229" 
d="M1156 201c-6 -38 -7.16797 -67 -3.50098 -87s9.66699 -32.833 18 -38.5s15.166 -10.167 20.499 -13.5s6.66602 -7.66602 3.99902 -12.999c-8.66699 -17.333 -26.334 -33.5 -53.001 -48.5s-53.334 -22.5 -80.001 -22.5c-41.333 0 -73.666 13.833 -96.999 41.5
s-31 64.5 -23 110.5l34 194c6.66699 37.333 1.66699 57 -15 59c-16 1.33301 -32 -12.334 -48 -41.001c-2 -3.33301 -4 -7 -6 -11c27.333 -37.333 36.333 -82 27 -134c-10.667 -63.333 -43 -115.666 -97 -156.999s-114.667 -62 -182 -62c-35.333 0 -66.5 4.5 -93.5 13.5
s-47.667 21 -62 36s-26 32 -35 51s-13.5 38.5 -13.5 58.5s1 39.333 3 58l32 181h-124l-30 -173c-6 -38 -7.66699 -67 -5 -87s7.66699 -32.833 15 -38.5s13.5 -10.167 18.5 -13.5s6.16699 -7.66602 3.5 -12.999c-9.33301 -17.333 -27.5 -33.5 -54.5 -48.5
s-53.833 -22.5 -80.5 -22.5c-40.667 0 -71.667 13.833 -93 41.5s-27.666 64.5 -18.999 110.5l43 244l-130 1l-2 4l19 119c0 1.33301 1 2.66602 3 3.99902c60.667 11.333 143.334 17.333 248.001 18s192.5 -1.16602 263.5 -5.49902s116.167 -7.83301 135.5 -10.5
c5.33301 -0.666992 8 -4 8 -10c0.666992 -8 -4.66602 -44.333 -15.999 -109c29.333 4.66699 56.333 7 81 7c36.667 0 69.667 -9.33301 99 -28c27.333 53.333 59.833 92.666 97.5 117.999s73.834 38 108.501 38c38.667 0 68.5 -15.333 89.5 -46s27.5 -70.334 19.5 -119.001z
M679.999 94c32 0 54.001 36.001 66.001 108.001c5.33301 29.333 3.33301 52.666 -6 69.999s-25 26 -47 26c-6.66699 0 -13.334 -0.666992 -20.001 -2l-22 -122c-6.66699 -53.333 3 -80 29 -80z" />
    <glyph glyph-name="afii10084_afii10096" unicode="&#x442;&#x44e;" horiz-adv-x="1251" 
d="M1026 524c78.667 0 137.996 -26.167 177.996 -78.5s53 -116.833 39 -193.5c-14 -78 -49.667 -143 -107 -195s-126 -78 -206 -78c-69.333 0 -123.666 20.5 -162.999 61.5s-58.666 93.5 -57.999 157.5h-42l-34 -192l-5 -6h-197l-3 5l52 295
c3.33301 34 -6.16699 59 -28.5 75s-52.833 17.667 -91.5 5l-32 -177c-6 -38 -7.5 -67 -4.5 -87s8.16699 -32.833 15.5 -38.5s13.5 -10.167 18.5 -13.5s6.16699 -7.66602 3.5 -12.999c-9.33301 -17.333 -27 -33.5 -53 -48.5s-52.333 -22.5 -79 -22.5
c-40.667 0 -71.667 13.833 -93 41.5s-27.666 64.5 -18.999 110.5l43 244l-130 1l-2 4l18 112l1 7c0 1.33301 1 2.66602 3 3.99902c62 11.333 131.333 17.666 208 18.999s140.334 0 191.001 -4s89.667 -9 117 -15c96 -21.333 139 -68.666 129 -141.999c0 -4 -0.5 -8 -1.5 -12
s-2 -9.33301 -3 -16s-2.16699 -13 -3.5 -19h44c23.333 61.333 61.5 111.5 114.5 150.5s113.167 58.5 180.5 58.5zM949.996 93c28 0 48.667 13.5 62 40.5s24.333 66.5 33 118.5c10 42.667 12.667 79.834 8 111.501s-20.334 47.5 -47.001 47.5s-47 -13.833 -61 -41.5
s-25.333 -66.834 -34 -117.501c-10 -42 -12.667 -79 -8 -111s20.334 -48 47.001 -48z" />
    <glyph glyph-name="afii10076_afii10079" unicode="&#x43a;&#x43d;" horiz-adv-x="1161" 
d="M1095 202c-6 -38 -7.50293 -66.999 -4.50293 -86.999s8.16699 -33 15.5 -39s13.333 -10.667 18 -14s5.66699 -7.66602 3 -12.999c-8.66699 -16.667 -26.167 -32.167 -52.5 -46.5s-52.833 -21.5 -79.5 -21.5c-41.333 0 -72.666 13.5 -93.999 40.5s-28 63.5 -20 109.5
l12 67h-98l-34 -192c0 -1.33301 -0.5 -2.5 -1.5 -3.5s-2.16699 -1.83301 -3.5 -2.5h-1h-194l-3 5c25.333 141.333 42 236 50 284c10.667 60 -5 97.667 -47 113c-36 13.333 -77.333 6.66602 -124 -20.001c-35.333 -20 -62 -46.333 -80 -79
c28.667 0.666992 50.167 -4.66602 64.5 -15.999s23.333 -26.5 27 -45.5s7 -38.667 10 -59s11 -41.5 24 -63.5s32.167 -39.667 57.5 -53c7.33301 -4 10.833 -8 10.5 -12s-5.5 -11 -15.5 -21c-39.333 -36.667 -78.666 -55 -117.999 -55c-38 0 -68 7.83301 -90 23.5
s-35.833 35 -41.5 58s-9.16699 45.833 -10.5 68.5s-3.66602 42.334 -6.99902 59.001s-10.333 25.667 -21 27l-37 -208l-5 -6h-201l-3 5c32 152 52 251 60 297c6.66699 38 8.5 67 5.5 87s-8.16699 32.833 -15.5 38.5s-13.5 10.167 -18.5 13.5s-6.16699 7.66602 -3.5 12.999
c9.33301 17.333 27.333 33.5 54 48.5s53.334 22.5 80.001 22.5c40.667 0 71.667 -13.833 93 -41.5s27.666 -64.5 18.999 -110.5l-15 -84c4.66699 1.33301 10.334 2.66602 17.001 3.99902c2.66699 10.667 7.16699 23.5 13.5 38.5s17.333 33.833 33 56.5
s34.167 43.5 55.5 62.5s49.666 36.167 84.999 51.5s74 25 116 29c88 8 151.167 -6.83301 189.5 -44.5s52.833 -94.834 43.5 -171.501h101l32 183l6 5h192l3 -5z" />
    <glyph glyph-name="afii10076_afii10084" unicode="&#x43a;&#x442;" horiz-adv-x="989" 
d="M1019 467c-4.66699 -30.667 -18.334 -54.3262 -41.001 -70.9932s-45.334 -26.334 -68.001 -29.001s-44.667 -2.33398 -66 0.999023h-1l-29 -165c-6 -38 -7.5 -67 -4.5 -87s8.16699 -32.833 15.5 -38.5l18 -13.5c4.66699 -3.33301 5.66699 -7.66602 3 -12.999
c-9.33301 -17.333 -27.5 -33.5 -54.5 -48.5s-53.833 -22.5 -80.5 -22.5c-40.667 0 -71.5 13.833 -92.5 41.5s-27.5 64.5 -19.5 110.5l44 249c-144.667 23.333 -243 -2.66699 -295 -78c45.333 4 77.666 -9.33301 96.999 -40c6.66699 -10.667 13.167 -30.334 19.5 -59.001
s16.5 -54.834 30.5 -78.501s35.667 -43.5 65 -59.5c7.33301 -4 10.833 -8 10.5 -12s-5.16602 -11 -14.499 -21c-16 -14.667 -36.333 -27.5 -61 -38.5s-50 -16.5 -76 -16.5c-38 0 -68 7.83301 -90 23.5s-35.833 35 -41.5 58s-9.33398 45.833 -11.001 68.5
s-4 42.334 -7 59.001s-9.83301 25.667 -20.5 27l-37 -208l-5 -6h-201l-3 5c32 152 52 251 60 297c6 38 7.5 67 4.5 87s-8.16699 32.833 -15.5 38.5l-18 13.5c-4.66699 3.33301 -5.66699 7.66602 -3 12.999c8.66699 17.333 26.334 33.5 53.001 48.5s53.334 22.5 80.001 22.5
c40.667 0 71.667 -13.833 93 -41.5s28 -64.5 20 -110.5l-15 -84c4 1.33301 9.33301 2.66602 16 3.99902c2.66699 11.333 6.83398 24.166 12.501 38.499s16.167 32.833 31.5 55.5s33.166 43 53.499 61s47.833 34.167 82.5 48.5s73 22.833 115 25.5
c51.333 3.33301 133.333 2.16602 246 -3.50098s177.334 -9.83398 194.001 -12.501c5.33301 -0.666992 8 -4 8 -10c0.666992 -8 0 -17.667 -2 -29z" />
    <glyph glyph-name="afii10084_afii10076" unicode="&#x442;&#x43a;" horiz-adv-x="1022" 
d="M977 66c7.33301 -4 10.8301 -7.99902 10.4971 -11.999s-5.16602 -11 -14.499 -21c-16 -14.667 -36.333 -27.5 -61 -38.5s-50 -16.5 -76 -16.5c-38 0 -68 7.83301 -90 23.5s-36 35 -42 58s-9.66699 45.833 -11 68.5s-3.66602 42.334 -6.99902 59.001
s-10.333 25.667 -21 27l-36 -208l-5 -6h-201l-3 5c28.667 136 48 230.667 58 284c3.33301 41.333 -5.16699 70.333 -25.5 87s-51.166 18 -92.499 4l-31 -177c-6 -38 -7.66699 -67 -5 -87s7.66699 -32.833 15 -38.5s13.5 -10.167 18.5 -13.5s6.16699 -7.66602 3.5 -12.999
c-9.33301 -17.333 -27 -33.5 -53 -48.5s-52.333 -22.5 -79 -22.5c-40.667 0 -71.667 13.833 -93 41.5s-27.666 64.5 -18.999 110.5l43 244l-130 1l-2 4l18 112l1 7c0 1.33301 1 2.66602 3 3.99902c62 11.333 131.333 17.666 208 18.999s140.334 0 191.001 -4
s89.667 -9 117 -15c98 -20.667 139.333 -71 124 -151l-11 -64l8 3c6 21.333 15.667 44.333 29 69s30.166 49.667 50.499 75s45 46.5 74 63.5s59.167 25.5 90.5 25.5c36.667 0 64.667 -10.333 84 -31s26.333 -47.667 21 -81c-6 -32.667 -20.833 -58.5 -44.5 -77.5
s-51.5 -28.5 -83.5 -28.5c-13.333 0 -24.833 2 -34.5 6s-13.834 9.66699 -12.501 17c0 0.666992 1 4.5 3 11.5s3.16699 12.5 3.5 16.5s0.333008 8.83301 0 14.5s-2.5 9.83398 -6.5 12.501s-9.66699 4 -17 4c-11.333 0 -22 -5 -32 -15s-17.667 -20.167 -23 -30.5
s-11.333 -23.833 -18 -40.5c40.667 5.33301 71 -8 91 -40c6.66699 -10.667 13.167 -30.334 19.5 -59.001s16.5 -54.834 30.5 -78.501s35.667 -43.5 65 -59.5z" />
    <glyph glyph-name="afii10084_afii10082" unicode="&#x442;&#x440;" horiz-adv-x="1038" 
d="M900 525c59.333 0 101.832 -27.332 127.499 -81.999s32.167 -118.334 19.5 -191.001c-13.333 -74 -42.5 -137.667 -87.5 -191s-98.5 -80 -160.5 -80c-64 0 -108 31.667 -132 95l-52 -290c0 -1.33301 -0.5 -2.5 -1.5 -3.5s-2.16699 -1.83301 -3.5 -2.5h-1h-200l-3 5
l90 513c1.33301 38 -8.16699 64.5 -28.5 79.5s-50.5 15.833 -90.5 2.5l-31 -177c-6 -38 -7.5 -67 -4.5 -87s8.16699 -32.833 15.5 -38.5l18 -13.5c4.66699 -3.33301 5.66699 -7.66602 3 -12.999c-8.66699 -17.333 -26 -33.5 -52 -48.5s-52.333 -22.5 -79 -22.5
c-40.667 0 -71.667 13.833 -93 41.5s-28 64.5 -20 110.5l43 244l-129 1c-2 0 -3 1.33301 -3 4l18 112l1 7c0 1.33301 1 2.66602 3 3.99902c62 11.333 132.167 17.666 210.5 18.999s143.833 -0.166992 196.5 -4.5s92.334 -9.16602 119.001 -14.499
c52.667 -12 95.667 -43 129 -93c52 76 111.333 114 178 114zM742.999 116.001c23.333 0 43.833 12.833 61.5 38.5s30.167 58.167 37.5 97.5c6.66699 39.333 5.66699 71.666 -3 96.999s-25 38 -49 38c-23.333 0 -43.833 -12.667 -61.5 -38s-29.834 -57.666 -36.501 -96.999
c-7.33301 -39.333 -6.66602 -71.833 2.00098 -97.5s25 -38.5 49 -38.5z" />
    <glyph glyph-name="afii10072_afii10074" unicode="&#x436;&#x438;" horiz-adv-x="1435" 
d="M589 499l-37.002 -210.002c0 1.33301 3.33301 2.66602 10 3.99902c2.66699 11.333 6.83398 24.5 12.501 39.5s16.167 34.333 31.5 58s33.166 44.834 53.499 63.501s48 35.5 83 50.5s73.5 23.833 115.5 26.5c35.333 2 68.5 -1.5 99.5 -10.5s57.833 -22.667 80.5 -41
s38.834 -43.166 48.501 -74.499s10.5 -66.666 2.5 -105.999l-23 -128c-4.66699 -33.333 2.33301 -51 21 -53c18.667 -2.66699 37.334 10 56.001 38c12.667 18.667 21.667 40.667 27 66l49 275l5 6h201c2 -0.666992 3 -2.33398 3 -5.00098c-32 -152 -52.333 -251 -61 -297
c-6 -38 -7.5 -67 -4.5 -87s8.16699 -32.833 15.5 -38.5s13.5 -10.167 18.5 -13.5s6.16699 -7.66602 3.5 -12.999c-9.33301 -17.333 -27.333 -33.5 -54 -48.5s-53.334 -22.5 -80.001 -22.5c-34.667 0 -62.5 10.167 -83.5 30.5s-31.833 48.5 -32.5 84.5
c-26.667 -39.333 -56.167 -68.333 -88.5 -87s-63.5 -28 -93.5 -28c-38 0 -67.5 15.333 -88.5 46s-27.5 70.334 -19.5 119.001l28 156c8 44 -7.33301 74 -46 90c-38 14.667 -80 11.334 -126 -9.99902c-36.667 -17.333 -64 -42.666 -82 -75.999c44 4 75.333 -9.33301 94 -40
c6 -10 11.667 -25 17 -45l15 -54c4.66699 -16 14 -33.333 28 -52s32.667 -34 56 -46c7.33301 -4 10.666 -8 9.99902 -12s-5.66699 -11 -15 -21c-16 -14.667 -36.333 -27.5 -61 -38.5s-50 -16.5 -76 -16.5c-32 0 -58.333 5.66699 -79 17s-34.5 25.666 -41.5 42.999
s-12 36 -15 56s-4.16699 38.667 -3.5 56s-0.833008 32.166 -4.5 44.499s-10.167 18.833 -19.5 19.5l-37 -208l-5 -5h-193l-3 5l37 208c-11.333 -0.666992 -21.666 -9.33398 -30.999 -26.001s-18.666 -36.334 -27.999 -59.001s-20.833 -45.5 -34.5 -68.5
s-34.334 -42.5 -62.001 -58.5s-60.834 -24 -99.501 -24c-25.333 0 -48.5 5.5 -69.5 16.5s-36.167 23.833 -45.5 38.5c-6.66699 10 -9.5 17 -8.5 21s6.16699 8 15.5 12c34.667 16 63 35.833 85 59.5s41.167 49.667 57.5 78s29.833 48.166 40.5 59.499
c31.333 32 66.333 45.333 105 40h1c-1.33301 57.333 -16 86 -44 86c-6.66699 0 -12.5 -1.5 -17.5 -4.5s-8.66699 -7.16699 -11 -12.5s-4.16602 -10.166 -5.49902 -14.499s-2.33301 -9.66602 -3 -15.999s-1 -10.166 -1 -11.499c-3.33301 -15.333 -21.333 -23 -54 -23
c-32 0 -56.5 9.5 -73.5 28.5s-22.5 44.833 -16.5 77.5c5.33301 32.667 21.333 59.5 48 80.5s58.334 31.5 95.001 31.5c31.333 0 58.333 -7.83301 81 -23.5s39.667 -36 51 -61s19.333 -49.833 24 -74.5s6.66699 -49.334 6 -74.001l8 -3l37 210l5 4h194l2 -1v-3z" />
    <glyph glyph-name="afii10072_afii10093" unicode="&#x436;&#x44b;" horiz-adv-x="1627" 
d="M1553 201c-6 -38 -7.16699 -66.9961 -3.5 -86.9961s9.66699 -32.833 18 -38.5s15.166 -10.167 20.499 -13.5s6.66602 -7.66602 3.99902 -12.999c-8.66699 -17.333 -26.334 -33.5 -53.001 -48.5s-53.334 -22.5 -80.001 -22.5c-41.333 0 -73.666 13.833 -96.999 41.5
s-31 64.5 -23 110.5l34 194c6.66699 37.333 1.66699 57 -15 59c-16 1.33301 -32 -12.334 -48 -41.001c-2 -3.33301 -4 -7 -6 -11c27.333 -37.333 36.333 -82 27 -134c-10.667 -63.333 -43 -115.666 -97 -156.999s-114.667 -62 -182 -62c-35.333 0 -66.5 4.5 -93.5 13.5
s-47.667 21 -62 36s-26 32 -35 51s-13.5 38.5 -13.5 58.5s1 39.333 3 58l19 109c8 44.667 -6.33301 74.334 -43 89.001c-36 13.333 -76 8.33301 -120 -15c-33.333 -17.333 -58.666 -42.333 -75.999 -75c45.333 4 77.666 -9.33301 96.999 -40
c6.66699 -10.667 13.167 -30.334 19.5 -59.001s16.5 -54.834 30.5 -78.501s35.667 -43.5 65 -59.5c7.33301 -4 10.833 -8 10.5 -12s-5.16602 -11 -14.499 -21c-16 -14.667 -36.333 -27.5 -61 -38.5s-50 -16.5 -76 -16.5c-38 0 -67.833 7.83301 -89.5 23.5s-35 35 -40 58
s-7.83301 45.833 -8.5 68.5s-2.5 42.334 -5.5 59.001s-9.83301 25.667 -20.5 27l-36 -208l-5 -5h-193l-3 5l36 208c-11.333 -0.666992 -21.5 -9.33398 -30.5 -26.001s-18.167 -36.334 -27.5 -59.001s-20.833 -45.5 -34.5 -68.5s-34.334 -42.5 -62.001 -58.5
s-60.834 -24 -99.501 -24c-25.333 0 -48.5 5.5 -69.5 16.5s-36.167 23.833 -45.5 38.5c-6.66699 10 -9.5 17 -8.5 21s5.83301 8 14.5 12c34.667 16 63.167 35.833 85.5 59.5s41.666 49.834 57.999 78.501s29.833 48.334 40.5 59.001c31.333 32 66.333 45.333 105 40h1
c-1.33301 57.333 -16.333 86 -45 86c-8.66699 0 -15.667 -2.66699 -21 -8s-8.66602 -10.333 -9.99902 -15s-2.66602 -11.667 -3.99902 -21s-2 -14.333 -2 -15c-3.33301 -15.333 -21.333 -23 -54 -23c-32 0 -56.5 9.5 -73.5 28.5s-22.5 44.833 -16.5 77.5
c5.33301 32.667 21.333 59.5 48 80.5s58.334 31.5 95.001 31.5c31.333 0 58.333 -7.83301 81 -23.5s39.667 -36 51 -61s19.333 -49.833 24 -74.5s6.66699 -49.334 6 -74.001l8 -3l37 210l4 4h194l3 -1v-3l-37 -210c0 0.666992 3 2 9 4
c2.66699 12 6.83398 25.167 12.501 39.5s16.167 33.166 31.5 56.499s33.166 44.333 53.499 63s48 35.667 83 51s73.5 24.666 115.5 27.999c46 3.33301 85.5 1.83301 118.5 -4.5s59.667 -21 80 -44s27.833 -54.167 22.5 -93.5c28.667 3.33301 58.334 5 89.001 5
c36.667 0 69.667 -9.33301 99 -28c27.333 53.333 59.833 92.666 97.5 117.999s73.834 38 108.501 38c38.667 0 68.5 -15.333 89.5 -46s27.5 -70.334 19.5 -119.001zM1077 94.0039c32 0 54.001 36.001 66.001 108.001c5.33301 29.333 3.33301 52.666 -6 69.999s-25 26 -47 26
c-6.66699 0 -13.334 -0.666992 -20.001 -2l-22 -122c-6.66699 -53.333 3 -80 29 -80z" />
    <glyph glyph-name="afii10076_afii10093" unicode="&#x43a;&#x44b;" horiz-adv-x="1340" 
d="M1267 201c-6 -38 -7.16699 -66.9971 -3.5 -86.9971s9.66699 -32.833 18 -38.5s15.166 -10.167 20.499 -13.5s6.66602 -7.66602 3.99902 -12.999c-8.66699 -17.333 -26.334 -33.5 -53.001 -48.5s-53.334 -22.5 -80.001 -22.5c-41.333 0 -73.666 13.833 -96.999 41.5
s-31 64.5 -23 110.5l34 194c6.66699 37.333 1.66699 57 -15 59c-16 1.33301 -32 -12.334 -48 -41.001c-2 -3.33301 -4 -7 -6 -11c27.333 -37.333 36.333 -82 27 -134c-10.667 -63.333 -43 -115.666 -97 -156.999s-114.667 -62 -182 -62c-35.333 0 -66.5 4.5 -93.5 13.5
s-47.667 21 -62 36s-26 32 -35 51s-13.5 38.5 -13.5 58.5s1 39.333 3 58l19 109c8 44.667 -6.33301 74.334 -43 89.001c-36 13.333 -76 8.33301 -120 -15c-33.333 -18 -58.666 -43 -75.999 -75c45.333 4 77.666 -9.33301 96.999 -40
c6.66699 -10.667 13.167 -30.334 19.5 -59.001s16.5 -54.834 30.5 -78.501s35.667 -43.5 65 -59.5c7.33301 -4 10.833 -8 10.5 -12s-5.16602 -11 -14.499 -21c-16 -14.667 -36.333 -27.5 -61 -38.5s-50 -16.5 -76 -16.5c-38 0 -68 7.83301 -90 23.5
s-35.833 34.834 -41.5 57.501s-9.16699 45.334 -10.5 68.001s-3.5 42.5 -6.5 59.5s-9.83301 26.167 -20.5 27.5l-36 -208l-5 -6h-201l-3 5c32 152 52 251 60 297c6 38 7.5 67 4.5 87s-8.16699 32.833 -15.5 38.5l-18 13.5c-4.66699 3.33301 -5.66699 7.66602 -3 12.999
c8.66699 17.333 26.334 33.5 53.001 48.5s53.334 22.5 80.001 22.5c40.667 0 71.667 -13.833 93 -41.5s28 -64.5 20 -110.5l-15 -84l3 1c1.33301 0.666992 3.16602 1.16699 5.49902 1.5s4.16602 0.833008 5.49902 1.5c2.66699 12 6.83398 25.167 12.501 39.5
s16.167 33.166 31.5 56.499s33.166 44.333 53.499 63s48 35.667 83 51s73.5 24.666 115.5 27.999c46 3.33301 85.5 1.83301 118.5 -4.5s59.667 -21 80 -44s27.833 -54.167 22.5 -93.5c28.667 3.33301 58.334 5 89.001 5c36.667 0 69.667 -9.33301 99 -28
c27.333 53.333 59.833 92.666 97.5 117.999s73.834 38 108.501 38c38.667 0 68.5 -15.333 89.5 -46s27.5 -70.334 19.5 -119.001zM791 94.0029c32 0 54.001 36.001 66.001 108.001c5.33301 29.333 3.33301 52.666 -6 69.999s-25 26 -47 26
c-6.66699 0 -13.334 -0.666992 -20.001 -2l-22 -122c-6.66699 -53.333 3 -80 29 -80z" />
    <glyph glyph-name="afii10072_afii10085" unicode="&#x436;&#x443;" horiz-adv-x="1404" 
d="M1360 73c-12.667 -88.667 -48.001 -160.336 -106.001 -215.003s-132.333 -82 -223 -82c-34 0 -64.5 5.16699 -91.5 15.5s-47.833 23.333 -62.5 39s-25.667 30.334 -33 44.001s-12 26.167 -14 37.5c-2.66699 16 -3.16699 28.167 -1.5 36.5s3.83398 13.833 6.50098 16.5
s6 3.66699 10 3c4.66699 -0.666992 10.667 -5.16699 18 -13.5l24 -27c8.66699 -9.66699 22.667 -18.334 42 -26.001s41.666 -11.5 66.999 -11.5c38 0 70.833 12.5 98.5 37.5s45.167 53.833 52.5 86.5l18 100c-26 -40 -55.5 -69.333 -88.5 -88s-64.5 -28 -94.5 -28
c-38 0 -67.5 15.333 -88.5 46s-27.5 70.334 -19.5 119.001l24 136h-1c8 44.667 -7 74.667 -45 90c-37.333 14.667 -78.333 11 -123 -11c-35.333 -17.333 -62 -42.333 -80 -75c45.333 4 77.666 -9.33301 96.999 -40c6.66699 -10.667 13.167 -30.334 19.5 -59.001
s16.5 -54.834 30.5 -78.501s35.667 -43.5 65 -59.5c7.33301 -4 10.833 -8 10.5 -12s-5.16602 -11 -14.499 -21c-16 -14.667 -36.333 -27.5 -61 -38.5s-50 -16.5 -76 -16.5c-38 0 -67.833 7.83301 -89.5 23.5s-35 35 -40 58s-7.83301 45.833 -8.5 68.5
s-2.5 42.334 -5.5 59.001s-9.83301 25.667 -20.5 27l-36 -208l-5 -5h-193l-3 5l36 208c-11.333 -0.666992 -21.5 -9.33398 -30.5 -26.001s-18.167 -36.334 -27.5 -59.001s-20.833 -45.5 -34.5 -68.5s-34.334 -42.5 -62.001 -58.5s-60.834 -24 -99.501 -24
c-26 0 -49.5 5.5 -70.5 16.5s-35.833 23.833 -44.5 38.5c-6.66699 10 -9.5 17 -8.5 21s5.83301 8 14.5 12c34.667 16 63.167 35.833 85.5 59.5s41.666 49.834 57.999 78.501s29.833 48.334 40.5 59.001c31.333 32 66.333 45.333 105 40h1
c-1.33301 57.333 -16.666 86 -45.999 86c-8.66699 0 -15.667 -2.66699 -21 -8s-8.66602 -10.5 -9.99902 -15.5s-2.5 -12 -3.5 -21s-1.5 -13.833 -1.5 -14.5c-3.33301 -15.333 -21.333 -23 -54 -23c-32 0 -56.5 9.5 -73.5 28.5s-22.5 44.833 -16.5 77.5
c5.33301 32.667 21.333 59.5 48 80.5s58.334 31.5 95.001 31.5c32.667 0 60.667 -8.16699 84 -24.5s40.333 -37.333 51 -63s18.167 -50.667 22.5 -75s5.83301 -47.833 4.5 -70.5l8 -3l37 210l4 4h194l3 -1v-3l-37 -210c0 0.666992 3 2 9 4c2.66699 12 7 25.333 13 40
s16.667 33.834 32 57.501s33.166 44.834 53.499 63.501s47.833 35.5 82.5 50.5s73 23.833 115 26.5c48.667 2.66699 91.667 -3.83301 129 -19.5s65.333 -42 84 -79s22.334 -81.5 11.001 -133.5l-1 -6l-17 -97c-6 -36 0.333008 -55.333 19 -58
c18.667 -3.33301 37.334 8.66699 56.001 36c14.667 20.667 24.667 45.334 30 74.001l44 249l5 5h193l3 -5z" />
    <glyph glyph-name="afii10072_afii10077" unicode="&#x436;&#x43b;" horiz-adv-x="1425" 
d="M1438 499l-87 -492.992l-5 -5h-193l-3 5l71 405h-71c-17.333 -116 -39.333 -202.667 -66 -260c-15.333 -33.333 -35.5 -62.333 -60.5 -87s-51.5 -43.334 -79.5 -56.001s-54.333 -21.834 -79 -27.501s-48 -8.5 -70 -8.5c-44 0 -81.333 4.5 -112 13.5
s-53.5 20.667 -68.5 35s-26.5 30.166 -34.5 47.499s-12.667 34.666 -14 51.999s-2.33301 33.166 -3 47.499s-2.5 25.833 -5.5 34.5s-8.83301 12.667 -17.5 12l-37 -208l-5 -5h-193l-3 5l37 208c-11.333 -0.666992 -21.666 -9.33398 -30.999 -26.001
s-18.666 -36.334 -27.999 -59.001s-20.833 -45.5 -34.5 -68.5s-34.334 -42.5 -62.001 -58.5s-60.834 -24 -99.501 -24c-25.333 0 -48.5 5.5 -69.5 16.5s-36.167 23.833 -45.5 38.5c-6.66699 10 -9.5 17 -8.5 21s5.83301 8 14.5 12c34.667 16 63.167 35.833 85.5 59.5
s41.666 49.834 57.999 78.501s29.833 48.334 40.5 59.001c30.667 32 65 45.333 103 40h1c-1.33301 57.333 -16.333 86 -45 86c-8.66699 0 -15.5 -2.5 -20.5 -7.5s-8.16699 -10.167 -9.5 -15.5s-2.5 -12.333 -3.5 -21s-1.5 -13.667 -1.5 -15
c-3.33301 -15.333 -21.333 -23 -54 -23c-32 0 -56.5 9.5 -73.5 28.5s-22.5 44.833 -16.5 77.5c5.33301 32.667 21.333 59.5 48 80.5s58.334 31.5 95.001 31.5c31.333 0 58.5 -7.83301 81.5 -23.5s40.167 -36 51.5 -61s19.333 -50 24 -75s6.33398 -49.5 5.00098 -73.5l8 -3
l37 210l4 4h194l3 -1v-3l-37 -210l7 3c6 20 15.167 41.833 27.5 65.5s28.333 48.5 48 74.5s44.334 47.833 74.001 65.5s61.167 26.834 94.5 27.501c36.667 0.666992 64.667 -9.5 84 -30.5s26.333 -48.167 21 -81.5c-6 -32.667 -20.833 -58.5 -44.5 -77.5
s-51.5 -28.5 -83.5 -28.5c-13.333 0 -24.833 2 -34.5 6s-13.834 9.66699 -12.501 17c0 1.33301 1 5.16602 3 11.499s3.33301 11.666 4 15.999s1 9.16602 1 14.499s-1.83301 9.5 -5.5 12.5s-9.16699 4.5 -16.5 4.5c-32.667 0 -58.667 -28.667 -78 -86
c30.667 3.33301 55 -2.66699 73 -18s30.167 -35 36.5 -59s11.166 -48.333 14.499 -73s8.66602 -45.834 15.999 -63.501s18.333 -26.5 33 -26.5c19.333 0 38.833 15 58.5 45s36.334 66.167 50.001 108.5s26 84.833 37 127.5s19.5 79 25.5 109l8 45c0 3.33301 1.33301 5 4 5
c143.333 30.667 289 30.667 437 0c2 0 3 -1.33301 3 -4z" />
    <glyph glyph-name="afii10072_afii10084" unicode="&#x436;&#x442;" horiz-adv-x="1273" 
d="M1303 467c-4.66699 -30.667 -18.335 -54.3301 -41.002 -70.9971s-45.334 -26.334 -68.001 -29.001s-44.667 -2.33398 -66 0.999023h-1l-29 -165c-6 -38 -7.5 -67 -4.5 -87s8.16699 -32.833 15.5 -38.5l18 -13.5c4.66699 -3.33301 5.66699 -7.66602 3 -12.999
c-9.33301 -17.333 -27.5 -33.5 -54.5 -48.5s-53.833 -22.5 -80.5 -22.5c-40.667 0 -71.5 13.833 -92.5 41.5s-27.5 64.5 -19.5 110.5l44 249c-144.667 23.333 -243 -2.66699 -295 -78c45.333 4 77.666 -9.33301 96.999 -40c6.66699 -10.667 13.167 -30.334 19.5 -59.001
s16.5 -54.834 30.5 -78.501s35.667 -43.5 65 -59.5c7.33301 -4 10.833 -8 10.5 -12s-5.16602 -11 -14.499 -21c-16 -14.667 -36.333 -27.5 -61 -38.5s-50 -16.5 -76 -16.5c-36.667 0 -66 7.33301 -88 22s-36.167 32.834 -42.5 54.501s-10.333 43.334 -12 65.001
s-3.66699 41.5 -6 59.5s-7.5 29 -15.5 33l-36 -206l-5 -5h-193l-3 5l37 208c-11.333 -0.666992 -21.666 -9.33398 -30.999 -26.001s-18.666 -36.334 -27.999 -59.001s-20.833 -45.5 -34.5 -68.5s-34.334 -42.5 -62.001 -58.5s-60.834 -24 -99.501 -24
c-25.333 0 -48.5 5.5 -69.5 16.5s-36.167 23.833 -45.5 38.5c-6.66699 10 -9.5 17 -8.5 21s5.83301 8 14.5 12c34.667 16 63.167 35.833 85.5 59.5s41.666 49.834 57.999 78.501s29.833 48.334 40.5 59.001c31.333 32 66.333 45.333 105 40h1
c-1.33301 57.333 -16.333 86 -45 86c-8.66699 0 -15.667 -2.66699 -21 -8s-8.66602 -10.333 -9.99902 -15s-2.66602 -11.667 -3.99902 -21s-2 -14.333 -2 -15c-3.33301 -15.333 -21.333 -23 -54 -23c-32 0 -56.5 9.5 -73.5 28.5s-22.5 44.833 -16.5 77.5
c5.33301 32.667 21.333 59.5 48 80.5s58.334 31.5 95.001 31.5c31.333 0 58.5 -7.5 81.5 -22.5s40 -34.667 51 -59s18.833 -49.166 23.5 -74.499s6.66699 -51 6 -77l8 -3l37 210l4 4h194l3 -1v-3l-37 -208c0.666992 0 3.66699 0.666992 9 2
c2.66699 11.333 6.83398 24.166 12.501 38.499s16.167 32.833 31.5 55.5s33.166 43 53.499 61s47.833 34.167 82.5 48.5s73 22.833 115 25.5c51.333 3.33301 133.333 2.16602 246 -3.50098s177.334 -9.83398 194.001 -12.501c5.33301 -0.666992 8 -4 8 -10
c0.666992 -8 0 -17.667 -2 -29z" />
    <glyph glyph-name="afii10093_afii10072" unicode="&#x44b;&#x436;" horiz-adv-x="1654" 
d="M1612 65c6.66699 -4 9.83398 -8 9.50098 -12s-5.5 -11 -15.5 -21c-15.333 -14.667 -35.5 -27.5 -60.5 -38.5s-50.167 -16.5 -75.5 -16.5c-38 0 -68 7.83301 -90 23.5s-36 34.834 -42 57.501s-9.66699 45.334 -11 68.001s-3.5 42.5 -6.5 59.5s-9.83301 26.167 -20.5 27.5
l-37 -208l-5 -5h-193l-3 5l37 208c-10 0 -16.333 -3.66699 -19 -11c-16 -42 -35.5 -78 -58.5 -108s-45.5 -53 -67.5 -69s-47.667 -28.5 -77 -37.5s-54.833 -14.5 -76.5 -16.5s-47.167 -3 -76.5 -3c-75.333 0 -128.833 12.333 -160.5 37s-45.834 59 -42.501 103
s10 96.333 20 157c2 8.66699 3.33301 15.334 4 20.001s1.66699 10.834 3 18.501s2.66602 14.5 3.99902 20.5c6.66699 36 1.66699 55 -15 57c-16 2.66699 -32 -10.333 -48 -39c-2 -3.33301 -4 -7 -6 -11c22 -30 28 -74.667 18 -134c-11.333 -64 -42.5 -116.5 -93.5 -157.5
s-109.833 -61.5 -176.5 -61.5c-35.333 0 -66.5 4.5 -93.5 13.5s-47.667 21 -62 36s-26 32 -35 51s-13.333 38.5 -13 58.5s1.5 39.333 3.5 58l18 106.5l24 136.5c7.33301 40.667 11 60.667 11 60l5 5h193l3 -6l-20 -110c29.333 4.66699 56.666 7 81.999 7
c36.667 0 69.667 -9.33301 99 -28c26.667 53.333 58.834 92.666 96.501 117.999s73.834 38 108.501 38c38.667 0 68.834 -15.333 90.501 -46s28.167 -70.334 19.5 -119.001c-2 -12 -5.16699 -28.333 -9.5 -49l-11.5 -56l-10.5 -55c-3.66699 -20 -5.66699 -37.5 -6 -52.5
s0.166992 -29 1.5 -42s5.16602 -23 11.499 -30s14.833 -10.5 25.5 -10.5c17.333 0 33.5 8.83301 48.5 26.5s28.833 38.834 41.5 63.501s26.167 49 40.5 73s32.833 43.667 55.5 59s48.667 21.333 78 18c-1.33301 57.333 -16 86 -44 86c-6.66699 0 -12.5 -1.5 -17.5 -4.5
s-8.83301 -7.16699 -11.5 -12.5s-4.5 -10.166 -5.5 -14.499s-2 -9.66602 -3 -15.999s-1.5 -10.166 -1.5 -11.499c-3.33301 -15.333 -21.333 -23 -54 -23c-32 0 -56.5 9.5 -73.5 28.5s-22.5 44.833 -16.5 77.5c5.33301 32.667 21.5 59.5 48.5 80.5s58.833 31.5 95.5 31.5
c31.333 0 58.333 -7.66699 81 -23s39.5 -35.5 50.5 -60.5s18.833 -49.833 23.5 -74.5s6.66699 -49.667 6 -75l8 -3l37 210l5 4h194l2 -1v-3l-37 -210l7 3c6.66699 20 16.667 42 30 66s30.166 49.167 50.499 75.5s45.166 48.166 74.499 65.499s59.333 26 90 26
c36.667 0 64.667 -10.333 84 -31s26.333 -47.667 21 -81c-6 -32.667 -20.833 -58.5 -44.5 -77.5s-51.834 -28.5 -84.501 -28.5c-13.333 0 -24.666 2 -33.999 6s-13.333 9.66699 -12 17c0 1.33301 1 5.16602 3 11.499s3.33301 11.666 4 15.999
s0.833984 9.16602 0.500977 14.499s-2.33301 9.5 -6 12.5s-8.83398 4.5 -15.501 4.5c-29.333 0 -55.666 -28.667 -78.999 -86h1c41.333 5.33301 72 -8 92 -40c6.66699 -10.667 13.334 -30.334 20.001 -59.001s17 -54.834 31 -78.501s36 -43.5 66 -59.5zM257 94
c18.667 0 32.833 9.66895 42.5 29.002s17.5 45.666 23.5 78.999c5.33301 29.333 3.33301 52.666 -6 69.999s-25 26 -47 26c-7.33301 0 -14.333 -0.666992 -21 -2l-21 -122c-8 -53.333 1.66699 -80 29 -80z" />
    <glyph glyph-name="afii10093_afii10072_afii10074" unicode="&#x44b;&#x436;&#x438;" horiz-adv-x="2194" 
d="M1349 498l-37.0049 -208.003c1.33301 1.33301 4 2.33301 8 3c2.66699 12 7 25.333 13 40s16.667 33.834 32 57.501s33.166 44.834 53.499 63.501s47.833 35.5 82.5 50.5s73 23.833 115 26.5c36 2 69.5 -1.5 100.5 -10.5s57.833 -22.667 80.5 -41
s38.834 -43.166 48.501 -74.499s10.5 -66.666 2.5 -105.999l-23 -128c-4.66699 -33.333 2.33301 -51 21 -53c18.667 -2.66699 37.334 10 56.001 38c12.667 18.667 21.667 40.667 27 66l48 275l5 6h201c2.66699 -0.666992 4 -2.33398 4 -5.00098
c-32.667 -152 -53 -251 -61 -297c-6 -38 -7.5 -67 -4.5 -87s8.16699 -32.833 15.5 -38.5l18 -13.5c4.66699 -3.33301 5.66699 -7.66602 3 -12.999c-8.66699 -17.333 -26.334 -33.5 -53 -48.5c-26.667 -15 -53.334 -22.5 -80.001 -22.5c-34.667 0 -62.5 10.167 -83.5 30.5
s-31.833 48.5 -32.5 84.5c-26.667 -39.333 -56.167 -68.333 -88.5 -87s-63.5 -28 -93.5 -28c-38 0 -67.667 15.333 -89 46s-27.666 70.334 -18.999 119.001l28 156c8 44 -7.66699 74 -47 90c-38 14.667 -80 11.334 -126 -9.99902
c-37.333 -17.333 -65.333 -42.666 -84 -75.999c45.333 4 77.666 -9.33301 96.999 -40c6.66699 -10.667 13.167 -30.334 19.5 -59.001s16.5 -54.834 30.5 -78.501s35.667 -43.5 65 -59.5c7.33301 -4 10.833 -8 10.5 -12s-5.16602 -11 -14.499 -21
c-16 -14.667 -36.333 -27.5 -61 -38.5s-50 -16.5 -76 -16.5c-38 0 -67.667 7.83301 -89 23.5s-34.666 34.834 -39.999 57.501s-8.33301 45.334 -9 68.001s-2.33398 42.5 -5.00098 59.5s-9 26.167 -19 27.5l-37 -209l-5 -5h-193l-3 5l36 208c-8.66699 0 -15 -3.66699 -19 -11
c-16 -42 -35.333 -78 -58 -108s-45 -53 -67 -69s-47.667 -28.5 -77 -37.5s-54.833 -14.5 -76.5 -16.5s-47.167 -3 -76.5 -3c-24 0 -45.5 1 -64.5 3s-35.5 5.66699 -49.5 11s-26.5 10.666 -37.5 15.999s-19.667 13.166 -26 23.499l-16.5 27.5
c-4.66699 8 -7.33398 19.667 -8.00098 35s-1.16699 28.166 -1.5 38.499s1 25.166 4 44.499l7.5 47.5c2 12.333 5.33301 30.166 10 53.499c4.66699 24.667 8 43.334 10 56.001c6.66699 36 1.66699 55 -15 57c-16 2.66699 -32 -10.333 -48 -39c-2 -3.33301 -4 -7 -6 -11
c22 -30 28 -74.667 18 -134c-11.333 -64 -42.5 -116.5 -93.5 -157.5s-109.833 -61.5 -176.5 -61.5c-35.333 0 -66.5 4.5 -93.5 13.5s-47.667 21 -62 36s-26 32 -35 51s-13.5 38.5 -13.5 58.5s1 39.333 3 58l54 303l4 5h193l3 -6l-19 -110c29.333 4.66699 56.333 7 81 7
c38 0 71 -9.33301 99 -28c27.333 53.333 59.833 92.666 97.5 117.999s73.834 38 108.501 38c38.667 0 68.667 -15.333 90 -46s28 -70.334 20 -119.001c-2 -11.333 -5.33301 -27.666 -10 -48.999l-12 -56c-3.33301 -16 -6.66602 -34.167 -9.99902 -54.5s-5.33301 -38 -6 -53
s-0.166992 -29 1.5 -42s5.66699 -23 12 -30s14.833 -10.5 25.5 -10.5c17.333 0 33.5 8.83301 48.5 26.5s28.833 38.834 41.5 63.501s26.167 49 40.5 73s33 43.667 56 59s49.167 21.333 78.5 18c-1.33301 57.333 -17 86 -47 86c-6 0 -11.167 -1.16699 -15.5 -3.5
s-7.66602 -5 -9.99902 -8s-4.33301 -7.16699 -6 -12.5s-2.66699 -9.66602 -3 -12.999s-0.833008 -7.5 -1.5 -12.5s-1 -8.16699 -1 -9.5c-3.33301 -15.333 -21.333 -23 -54 -23c-32 0 -56.5 9.5 -73.5 28.5s-22.833 44.833 -17.5 77.5c6 33.333 22.333 60.333 49 81
s58.334 31 95.001 31c31.333 0 58.5 -7.83301 81.5 -23.5s40.167 -35.834 51.5 -60.501s19.333 -49.667 24 -75s6.33398 -50 5.00098 -74l8 -3l37 210l4 4h194c0 -2 1 -3.33301 3 -4zM254.995 93.9971c32 0 54.001 36.001 66.001 108.001
c5.33301 29.333 3.33301 52.666 -6 69.999s-25 26 -47 26c-6.66699 0 -13.334 -0.666992 -20.001 -2l-22 -122c-6.66699 -53.333 3 -80 29 -80z" />
    <glyph glyph-name="afii10093_afii10072_afii10093" unicode="&#x44b;&#x436;&#x44b;" horiz-adv-x="2384" 
d="M2312 201c-6 -38 -7.1709 -66.9932 -3.50391 -86.9932s9.66699 -32.833 18 -38.5s15.166 -10.167 20.5 -13.5c5.33301 -3.33301 6.66602 -7.66602 4 -12.999c-8.66699 -17.333 -26.334 -33.5 -53 -48.5c-26.667 -15 -53.334 -22.5 -80 -22.5
c-41.333 0 -73.666 13.833 -97 41.5c-23.333 27.667 -31 64.5 -23 110.5l34 194c6.66699 37.333 1.66699 57 -15 59c-16 1.33301 -32 -12.334 -48 -41.001c-2 -3.33301 -4 -7 -6 -11c27.333 -37.333 36.333 -82 27 -134c-10.667 -63.333 -43 -115.666 -97 -156.999
s-114.667 -62 -182 -62c-35.333 0 -66.5 4.5 -93.5 13.5s-47.667 21 -62 36s-26 32 -35 51s-13.5 38.5 -13.5 58.5s1 39.333 3 58l19 109c8 44.667 -6.33301 74.334 -43 89.001c-36 13.333 -76 8.33301 -120 -15c-33.333 -18 -58.666 -43 -75.999 -75
c45.333 4 77.666 -9.33301 96.999 -40c6.66699 -10.667 13.167 -30.334 19.5 -59.001s16.5 -54.834 30.5 -78.501s35.667 -43.5 65 -59.5c7.33301 -4 10.833 -8 10.5 -12s-5.5 -11 -15.5 -21c-15.333 -14.667 -35.333 -27.5 -60 -38.5s-50 -16.5 -76 -16.5
c-38 0 -67.667 7.83301 -89 23.5s-34.666 34.834 -39.999 57.501s-8.33301 45.334 -9 68.001s-2.33398 42.5 -5.00098 59.5s-9.33398 26.167 -20.001 27.5l-36 -209l-5 -5h-193l-3 5l36 208c-8.66699 0 -15 -3.66699 -19 -11c-16 -42 -35.333 -78 -58 -108s-45 -53 -67 -69
s-47.667 -28.5 -77 -37.5s-54.833 -14.5 -76.5 -16.5s-47.167 -3 -76.5 -3c-24 0 -45.5 1 -64.5 3s-35.5 5.66699 -49.5 11s-26.5 10.666 -37.5 15.999s-19.667 13.166 -26 23.499l-16.5 27.5c-4.66699 8 -7.33398 19.667 -8.00098 35s-1.16699 28.166 -1.5 38.499
s1 25.166 4 44.499l7.5 47.5c2 12.333 5.33301 30.166 10 53.499c4.66699 24.667 8 43.334 10 56.001c6 36 0.666992 55 -16 57c-15.333 2.66699 -31 -10.333 -47 -39l-6 -11c22 -30 27.667 -74.667 17 -134c-10.667 -64 -41.5 -116.5 -92.5 -157.5
s-109.833 -61.5 -176.5 -61.5c-35.333 0 -66.5 4.5 -93.5 13.5s-47.667 21 -62 36s-26 32 -35 51s-13.5 38.5 -13.5 58.5s1 39.333 3 58l53 303l5 5h193l3 -6l-19 -110c29.333 4.66699 56.333 7 81 7c36.667 0 69.667 -9.33301 99 -28
c27.333 53.333 59.833 92.666 97.5 117.999s73.834 38 108.501 38c38.667 0 68.667 -15.333 90 -46s28 -70.334 20 -119.001c-2 -11.333 -5.33301 -27.666 -10 -48.999l-12 -56c-3.33301 -16 -6.66602 -34.167 -9.99902 -54.5s-5.33301 -38 -6 -53s-0.166992 -29 1.5 -42
s5.66699 -23 12 -30s14.833 -10.5 25.5 -10.5c17.333 0 33.5 8.83301 48.5 26.5s28.5 38.834 40.5 63.501s25 49 39 73s32.5 43.667 55.5 59s49.167 21.333 78.5 18c-3.33301 57.333 -17.666 86 -42.999 86c-6 0 -11.167 -1.16699 -15.5 -3.5s-7.66602 -5 -9.99902 -8
s-4.5 -7.16699 -6.5 -12.5s-3.16699 -9.5 -3.5 -12.5l-1.5 -13c-0.666992 -5.66699 -1 -8.83398 -1 -9.50098c-3.33301 -15.333 -21.333 -23 -54 -23c-32 0 -56.667 9.5 -74 28.5s-23 44.833 -17 77.5c6 33.333 22.333 60.333 49 81s58.334 31 95.001 31
c31.333 0 58.5 -7.66699 81.5 -23s40.167 -35.333 51.5 -60s19.333 -49.667 24 -75s6.33398 -50.333 5.00098 -75l7 -3l37 210l5 4h194l2 -1v-3l-36 -208h1c0.666992 0.666992 1.66699 1.16699 3 1.5s2.66602 0.833008 3.99902 1.5c2.66699 12 6.83398 25.167 12.501 39.5
s16.167 33.166 31.5 56.499s33.166 44.333 53.499 63s48 35.667 83 51s73.5 24.666 115.5 27.999c46 3.33301 85.5 1.83301 118.5 -4.5s59.667 -21 80 -44s27.833 -54.167 22.5 -93.5c28.667 3.33301 58.334 5 89.001 5c36.667 0 69.667 -9.33301 99 -28
c27.333 53.333 59.833 92.666 97.5 117.999s73.834 38 108.5 38c38.667 0 68.5 -15.333 89.5 -46s27.5 -70.334 19.5 -119.001zM1836 94.0068c32 0 54.001 36.001 66.001 108.001c5.33301 29.333 3.33301 52.666 -6 69.999s-25 26 -47 26
c-6.66699 0 -13.334 -0.666992 -20.001 -2l-22 -122c-8 -53.333 1.66699 -80 29 -80zM254.997 94.0078c32 0 54.001 36.001 66.001 108.001c5.33301 29.333 3.33301 52.666 -6 69.999s-25 26 -47 26c-6.66699 0 -13.334 -0.666992 -20.001 -2l-22 -122
c-8 -53.333 1.66699 -80 29 -80z" />
    <glyph glyph-name="uni0410_afii10077" unicode="&#x410;&#x43b;" horiz-adv-x="1216" 
d="M1221 499l-87.002 -493.006l-5 -5h-193l-3 5l71 405h-71c-2.66699 -11.333 -8.33398 -37.166 -17.001 -77.499s-16.834 -74.166 -24.501 -101.499s-17.167 -54.333 -28.5 -81c-19.333 -46 -47.5 -84 -84.5 -114s-76.167 -49.167 -117.5 -57.5
s-81.666 -9.66602 -120.999 -3.99902s-73 20.667 -101 45s-45 54.5 -51 90.5h-175l-40 -106l-8 -5h-208l-1 5c176.667 358.667 265.334 538.334 266.001 539.001c13.333 24 21.833 44.333 25.5 61s4 28.334 1 35.001l-8.5 18.5c-2.66699 5.66699 -2.66699 10.834 0 15.501
c9.33301 18.667 30 34.834 62 48.501s63 20.5 93 20.5c38.667 0 72.334 -13.167 101.001 -39.5s47.667 -65.5 57 -117.5c3.33301 -18 9 -81 17 -189s14.333 -182 19 -222c14.667 -128.667 46.334 -128.334 95.001 0.999023c33.333 86.667 63.666 193 90.999 319
c0.666992 1.33301 1 2.33301 1 3c0.666992 3.33301 2.33398 5 5.00098 5c143.333 30.667 289 30.667 437 0c2 -2 3 -3.33301 3 -4zM264.998 245.994h117l-8 290c-12 -28 -31.333 -78.5 -58 -151.5z" />
    <glyph glyph-name="uni0410_afii10078" unicode="&#x410;&#x43c;" horiz-adv-x="1402" 
d="M1400 499l-79.001 -494l-5 -5h-194l-3 5l34 191l30 108l-180 -295c-2.66699 -5.33301 -7.33398 -8 -14.001 -8h-25c-5.33301 0 -9 2.66699 -11 8l-54 251c-10.667 -36.667 -23.334 -73.334 -38.001 -110.001c-13.333 -37.333 -34.166 -69.5 -62.499 -96.5
s-59 -47 -92 -60s-67.5 -20.5 -103.5 -22.5s-69 1.83301 -99 11.5s-56 25.667 -78 48s-35.333 49.166 -40 80.499h-175l-40 -106l-8 -5h-208l-1 5c177.333 358.667 266 538.334 266 539.001c13.333 24 22 44.333 26 61s4.33301 28.334 1 35.001l-9 18.5
c-2.66699 5.66699 -2.66699 10.834 0 15.501c10 18.667 30.833 34.834 62.5 48.501s62.5 20.5 92.5 20.5c38.667 0 72.334 -13.167 101.001 -39.5s47.667 -65.5 57 -117.5c3.33301 -18 8.83301 -80.833 16.5 -188.5s14.167 -181.834 19.5 -222.501
c14.667 -118.667 43 -125.334 85 -20.001c32.667 80.667 62.334 187 89.001 319c2 10 3.33301 18 4 24l5 5h203l4 -4l57 -187h3l131 188c1.33301 2 3.33301 3 6 3h224zM262.999 246h116.999l-8 290c-11.333 -27.333 -30.166 -77 -56.499 -149s-43.833 -119 -52.5 -141z" />
    <glyph glyph-name="uni041A_afii10077" unicode="&#x41a;&#x43b;" horiz-adv-x="1165" 
d="M1161 499l-87.0049 -493l-5 -5h-193l-3 5l71 405h-71c-16.667 -109.333 -39.667 -196 -69 -260c-20 -44 -47.167 -80.167 -81.5 -108.5s-66.833 -47.166 -97.5 -56.499s-61 -14 -91 -14c-96 0 -161 28.333 -195 85s-46 142 -36 256c-14 3.33301 -26.333 2 -37 -4
l-46 -304l-6 -5h-214l-3 5l60 347.5l29 166.5l5 29c2 26.667 0.5 48.167 -4.5 64.5s-11 26.333 -18 30s-12.667 7.16699 -17 10.5s-5.16602 7.66602 -2.49902 12.999c9.33301 17.333 29.5 33.833 60.5 49.5s60.833 23.5 89.5 23.5c42.667 0 75.667 -13.333 99 -40
s30.333 -66.667 21 -120l-33 -160c2.66699 1.33301 8 2.66602 16 3.99902s13 2.33301 15 3c13.333 81.333 44.333 151.666 93 210.999s109 93.333 181 102c46 5.33301 82 -4 108 -28s32.667 -56.667 20 -98c-8 -27.333 -20.833 -49.333 -38.5 -66s-36 -27.167 -55 -31.5
s-37.333 -6.5 -55 -6.5s-32.167 2 -43.5 6s-16.666 7.33301 -15.999 10c0 0.666992 0.5 2.83398 1.5 6.50098s1.5 6.33398 1.5 8.00098s0.333008 4.16699 1 7.5s0.833984 5.83301 0.500977 7.5s-0.666016 3.83398 -0.999023 6.50098s-1.16602 4.66699 -2.49902 6l-4.5 4.5
c-1.66699 1.66699 -3.83398 2.83398 -6.50098 3.50098s-6 1 -10 1c-19.333 0 -36.833 -13.5 -52.5 -40.5s-26.5 -60.167 -32.5 -99.5c32 3.33301 57 -7.33398 75 -32.001s29.5 -55.167 34.5 -91.5s8.83301 -72.833 11.5 -109.5s7.5 -67 14.5 -91s18.5 -34.333 34.5 -31
c14 3.33301 32.667 39.666 56 108.999s43.333 138 60 206l25 102c0 3.33301 1.66699 5 5 5c142.667 30.667 288.334 30.667 437.001 0c1.33301 0 2 -1.33301 2 -4z" />
    <glyph glyph-name="uni0416_afii10077" unicode="&#x416;&#x43b;" horiz-adv-x="1497" 
d="M1495 499l-86.999 -493l-5 -5h-193l-3 5l71 405h-71c-6.66699 -44 -16.5 -91.5 -29.5 -142.5s-25.833 -90.167 -38.5 -117.5c-15.333 -33.333 -34.666 -62.333 -57.999 -87s-47.666 -43.334 -72.999 -56.001s-49.5 -21.834 -72.5 -27.501s-45.5 -8.5 -67.5 -8.5
c-95.333 0 -160 28.333 -194 85s-46 142 -36 256c-9.33301 1.33301 -19 1 -29 -1l-1 -3l-47 -304l-6 -5h-213l-3 5l58 304c-6.66699 4.66699 -15.334 6 -26.001 4c-12 -46 -27.167 -88.667 -45.5 -128s-40.666 -76 -66.999 -110s-58.333 -59.667 -96 -77
s-78.5 -23.333 -122.5 -18c-28 3.33301 -50.333 15.333 -67 36s-24.5 39.5 -23.5 56.5s3.5 27.833 7.5 32.5c35.333 10.667 74.833 39.667 118.5 87s77.5 89.333 101.5 126c45.333 70 90.666 108 135.999 114c7.33301 38 5.5 72.833 -5.5 104.5s-26.833 47.167 -47.5 46.5
c-5.33301 0 -10 -0.833008 -14 -2.5s-7.33301 -4 -10 -7l-7 -8c-2 -2.33301 -3.5 -5.83301 -4.5 -10.5s-1.83301 -8 -2.5 -10s-1.33398 -5.66699 -2.00098 -11s-1 -8.33301 -1 -9c-0.666992 -2.66699 -7.33398 -6 -20.001 -10s-27.834 -6 -45.501 -6
s-35.167 2.16699 -52.5 6.5s-31.833 14.833 -43.5 31.5s-16.834 38.667 -15.501 66c2 41.333 21.333 73.833 58 97.5s77.334 33.167 122.001 28.5c46 -4.66699 83.5 -23.667 112.5 -57s47.833 -72.666 56.5 -117.999s9.66699 -92.666 3 -141.999
c2 -0.666992 5.66699 -1.66699 11 -3s9 -2.66602 11 -3.99902l47 294l6 5h213l3 -5l-57 -288c2 0.666992 4.83301 1.33398 8.5 2.00098s6.83398 1.16699 9.50098 1.5s4.66699 0.833008 6 1.5c13.333 81.333 44.166 151.666 92.499 210.999s108.5 93.333 180.5 102
c46 5.33301 82 -4 108 -28s32.667 -56.667 20 -98c-8 -27.333 -20.667 -49.333 -38 -66s-35.5 -27.167 -54.5 -31.5s-37.333 -6.5 -55 -6.5s-32.167 2 -43.5 6s-16.666 7.33301 -15.999 10c4 10 5.16699 21 3.5 33s-9.83398 18 -24.501 18c-20 0 -38 -13.5 -54 -40.5
s-27 -60.167 -33 -99.5c27.333 2.66699 49.666 -4.5 66.999 -21.5s29 -39.333 35 -67s11.167 -57.5 15.5 -89.5s7.5 -61.833 9.5 -89.5s6.66699 -49.834 14 -66.501s17.666 -23.667 30.999 -21c13.333 3.33301 31.833 39.833 55.5 109.5s43.834 138.167 60.501 205.5l25 102
c0.666992 3.33301 2.33398 5 5.00098 5c142.667 30.667 288.334 30.667 437.001 0c2 0 2.66699 -1.33301 2 -4z" />
    <glyph glyph-name="uni0416_afii10078" unicode="&#x416;&#x43c;" horiz-adv-x="1695" 
d="M1688 499l-78.9961 -494.001l-5 -5h-194l-3 5l35 191l29 108l-179 -295c-2.66699 -5.33301 -7.66699 -8 -15 -8h-25c-4.66699 0 -8 2.66699 -10 8l-59 258c-19.333 -71.333 -30.333 -110 -33 -116c-15.333 -33.333 -35.166 -62.333 -59.499 -87s-50 -43.334 -77 -56.001
s-52.5 -21.834 -76.5 -27.501s-47 -8.5 -69 -8.5c-95.333 0 -160 28.333 -194 85s-46 142 -36 256c-9.33301 1.33301 -19 1 -29 -1l-1 -3l-47 -304l-6 -5h-213l-3 5l58 304c-6.66699 4.66699 -15.334 6 -26.001 4c-12 -46 -27.167 -88.667 -45.5 -128
s-40.666 -76 -66.999 -110s-58.333 -59.667 -96 -77s-78.5 -23.333 -122.5 -18c-28 3.33301 -50.333 15.333 -67 36s-24.5 39.5 -23.5 56.5s3.5 27.833 7.5 32.5c35.333 10.667 75.333 39.834 120 87.501s78.667 89.5 102 125.5c45.333 70.667 89.666 108.667 132.999 114
c4 26 4.66699 50.333 2 73s-9 41.5 -19 56.5s-21.667 22.167 -35 21.5c-8 -0.666992 -14.833 -2.66699 -20.5 -6s-9.83398 -9 -12.501 -17s-4.33398 -13.5 -5.00098 -16.5s-1.66699 -9.16699 -3 -18.5c-0.666992 -2.66699 -7.33398 -6 -20.001 -10s-27.834 -6 -45.501 -6
s-35.167 2.16699 -52.5 6.5s-31.833 14.833 -43.5 31.5s-16.834 38.667 -15.501 66c2 41.333 21.333 74 58 98s77.334 33.333 122.001 28c50 -6 89.5 -25.833 118.5 -59.5s47 -72.167 54 -115.5s6.83301 -90.666 -0.5 -141.999c2 -0.666992 5.66699 -1.66699 11 -3
s9 -2.66602 11 -3.99902l47 294l6 5h213l3 -5l-57 -288c2 0.666992 4.83301 1.33398 8.5 2.00098s6.83398 1.16699 9.50098 1.5s4.66699 0.833008 6 1.5c13.333 81.333 44.166 151.666 92.499 210.999s108.5 93.333 180.5 102c46 5.33301 82 -4 108 -28
s32.667 -56.667 20 -98c-8 -27.333 -20.667 -49.333 -38 -66s-35.5 -27.167 -54.5 -31.5s-37.333 -6.5 -55 -6.5s-32.167 2 -43.5 6s-16.666 7.33301 -15.999 10c4 10 5.16699 21 3.5 33s-9.83398 18 -24.501 18c-19.333 0 -36.833 -13.5 -52.5 -40.5
s-26.5 -60.167 -32.5 -99.5c32 3.33301 57 -7.33398 75 -32.001s29.5 -55.167 34.5 -91.5s8.83301 -72.833 11.5 -109.5s7.5 -67 14.5 -91s18.5 -34.333 34.5 -31c16.667 4 41.5 59.333 74.5 166s53.5 190.334 61.5 251.001l5 5h210l4 -4l57 -187h3l131 188
c1.33301 2 3.33301 3 6 3h224z" />
    <glyph glyph-name="afii10084_afii10103" unicode="&#x442;&#x456;" horiz-adv-x="701" 
d="M672 353l-61 -347l-5 -6h-201l-3 5c28.667 136 48 230.667 58 284c3.33301 41.333 -5.16699 70.333 -25.5 87s-51.166 18 -92.499 4l-31 -177c-6 -38 -7.5 -67 -4.5 -87s8.16699 -32.833 15.5 -38.5l18 -13.5c4.66699 -3.33301 5.66699 -7.66602 3 -12.999
c-8.66699 -17.333 -26 -33.5 -52 -48.5s-52.333 -22.5 -79 -22.5c-40.667 0 -71.667 13.833 -93 41.5s-28 64.5 -20 110.5l43 244l-129 1c-2 0 -3 1.33301 -3 4l18 112l1 7c0.666992 1.33301 1.66699 2.66602 3 3.99902c62.667 11.333 132.167 18 208.5 20
s140.166 1.16699 191.499 -2.5s90.333 -8.16699 117 -13.5c42.667 -9.33301 76 -26.5 100 -51.5s31.667 -59.5 23 -103.5zM716 645c-4.66699 -26 -20.001 -48 -46.001 -66s-55 -27 -87 -27s-57.833 9 -77.5 27s-27.167 40 -22.5 66
c4.66699 25.333 19.834 47.166 45.501 65.499s54.5 27.5 86.5 27.5s58 -9.16699 78 -27.5s27.667 -40.166 23 -65.499z" />
    <glyph glyph-name="afii10103_afii10104" unicode="&#x456;&#x457;" horiz-adv-x="581" 
d="M484 6c0 -1.33301 -0.5 -2.5 -1.5 -3.5l-2.5 -2.5h-2h-200c-2 0.666992 -3 2.33398 -3 5.00098c32 152 52 251 60 297c6 38 7.5 67 4.5 87s-8.16699 32.833 -15.5 38.5l-18 13.5c-4.66699 3.33301 -5.66699 7.66602 -3 12.999c8.66699 17.333 26.334 33.5 53.001 48.5
s53.334 22.5 80.001 22.5c41.333 0 72.666 -13.833 93.999 -41.5s27.666 -64.5 18.999 -110.5zM451 644c-4 -24 -17.333 -44.333 -40 -61s-47.667 -25 -75 -25s-49.166 8.33301 -65.499 25s-22.5 37 -18.5 61s17.167 44.333 39.5 61s47.166 25 74.499 25
s49.333 -8.33301 66 -25s23 -37 19 -61zM678 643c-4 -22.667 -16.667 -42 -38 -58s-45 -24 -71 -24s-46.667 8 -62 24s-21 35.333 -17 58s16.5 42 37.5 58s44.5 24 70.5 24s46.833 -8 62.5 -24s21.5 -35.333 17.5 -58zM195 6l-5.00098 -6h-199
c-2.66699 0.666992 -4 2.33398 -4 5.00098c32 152 52 251 60 297c6 38 7.5 67 4.5 87s-8.16699 32.833 -15.5 38.5s-13.5 10.167 -18.5 13.5s-6.16699 7.66602 -3.5 12.999c9.33301 17.333 27.333 33.5 54 48.5s53.334 22.5 80.001 22.5c41.333 0 72.5 -13.833 93.5 -41.5
s27.167 -64.5 18.5 -110.5zM223.999 645c-4.66699 -26 -20.001 -48 -46.001 -66s-55 -27 -87 -27s-57.667 9 -77 27s-26.666 40 -21.999 66c4 25.333 19 47.166 45 65.499s55 27.5 87 27.5s57.833 -9.16699 77.5 -27.5s27.167 -40.166 22.5 -65.499z" />
    <glyph glyph-name="uni0422_afii10103" unicode="&#x422;&#x456;" horiz-adv-x="792" 
d="M697 6l-5.00098 -6h-200c-3.33301 0.666992 -5 2.33398 -5 5.00098c30 138.667 49 231 57 277c6 38 7.5 67 4.5 87s-8.16699 32.833 -15.5 38.5l-18 13.5c-4.66699 3.33301 -5.66699 7.66602 -3 12.999c9.33301 17.333 27.333 33.5 54 48.5s53.334 22.5 80.001 22.5
c41.333 0 72.333 -13.667 93 -41s27 -64.333 19 -111zM832.999 719c-1.33301 -1.33301 -1.16406 -6.49902 0.50293 -15.499s0.666992 -21.667 -3 -38s-8.5 -32.333 -14.5 -48s-17 -31 -33 -46s-35.667 -25.833 -59 -32.5c-14.667 -4 -45 -6 -91 -6s-88.333 1 -127 3l-58 3
l-60 -339c-4.66699 -36 -5 -63.167 -1 -81.5s9.83301 -30.333 17.5 -36l18.5 -13.5c4.66699 -3.33301 5.66699 -7.66602 3 -12.999c-8.66699 -18 -28.5 -35.167 -59.5 -51.5s-60.833 -24.5 -89.5 -24.5c-42.667 0 -75.834 13.667 -99.501 41s-30.5 68.666 -20.5 123.999
l72 408c-62.667 0.666992 -121.667 -4 -177 -14c-2 0 -3.5 0.333008 -4.5 1s-1.5 1.33398 -1.5 2.00098l-1 2v1c-0.666992 4.66699 -1.33398 10 -2.00098 16s-0.166992 16.667 1.5 32s5.16699 29.666 10.5 42.999s15 27.666 29 42.999s31.667 28 53 38
c31.333 15.333 75.666 23 132.999 23s135.5 -3.5 234.5 -10.5s184.5 -10.167 256.5 -9.5l65 4c4 0 6.33301 -1.66699 7 -5z" />
    <glyph glyph-name="afii10072_afii10097" unicode="&#x436;&#x44f;" horiz-adv-x="1416" 
d="M1183 418c-18.667 0 -35.167 -5.83301 -49.5 -17.5s-23.5 -28.5 -27.5 -50.5c-8 -43.333 10.333 -65 55 -65h32l23 131c-13.333 1.33301 -24.333 2 -33 2zM644 303c17.333 2 32.8301 0.498047 46.4971 -4.50195s24.334 -10.833 32.001 -17.5s14.5 -17.5 20.5 -32.5
s10.167 -27 12.5 -36s5.16602 -23.333 8.49902 -43s5.66602 -32.5 6.99902 -38.5l2 -1c8 -60.667 45.333 -70 112 -28c37.333 24 78.666 60.333 123.999 109c-34.667 8.66699 -61.167 25.834 -79.5 51.501s-24.5 56.167 -18.5 91.5c10 54 42.5 96.167 97.5 126.5
s115.833 45.5 182.5 45.5c39.333 0 79 -2 119 -6s70 -8 90 -12l30 -5l3 -4l-87 -494l-5 -5h-193l-3 5l33 190c-7.33301 -2 -14.166 -11 -20.499 -27s-16.333 -36.833 -30 -62.5s-32.5 -48.5 -56.5 -68.5c-56 -46.667 -141 -70 -255 -70c-46 0 -85.5 4.66699 -118.5 14
s-57.5 21.333 -73.5 36s-28.5 31 -37.5 49s-14.333 35.833 -16 53.5s-3 33.667 -4 48s-3.16699 25.833 -6.5 34.5s-9.66602 12.667 -18.999 12l-37 -208l-5 -5h-193l-3 5l37 208c-11.333 -0.666992 -21.666 -9.33398 -30.999 -26.001s-18.666 -36.334 -27.999 -59.001
s-20.833 -45.5 -34.5 -68.5s-34.334 -42.5 -62.001 -58.5s-60.834 -24 -99.501 -24c-25.333 0 -48.5 5.5 -69.5 16.5s-36.167 23.833 -45.5 38.5c-6.66699 10 -9.5 17 -8.5 21s6.16699 8 15.5 12c34.667 16 63 35.833 85 59.5s41.167 49.667 57.5 78
s29.833 48.166 40.5 59.499c32 32 66.667 45.333 104 40h1c-1.33301 57.333 -15.333 86 -42 86c-6.66699 0 -12.5 -1.5 -17.5 -4.5s-8.83301 -7.16699 -11.5 -12.5s-4.5 -10.166 -5.5 -14.499s-2 -9.66602 -3 -15.999s-1.5 -10.166 -1.5 -11.499
c-0.666992 -7.33301 -6.5 -13 -17.5 -17s-23.167 -6 -36.5 -6c-32 0 -56.5 9.5 -73.5 28.5s-22.5 44.833 -16.5 77.5c5.33301 32.667 21.5 59.5 48.5 80.5s58.833 31.5 95.5 31.5c31.333 0 58.5 -7.5 81.5 -22.5s40.167 -34.667 51.5 -59s19.333 -49.166 24 -74.499
s6.33398 -51 5.00098 -77l7 -3l37 210l5 4h194l2 -1v-3l-37 -210l8 3l21 49c5.33301 12 15.833 31.167 31.5 57.5s31.5 47.333 47.5 63s36.833 30.167 62.5 43.5s52.834 20 81.501 20c36.667 0 64.667 -10.333 84 -31s26.333 -47.667 21 -81
c-6 -32.667 -20.833 -58.5 -44.5 -77.5s-51.834 -28.5 -84.501 -28.5c-12.667 0 -23.667 2 -33 6s-13.666 9.66699 -12.999 17l3 11c2 7.33301 3 12.833 3 16.5s-0.166992 8.5 -0.5 14.5s-2.5 10.333 -6.5 13s-9.33301 4 -16 4c-27.333 0 -52.666 -28.667 -75.999 -86h1z
" />
    <glyph glyph-name="afii10084_afii10079" unicode="&#x442;&#x43d;" horiz-adv-x="1027" 
d="M690 353l-7.00391 -38.001h96l32 183l6 5h192l3 -5l-52 -296c-6 -38 -7.5 -67 -4.5 -87s8.16699 -33 15.5 -39s13.333 -10.667 18 -14s5.66699 -7.66602 3 -12.999c-8 -16.667 -25.333 -32.167 -52 -46.5s-53.334 -21.5 -80.001 -21.5
c-41.333 0 -72.666 13.5 -93.999 40.5s-27.666 63.5 -18.999 109.5l11 67h-96l-33 -192l-5 -6h-201c-2.66699 0.666992 -4 2.33398 -4 5.00098l59 284c3.33301 41.333 -5.16699 70.333 -25.5 87s-51.166 18 -92.499 4l-32 -177c-6 -38 -7.5 -67 -4.5 -87
s8.16699 -32.833 15.5 -38.5s13.5 -10.167 18.5 -13.5s6.16699 -7.66602 3.5 -12.999c-9.33301 -17.333 -27 -33.5 -53 -48.5s-52.333 -22.5 -79 -22.5c-40.667 0 -71.667 13.833 -93 41.5s-27.666 64.5 -18.999 110.5l43 244l-130 1l-2 4l17 112l2 7
c0 1.33301 0.666992 2.66602 2 3.99902c62 11.333 131.333 17.666 208 18.999s140.5 0 191.5 -4s89.833 -9 116.5 -15c98.667 -20.667 140.334 -71 125.001 -151z" />
    <glyph glyph-name="afii10104_afii10104" unicode="&#x457;&#x457;" horiz-adv-x="578" 
d="M201 6c0 -1.33301 -0.5 -2.49902 -1.5 -3.49902s-2.16699 -1.83301 -3.5 -2.5h-1h-199l-3 5c30.667 152 50 251 58 297c6 38 7.5 67 4.5 87s-8.16699 32.833 -15.5 38.5l-17.5 13.5c-4.33301 3.33301 -5.16602 7.66602 -2.49902 12.999c8 16.667 25.333 32.667 52 48
s53.334 23 80.001 23c41.333 0 72.666 -13.833 93.999 -41.5s27.666 -64.5 18.999 -110.5zM198 638.001c-4 -24 -17.333 -44.333 -40 -61s-47.667 -25 -75 -25s-49 8.33301 -65 25s-22 37 -18 61s17 44.333 39 61s46.667 25 74 25s49.5 -8.33301 66.5 -25
s23.167 -37 18.5 -61zM430 638.001c-4 -24 -17.1689 -44.333 -39.502 -61s-47.166 -25 -74.499 -25s-49.166 8.33301 -65.499 25s-22.5 37 -18.5 61c4.66699 24 18 44.333 40 61s46.667 25 74 25s49.333 -8.33301 66 -25s22.667 -37 18 -61zM484.998 6.00098
c0 -1.33301 -0.5 -2.49902 -1.5 -3.49902s-2.16699 -1.83301 -3.5 -2.5h-1h-200l-3 5c31.333 152 51 251 59 297c6 38 7.5 67 4.5 87s-8.16699 32.833 -15.5 38.5l-17.5 13.5c-4.33301 3.33301 -5.16602 7.66602 -2.49902 12.999c8 16.667 25.333 32.667 52 48
s53.334 23 80.001 23c41.333 0 72.666 -13.833 93.999 -41.5s27.666 -64.5 18.999 -110.5zM661.998 638.002c-4 -24 -17.1689 -44.333 -39.502 -61s-47.166 -25 -74.499 -25s-49.166 8.33301 -65.499 25s-22.5 37 -18.5 61c4.66699 24 18 44.333 40 61s46.667 25 74 25
s49.333 -8.33301 66 -25s22.667 -37 18 -61z" />
    <glyph glyph-name="quotesingle_afii10104" unicode="&#x27;&#x457;" horiz-adv-x="402" 
d="M306 6c0 -1.33301 -0.500977 -2.49902 -1.50098 -3.49902l-2.5 -2.5h-2h-200l-3 5c31.333 152 51 251 59 297c6 38 7.5 67 4.5 87s-8.16699 32.833 -15.5 38.5l-17.5 13.5c-4.33301 3.33301 -5.16602 7.66602 -2.49902 12.999c8 16.667 25.333 32.667 52 48
s53.334 23 80.001 23c41.333 0 72.666 -13.833 93.999 -41.5s28 -64.5 20 -110.5zM346.999 642.001c-4 -23.333 -16.333 -43.333 -37 -60s-43.667 -25 -69 -25s-45.333 8.33301 -60 25s-20 36.667 -16 60s16.333 43.333 37 60s43.667 25 69 25s45.333 -8.33301 60 -25
s20 -36.667 16 -60zM551.999 644.001c-4 -23.333 -16.332 -43.333 -36.999 -60s-43.667 -25 -69 -25c-24.667 0 -44.334 8.33301 -59.001 25s-20 36.667 -16 60c4.66699 23.333 17.167 43.333 37.5 60s42.833 25 67.5 25c25.333 0 45.5 -8.33301 60.5 -25
s20.167 -36.667 15.5 -60zM138 652.001c-8 -42.667 -26.667 -78.001 -56 -106.001s-56.333 -46 -81 -54c-12.667 -4.66699 -22.5 -7.16699 -29.5 -7.5s-11.333 0.333984 -13 2.00098s-2.16699 4.16699 -1.5 7.5c0.666992 6 7.33398 13.667 20.001 23
c38 31.333 47.667 50.333 29 57c-16 7.33301 -27.833 18.333 -35.5 33s-9.83398 31.667 -6.50098 51c4 24 15.833 44.667 35.5 62s41.834 26 66.501 26c24 0 43.167 -9 57.5 -27s19.166 -40.333 14.499 -67z" />
    <glyph glyph-name="afii10093_afii10097" unicode="&#x44b;&#x44f;" horiz-adv-x="1315" 
d="M750 358l-35.999 -205c-8 -50.667 2.66699 -74.667 32 -72c31.333 2.66699 70.666 29.667 117.999 81c14 15.333 27.333 31.666 40 48.999c-34.667 8.66699 -61.167 25.834 -79.5 51.501s-24.5 56.167 -18.5 91.5c10 54 42.5 96.167 97.5 126.5s115.833 45.5 182.5 45.5
c39.333 0 79 -2 119 -6s70 -8 90 -12l30 -5l3 -4l-87 -494l-5 -5h-193l-3 5l33 190c-7.33301 -2 -14.166 -11 -20.499 -27s-16.333 -36.833 -30 -62.5s-32.5 -48.5 -56.5 -68.5s-58.5 -36.667 -103.5 -50s-90.5 -19.666 -136.5 -18.999c-22.667 0 -43.167 1.33301 -61.5 4
s-36.833 7.16699 -55.5 13.5s-34.167 15 -46.5 26s-23.333 25 -33 42s-14.834 37.333 -15.501 61s1.33301 51.5 6 83.5c0 0.666992 7.33301 42.667 22 126c6.66699 37.333 1.66699 57 -15 59c-16 1.33301 -32 -12.334 -48 -41.001c-2 -3.33301 -4 -7 -6 -11
c27.333 -37.333 36.666 -82 27.999 -134c-11.333 -63.333 -44 -115.666 -98 -156.999s-114.667 -62 -182 -62c-35.333 0 -66.5 4.5 -93.5 13.5s-47.667 21 -62 36s-26 32 -35 51s-13.5 38.5 -13.5 58.5s1 39.333 3 58l54 303l5 5h193l3 -6l-20 -110
c29.333 4.66699 56.666 7 81.999 7c36.667 0 69.667 -9.33301 99 -28c26.667 53.333 58.834 92.666 96.501 117.999s73.834 38 108.501 38c38 0 67.667 -15.333 89 -46s28 -70 20 -118zM247.001 94c18.667 0 32.833 9.66895 42.5 29.002s17.5 45.666 23.5 78.999
c5.33301 29.333 3.33301 52.666 -6 69.999s-25 26 -47 26c-7.33301 0 -14.333 -0.666992 -21 -2l-21 -122c-8 -53.333 1.66699 -80 29 -80zM1078 418.002c-18.667 0 -35.167 -5.83301 -49.5 -17.5s-23.5 -28.5 -27.5 -50.5c-8 -43.333 10.333 -65 55 -65h32l23 131
c-13.333 1.33301 -24.333 2 -33 2z" />
    <glyph glyph-name="afii10093_afii10077" unicode="&#x44b;&#x43b;" horiz-adv-x="1343" 
d="M1357 499l-86.999 -493l-5 -5h-193l-3 5l71 405h-71c-7.33301 -55.333 -17.833 -105.333 -31.5 -150s-28.334 -81.5 -44.001 -110.5s-34 -54.333 -55 -76s-40.333 -38.167 -58 -49.5s-37.667 -20.666 -60 -27.999s-40.333 -11.833 -54 -13.5s-29.5 -3.16699 -47.5 -4.5
c-54.667 -4 -101.334 3 -140.001 21s-61 50.333 -67 97c-2 15.333 -1.66699 34.5 1 57.5s7.16699 52.667 13.5 89s10.833 63.5 13.5 81.5c3.33301 26 1.5 43.5 -5.5 52.5s-16.667 9.16699 -29 0.5s-23.833 -24 -34.5 -46c27.333 -37.333 36.666 -82 27.999 -134
c-11.333 -63.333 -44 -115.666 -98 -156.999s-114.667 -62 -182 -62c-35.333 0 -66.5 4.5 -93.5 13.5s-47.667 21 -62 36s-26 32 -35 51s-13.5 38.5 -13.5 58.5s1 39.333 3 58l32 180c14.667 82.667 22 123.667 22 123l5 5h193c2 -0.666992 3 -2.66699 3 -6l-20 -110
c29.333 4.66699 56.333 7 81 7c37.333 0 70.666 -9.33301 99.999 -28c26.667 53.333 58.834 92.666 96.501 117.999s73.834 38 108.501 38c38.667 0 68.667 -15.333 90 -46s27.666 -70.334 18.999 -119.001c-13.333 -73.333 -25.666 -144.666 -36.999 -213.999
c-8 -45.333 -2.33301 -68.666 17 -69.999s42.666 20.667 69.999 66c11.333 19.333 22.333 41.666 33 66.999c14.667 34.667 28.834 76.167 42.501 124.5s23.834 88.166 30.501 119.499l9 47c0 3.33301 1.33301 5 4 5c143.333 30.667 289 30.667 437 0c2 0 3 -1.33301 3 -4z
M311.001 203c5.33301 29.333 3.33203 52.668 -6.00098 70.001s-25 26 -47 26c-7.33301 0 -14.333 -0.666992 -21 -2l-21 -122c-8 -53.333 1.66699 -80 29 -80c18.667 0 32.834 9.66699 42.501 29s17.5 45.666 23.5 78.999z" />
    <glyph glyph-name="afii10093_afii10078" unicode="&#x44b;&#x43c;" horiz-adv-x="1520" 
d="M312 203c5.33301 29.333 3.33203 52.668 -6.00098 70.001s-25 26 -47 26c-7.33301 0 -14.333 -0.666992 -21 -2l-21 -122c-8 -53.333 1.66699 -80 29 -80c18.667 0 32.834 9.66699 42.501 29s17.5 45.666 23.5 78.999zM1534 499.002l-78.998 -493.999l-5 -5h-194l-3 5
l34 191l29 108l-179 -295c-2.66699 -5.33301 -7.33398 -8 -14.001 -8h-25c-5.33301 0 -9 2.66699 -11 8l-55 254c-31.333 -102.667 -70.833 -174.334 -118.5 -215.001s-112.167 -63.667 -193.5 -69c-54.667 -4 -101.334 3 -140.001 21s-61 50.333 -67 97
c-2 15.333 -1.66699 34.5 1 57.5s7.16699 52.667 13.5 89s10.833 63.5 13.5 81.5c3.33301 26 1.5 43.5 -5.5 52.5s-16.667 9.16699 -29 0.5s-23.833 -24 -34.5 -46c27.333 -37.333 36.666 -82 27.999 -134c-11.333 -63.333 -44 -115.666 -98 -156.999s-114.667 -62 -182 -62
c-35.333 0 -66.5 4.5 -93.5 13.5s-47.667 21 -62 36s-26 32 -35 51s-13.5 38.5 -13.5 58.5s1 39.333 3 58l54 303l5 5h193l3 -6l-20 -110c29.333 4.66699 56.666 7 81.999 7c36.667 0 69.667 -9.33301 99 -28c26.667 53.333 58.834 92.666 96.501 117.999
s73.834 38 108.501 38c38.667 0 68.667 -15.333 90 -46s27.666 -70.334 18.999 -119.001c-13.333 -73.333 -25.666 -144.666 -36.999 -213.999c-6.66699 -42.667 -1.5 -66.167 15.5 -70.5s36.167 11.5 57.5 47.5c40.667 68 77.667 193.667 111 377l5 5h206l4 -4l57 -187h3
l131 188c1.33301 2 3.33301 3 6 3h224z" />
    <glyph glyph-name="f_r" unicode="fr" horiz-adv-x="785" 
d="M708 524c32.667 0 57.665 -9.83203 74.998 -29.499s23 -47.167 17 -82.5c-7.33301 -40 -25 -71.5 -53 -94.5s-59.667 -34.5 -95 -34.5c-10.667 0 -20.834 2.33301 -30.501 7s-15.167 9 -16.5 13c-1.33301 2 0.333984 14 5.00098 36
c4.66699 29.333 0.333984 44 -12.999 44c-22.667 0 -40.667 -37.667 -54 -113l-43 -265l-5 -5h-201l-3 5l55 302c7.33301 41.333 5.33301 68.666 -6 81.999s-34.333 20.333 -69 21l-1 -1l-71 -403l-5 -6h-193l-2 5l70 404h-56l-3 5l15 85l5 4h57
c2 43.333 11.333 81.166 28 113.499s38 57.333 64 75s53.167 30.667 81.5 39s57.833 12.5 88.5 12.5c56.667 0 99.667 -12.667 129 -38s41 -55 35 -89c-4 -24.667 -16.167 -45.5 -36.5 -62.5s-44.166 -25.5 -71.499 -25.5c-16 0 -31 2 -45 6s-22 7.66699 -24 11
c-0.666992 2.66699 -0.166992 6 1.5 10l7.5 18.5c3.33301 8.33301 6 17.5 8 27.5c6.66699 40 -2.33301 60 -27 60c-18 0 -31.667 -6.33301 -41 -19s-13.833 -29 -13.5 -49s1.33301 -36.667 3 -50s4.16699 -26.666 7.5 -39.999l148 1c68 0 110 -29 126 -87h1
c11.333 32.667 32.5 58.667 63.5 78s60.167 29 87.5 29z" />
    <glyph glyph-name=".notdef" horiz-adv-x="249" 
 />
    <glyph glyph-name="space" unicode=" " horiz-adv-x="249" 
 />
    <glyph glyph-name="exclam" unicode="!" horiz-adv-x="266" 
d="M193 80c-5.33301 -27.333 -19.1689 -50.666 -41.502 -69.999s-46.833 -29 -73.5 -29c-27.333 0 -48.666 9.66699 -63.999 29s-20.666 42.666 -15.999 69.999s18.167 50.5 40.5 69.5s46.833 28.5 73.5 28.5c27.333 0 48.833 -9.66699 64.5 -29s21.167 -42.333 16.5 -69z
M295.997 598c-6 -34.667 -14.835 -72.499 -26.502 -113.499s-25.334 -82 -41.001 -123s-33.5 -75 -53.5 -102s-39.667 -40.5 -59 -40.5c-11.333 0 -20.666 5.5 -27.999 16.5s-12.333 26 -15 45s-4.33398 39.333 -5.00098 61s0 44.834 2 69.501s4 46.167 6 64.5
s4.33301 35.833 7 52.5c5.33301 38 6.33301 66.833 3 86.5s-8.5 32.5 -15.5 38.5s-12.667 10.667 -17 14s-5.16602 7.66602 -2.49902 12.999c8.66699 16.667 26.334 32.667 53.001 48s53.334 23 80.001 23c41.333 0 72.5 -13.833 93.5 -41.5s27.167 -64.834 18.5 -111.501z
" />
    <glyph glyph-name="quotedbl" unicode="&#x22;" horiz-adv-x="349" 
d="M186 637c-8.66699 -47.333 -27.167 -94 -55.5 -140s-51.5 -69 -69.5 -69s-33.167 23.167 -45.5 69.5s-14.166 92.833 -5.49902 139.5c8.66699 51.333 31.667 86.333 69 105c31.333 15.333 58.666 13.333 81.999 -6c24.667 -20 33 -53 25 -99zM375 637
c-8.66699 -47.333 -27.167 -94 -55.5 -140s-51.5 -69 -69.5 -69s-33.167 23.167 -45.5 69.5s-14.166 92.833 -5.49902 139.5c8.66699 51.333 31.667 86.333 69 105c31.333 15.333 58.666 13.333 81.999 -6c24.667 -20 33 -53 25 -99z" />
    <glyph glyph-name="numbersign" unicode="#" horiz-adv-x="590" 
d="M602 375l2.99902 -3.99902l-33 -65c-2 -2.66699 -4.66699 -4 -8 -4h-128l-50 -98h133l2 -4l-32 -65c-2 -2.66699 -4.66699 -4 -8 -4h-132l-65 -127l-6 -4h-66h-2c0 0.666992 0.333008 1.66699 1 3c1.33301 3.33301 4.66602 10.333 9.99902 21l25 49l29 58
c-41.333 0 -72.333 0.333008 -93 1c-35.333 -68.667 -56.666 -111.334 -63.999 -128.001l-6 -4h-67h-2c0 0.666992 0.333008 1.66699 1 3c4 7.33301 25.667 50.333 65 129h-121l-2 4l33 66c0.666992 2 2.33398 3 5.00098 3h122l51 98h-126l-3 4l34 66
c1.33301 2.66699 3.33301 4 6 4c40.667 0 82.667 -0.333008 126 -1l63 123l7 5h65l1 -5l-63 -123h93l64 123l6 5h65l2 -5l-63 -124h128zM312.999 204.001l50 98c-20 0.666992 -51 1 -93 1l-50 -98c41.333 0 72.333 -0.333008 93 -1z" />
    <glyph glyph-name="dollar" unicode="$" horiz-adv-x="500" 
d="M470 141c-7.33301 -42.667 -28.999 -76.8291 -64.999 -102.496s-79 -43.167 -129 -52.5l-2 -62l-3 -5l-60 -3l-4 5c3.33301 12 7.33301 31.333 12 58c-6.66699 -0.666992 -16.334 -1 -29.001 -1h-16l-8 -57l-5 -5l-58 3l-4 5l18 60c-42 8 -76 22.167 -102 42.5
s-36 47.5 -30 81.5c4.66699 25.333 17.167 46.833 37.5 64.5s44.166 26.5 71.499 26.5c16 0 31.333 -1.83301 46 -5.5s22.667 -7.5 24 -11.5c0.666992 -5.33301 1 -8.83301 1 -10.5s-0.833008 -6.16699 -2.5 -13.5s-2.83398 -13 -3.50098 -17
c-3.33301 -19.333 -0.666016 -34.333 8.00098 -45s21.667 -16 39 -16c33.333 0 53.333 15 60 45c1.33301 9.33301 0.333008 17.5 -3 24.5s-10 13.333 -20 19s-18.333 10 -25 13s-19.167 7.5 -37.5 13.5s-30.833 10.333 -37.5 13c-36 13.333 -64.333 32.5 -85 57.5
s-28 55.833 -22 92.5c0 1.33301 0.333008 2.33301 1 3c6.66699 38 26.5 70.333 59.5 97s71.833 45.667 116.5 57l2 66l5 6l60 3l3 -5c-3.33301 -12.667 -7.66602 -33 -12.999 -61h14c14 0 24.667 -0.333008 32 -1l8 62l5 5l58 -3l4 -5
c-6.66699 -19.333 -13.334 -41.666 -20.001 -66.999c40 -8.66699 71.333 -23.334 94 -44.001s31 -46.334 25 -77.001c-3.33301 -24.667 -15 -45.334 -35 -62.001s-44.667 -25 -74 -25c-15.333 0 -30 2 -44 6s-21.667 8 -23 12c-0.666992 4.66699 -0.833984 8 -0.500977 10
s1.33301 6.5 3 13.5s2.83398 12.833 3.50098 17.5c3.33301 20 1.83301 34.667 -4.5 44s-18.166 13.666 -35.499 12.999c-14 -0.666992 -25.667 -5.83398 -35 -15.501s-15.333 -20.167 -18 -31.5v0c-4 -26 11 -46 45 -60c10.667 -4.66699 28.667 -10.667 54 -18l12 -4
c100.667 -31.333 144.667 -82.333 132 -153z" />
    <glyph glyph-name="percent" unicode="%" horiz-adv-x="740" 
d="M644 517c2.66699 0 2.66699 -1.33496 0 -4.00195c-113.333 -162 -183 -263.667 -209 -305s-41 -73 -45 -95c-2 -13.333 -2.33301 -27.166 -1 -41.499s2.66602 -24.166 3.99902 -29.499s0.333008 -11.333 -3 -18c-23.333 -18.667 -47.666 -31.167 -72.999 -37.5
s-47.333 -6 -66 1s-33.834 17.833 -45.501 32.5s-16.334 35 -14.001 61s12.5 54 30.5 84l186 277h-80c5.33301 -18.667 6 -38.667 2 -60c-6.66699 -39.333 -25.667 -71.833 -57 -97.5s-70.333 -38.5 -117 -38.5c-45.333 0 -79.166 12.833 -101.499 38.5
s-30.166 58.167 -23.499 97.5c7.33301 39.333 27 72 59 98s70.333 39 115 39zM591 254.998c46.667 0 81.001 -13 103.001 -39s29.667 -58.667 23 -98c-7.33301 -39.333 -26.5 -71.833 -57.5 -97.5s-69.833 -38.5 -116.5 -38.5c-45.333 0 -79.333 12.833 -102 38.5
s-30.334 58.167 -23.001 97.5c6.66699 38.667 26 71.167 58 97.5s70.333 39.5 115 39.5zM170.001 320.998c19.333 0 32.332 20.333 38.999 61c7.33301 40.667 1.33301 61 -18 61c-17.333 0 -30 -20.333 -38 -61c-7.33301 -40.667 -1.66602 -61 17.001 -61zM556 56.998
c19.333 0 32.668 20.333 40.001 61s1.33301 61 -18 61c-18.667 0 -31.334 -20.333 -38.001 -61c-7.33301 -40.667 -2 -61 16 -61z" />
    <glyph glyph-name="ampersand" unicode="&#x26;" 
d="M579 90c7.33301 0 11.6689 -2.66797 13.002 -8.00098s-0.333984 -11.333 -5.00098 -18c-40.667 -60.667 -94.334 -91 -161.001 -91c-60 0 -96.667 27.667 -110 83c-27.333 -30.667 -61.666 -52.834 -102.999 -66.501s-79.833 -18.167 -115.5 -13.5
s-64.667 20.167 -87 46.5s-29.833 60.833 -22.5 103.5c11.333 70 59.666 115.667 144.999 137c-58 16.667 -82.667 52 -74 106c5.33301 28.667 17.666 53.667 36.999 75s43 37.5 71 48.5s56.167 19 84.5 24s56.833 7.5 85.5 7.5c32.667 0 64 -3.16699 94 -9.5
s56.667 -19.5 80 -39.5s32.333 -45.333 27 -76c-4 -23.333 -17.167 -41.333 -39.5 -54s-47.833 -19 -76.5 -19c-15.333 0 -30 1.83301 -44 5.5s-22 7.5 -24 11.5c-0.666992 2 -1.16699 3.66699 -1.5 5s-0.333008 2.5 0 3.5s1 3.16699 2 6.5s1.83301 7 2.5 11
c7.33301 35.333 -8 53 -46 53c-17.333 0 -31.666 -5.66699 -42.999 -17s-18.333 -24.666 -21 -39.999c-2.66699 -14.667 -0.5 -28.167 6.5 -40.5s19.5 -18.5 37.5 -18.5h3h1h331l2 -5l-16 -91l-4 -5h-105c-0.666992 -1.33301 -1 -2.66602 -1 -3.99902
c-4 -24.667 -6.33301 -40.667 -7 -48c-0.666992 -18.667 3.83301 -33 13.5 -43s19.667 -15.833 30 -17.5s23.833 -2.5 40.5 -2.5zM237.003 85.999c20 1.33301 38.165 12.501 54.498 33.501s26.5 49.167 30.5 84.5h-38c-25.333 0 -45.166 -7.33301 -59.499 -22
s-23.166 -30 -26.499 -46c-2.66699 -15.333 -1 -27.833 5 -37.5s17.333 -13.834 34 -12.501z" />
    <glyph glyph-name="quotesingle" unicode="'" horiz-adv-x="206" 
d="M198 657c-8 -42.667 -26.667 -78.001 -56 -106.001s-56.333 -46 -81 -54c-12.667 -4.66699 -22.667 -7.16699 -30 -7.5s-11.833 0.333984 -13.5 2.00098s-2.16699 4.16699 -1.5 7.5c0.666992 6 7.33398 13.667 20.001 23c38.667 31.333 48.667 50.333 30 57
c-36 16 -50.333 44 -43 84c4 24 16 44.667 36 62s42.333 26 67 26c24 0 43.167 -9 57.5 -27s19.166 -40.333 14.499 -67z" />
    <glyph glyph-name="parenleft" unicode="(" horiz-adv-x="216" 
d="M146 273c-14.667 -82 -23.665 -158.836 -26.998 -230.503s-3 -123.167 1 -154.5l6 -46c0.666992 -11.333 -1.33301 -17.666 -6 -18.999s-10.334 3 -17.001 13c-2 2 -4.66699 5.16699 -8 9.5s-9.66602 13.666 -18.999 27.999s-18 29.5 -26 45.5s-16.333 37.167 -25 63.5
s-15.334 53.333 -20.001 81s-7 60.334 -7 98.001s3.33301 75.834 10 114.501c10 55.333 25.5 108.833 46.5 160.5s42.833 94.334 65.5 128.001s44.667 63.5 66 89.5s39 45 53 57l21 18c15.333 14.667 23.666 17.667 24.999 9c0 -3.33301 -1.33301 -8.33301 -4 -15l-9 -18
c-4 -8 -11.667 -26 -23 -54s-22.333 -58 -33 -90s-22.5 -74 -35.5 -126s-24.5 -106 -34.5 -162z" />
    <glyph glyph-name="parenright" unicode=")" horiz-adv-x="236" 
d="M75 273c16 88.667 25.834 170.504 29.501 245.504s3.5 127.833 -0.5 158.5l-6 46c-0.666992 12 1.5 18.5 6.5 19.5s10.5 -3.5 16.5 -13.5c2 -2 4.66699 -5.16699 8 -9.5s9.66602 -13.833 18.999 -28.5s18 -30.334 26 -47.001s16.333 -38.334 25 -65.001
s15.167 -54.334 19.5 -83.001s6.5 -62.334 6.5 -101.001s-3.66699 -78.334 -11 -119.001c-9.33301 -53.333 -24.333 -104.666 -45 -153.999s-42.167 -90 -64.5 -122s-44 -60.167 -65 -84.5s-38.167 -42.166 -51.5 -53.499l-21 -16
c-15.333 -14.667 -23.333 -17.334 -24 -8.00098l3 14c6 10.667 13.833 26.667 23.5 48s26 68.333 49 141s41.833 150 56.5 232z" />
    <glyph glyph-name="asterisk" unicode="*" horiz-adv-x="358" 
d="M285 655c32 10 53.666 5.33398 64.999 -13.999c10 -17.333 6 -35.333 -12 -54c-10 -10 -23 -17.667 -39 -23c-22.667 -6.66699 -44.334 -9.33398 -65.001 -8.00098c16 -14 28.667 -28.667 38 -44c11.333 -21.333 12 -41.166 2 -59.499s-23.833 -27.333 -41.5 -27
s-33.5 10.5 -47.5 30.5c-10 18 -16 38 -18 60c-10.667 -22.667 -23.334 -42.667 -38.001 -60c-19.333 -21.333 -38.666 -31.5 -57.999 -30.5s-30.166 10 -32.499 27s4.83398 36.833 21.501 59.5c15.333 16 33.333 30.667 54 44c-20.667 -1.33301 -41 1.33398 -61 8.00098
c-27.333 10 -39.666 26.667 -36.999 50c2.66699 20.667 14.667 34.667 36 42c14 5.33301 29.667 5 47 -1c17.333 -6.66699 34.666 -17.334 51.999 -32.001c-4 26 -4.33301 48 -1 66c5.33301 31.333 19.666 51.333 42.999 60c20.667 7.33301 36.334 2.33301 47.001 -15
c7.33301 -12 9.33301 -27 6 -45c-4 -21.333 -12 -43 -24 -65c18.667 13.333 39.667 23.666 63 30.999z" />
    <glyph glyph-name="plus" unicode="+" horiz-adv-x="467" 
d="M447 301l4.00098 -4l-15 -86c-0.666992 -2 -2.33398 -3 -5.00098 -3h-159c-15.333 -88 -24.333 -140.667 -27 -158l-4 -5h-89c-2.66699 0 -4 1.33301 -4 4c4 20 13.333 73 28 159h-157l-4 4l15 84c0.666992 3.33301 2.66699 5 6 5h157l28 157l5 5h87l3 -5l-27 -157h158z
" />
    <glyph glyph-name="comma" unicode="," horiz-adv-x="226" 
d="M218 74c-6 -33.333 -19.335 -63.998 -40.002 -91.998s-40.5 -48.167 -59.5 -60.5s-36.167 -21.166 -51.5 -26.499c-14.667 -4.66699 -26 -7.33398 -34 -8.00098s-13 0 -15 2s-2.66699 5 -2 9c2 6.66699 9.33301 15 22 25c43.333 35.333 54.666 56.666 33.999 63.999
c-18 8 -31.5 20.167 -40.5 36.5s-11.833 35.166 -8.5 56.499c5.33301 27.333 19.333 50.5 42 69.5s47.334 28.5 74.001 28.5s47.834 -10 63.501 -30s20.834 -44.667 15.501 -74z" />
    <glyph glyph-name="hyphen" unicode="-" horiz-adv-x="368" 
d="M344 297l-14.998 -88c-0.666992 -2 -2.33398 -3 -5.00098 -3h-298l-4 4l15 86c1.33301 3.33301 3.66602 5 6.99902 5h297z" />
    <glyph glyph-name="period" unicode="." horiz-adv-x="226" 
d="M211 80c-5.33301 -27.333 -19.333 -50.5 -42 -69.5s-47.334 -28.5 -74.001 -28.5c-27.333 0 -48.666 9.66699 -63.999 29s-20.666 42.333 -15.999 69s18.167 49.667 40.5 69s47.166 29 74.499 29c26.667 0 48 -9.5 64 -28.5s21.667 -42.167 17 -69.5z" />
    <glyph glyph-name="slash" unicode="/" horiz-adv-x="407" 
d="M16 -171l-7 -4h-84l-3 1c0 0.666992 0.333008 1.66699 1 3l459 890c0.666992 1.33301 1.5 2.5 2.5 3.5s2.16699 1.5 3.5 1.5h1h84l1 -5z" />
    <glyph glyph-name="zero" unicode="0" horiz-adv-x="549" 
d="M534 278c-9.33301 -52 -27 -100.167 -53 -144.5s-62 -81.5 -108 -111.5s-97.333 -45 -154 -45c-81.333 0 -139.666 29.833 -174.999 89.5s-46 130.167 -32 211.5c14 80.667 49.167 150.834 105.5 210.501s125.166 89.5 206.499 89.5
c54.667 0 99.834 -14.833 135.501 -44.5s59.167 -66.834 70.5 -111.501s12.666 -92.667 3.99902 -144zM208 278c-23.333 -130.667 -13.667 -196.001 29 -196.001c14.667 0 27.667 5.66699 39 17s21 27.833 29 49.5s14.333 41.834 19 60.501s9.33398 41.667 14.001 69
c22.667 130.667 12 196 -32 196c-42.667 0 -75.334 -65.333 -98.001 -196z" />
    <glyph glyph-name="one" unicode="1" horiz-adv-x="274" 
d="M292 580l2 -5l-101 -570l-5 -5h-192l-3 5c46.667 266 70 399.333 70 400c4 32 5.16699 53.833 3.5 65.5s-5.5 21.5 -11.5 29.5s-9 12.333 -9 13c-1.33301 4.66699 0.166992 8.66699 4.5 12s11.5 6 21.5 8z" />
    <glyph glyph-name="two" unicode="2" horiz-adv-x="495" 
d="M448 151l-26.001 -146.995c0.666992 -2.66699 -0.666016 -4 -3.99902 -4h-438l-5 4l25 146c0.666992 2 2 3.33301 4 4c50.667 19.333 112.667 59.166 186 119.499s113 108.5 119 144.5c6.66699 38.667 -6.33301 58 -39 58c-17.333 0 -32.333 -5.5 -45 -16.5
s-20.667 -26.167 -24 -45.5c-0.666992 -4.66699 -1.33398 -10.334 -2.00098 -17.001s-1.5 -11.667 -2.5 -15s-2.5 -6.33301 -4.5 -9c-3.33301 -4 -12.833 -8 -28.5 -12s-31.5 -6 -47.5 -6c-28 0 -49.167 9 -63.5 27s-19.166 39.333 -14.499 64
c5.33301 31.333 23.5 57.5 54.5 78.5s63.167 35.167 96.5 42.5s66.666 11 99.999 11c29.333 0 57.5 -3 84.5 -9s51.833 -15 74.5 -27s39.834 -28.667 51.501 -50s15.167 -45.333 10.5 -72c-4.66699 -27.333 -19 -55.333 -43 -84s-51.167 -53.334 -81.5 -74.001
s-60.5 -39.334 -90.5 -56.001s-55 -29.334 -75 -38.001l-31 -13l-3 -1c68 0.666992 154.333 1 259 1z" />
    <glyph glyph-name="three" unicode="3" horiz-adv-x="498" 
d="M327 319c45.333 -6.66699 82.3379 -23.5029 111.005 -50.5029s39 -63.167 31 -108.5c-6 -33.333 -18.833 -62.333 -38.5 -87s-43.334 -43.667 -71.001 -57s-55.834 -23.166 -84.501 -29.499s-57.667 -9.5 -87 -9.5c-22 0 -44.667 2.16699 -68 6.5s-46.666 11 -69.999 20
s-41.5 22.667 -54.5 41s-17.167 39.5 -12.5 63.5c4.66699 26.667 17.167 48.834 37.5 66.501s44.166 26.5 71.499 26.5c16 0 31.333 -2.16699 46 -6.5s23 -8.5 25 -12.5c0.666992 -5.33301 0.666992 -9.16602 0 -11.499s-1.83398 -7.33301 -3.50098 -15
s-2.83398 -14.167 -3.50098 -19.5c-3.33301 -18.667 -1 -32.667 7 -42s20 -14 36 -14c16.667 0 32.167 6.83301 46.5 20.5s23.166 29.834 26.499 48.501c4 23.333 0 44.166 -12 62.499s-37.667 27.5 -77 27.5h-34l-3 5c6 36 10.667 62.667 14 80c0 2.66699 0.666992 4 2 4
l151 73h-252l-3 4l26 146c0 2.66699 1.66699 4 5 4h430l5 -3l-26 -147c-0.666992 -2 -1.66699 -3.33301 -3 -4l-167 -81z" />
    <glyph glyph-name="four" unicode="4" horiz-adv-x="516" 
d="M492 223l4 -4.00098l-25 -142c0 -2.66699 -1.66699 -4 -5 -4h-59l-13 -70l-5 -5h-186l-3 5l12 70h-231l-5 4l24 135c-0 1.33301 0.333008 2.33301 1 3c58 44.667 112.5 95.334 163.5 152.001s86.167 98.667 105.5 126s32.333 47.333 39 60v1l5 2h174l3 -5l-46 -261
l-12 -67h59zM240 223.999l22 125c-43.333 -50 -82.333 -91.667 -117 -125h95z" />
    <glyph glyph-name="five" unicode="5" horiz-adv-x="499" 
d="M168 337c98.667 18 176.667 10.6641 234 -22.0029s80 -84.334 68 -155.001c-6 -33.333 -18.667 -62.333 -38 -87s-42.5 -43.667 -69.5 -57s-54.667 -23.166 -83 -29.499s-57.166 -9.5 -86.499 -9.5c-22.667 0 -45.667 2.16699 -69 6.5s-46.666 11 -69.999 20
s-41.333 22.667 -54 41s-16.667 39.5 -12 63.5c4.66699 26.667 17.167 48.834 37.5 66.501s44.166 26.5 71.499 26.5c16 0 31.333 -2.16699 46 -6.5s22.667 -8.5 24 -12.5c0.666992 -5.33301 0.833984 -9.16602 0.500977 -11.499s-1.33301 -7.33301 -3 -15
s-2.83398 -14.167 -3.50098 -19.5c-3.33301 -18.667 -1 -32.667 7 -42s20 -14 36 -14s30.667 6.83301 44 20.5s21.666 29.834 24.999 48.501s2.83301 34 -1.5 46s-14.5 22.833 -30.5 32.5s-39.667 15 -71 16s-72.666 -0.5 -123.999 -4.5h-6l-3 5l8 48l20 113l7 39l19 107
c0 2.66699 1.66699 4 5 4h417c2.66699 0 4 -1 4 -3l-26 -147c-0.666992 -2.66699 -2.33398 -4 -5.00098 -4h-307z" />
    <glyph glyph-name="six" unicode="6" horiz-adv-x="513" 
d="M220 336c92.667 25.333 162.833 20.165 210.5 -15.502s65.834 -83.834 54.501 -144.501c-7.33301 -38 -22 -71 -44 -99s-47.333 -48.667 -76 -62s-54.834 -22.833 -78.501 -28.5s-45.5 -8.5 -65.5 -8.5c-54 0.666992 -98.667 14.834 -134 42.501s-59 64.167 -71 109.5
s-13 96 -3 152c16 85.333 53.167 156.5 111.5 213.5s126.5 85.167 204.5 84.5c57.333 -0.666992 102.5 -15 135.5 -43s46.833 -57.333 41.5 -88c-4 -24.667 -15.5 -45.167 -34.5 -61.5s-43.167 -24.166 -72.5 -23.499c-15.333 0 -29.833 2.16699 -43.5 6.5
s-21.167 8.16602 -22.5 11.499c-0.666992 2 1.66602 15.333 6.99902 40c6.66699 38 -3 57 -29 57c-23.333 0.666992 -42.166 -12.166 -56.499 -38.499s-25.833 -61.166 -34.5 -104.499zM235.999 87.999c20 0 36.168 11.333 48.501 34s19.166 42.667 20.499 60
c4 28 -1.5 48.667 -16.5 62s-42.833 15.333 -83.5 6c-18 -108 -7.66699 -162 31 -162z" />
    <glyph glyph-name="seven" unicode="7" horiz-adv-x="450" 
d="M493 552l-26 -147c-0.666992 -2 -1.66699 -3.33301 -3 -4l-19.5 -11c-8.33301 -4.66699 -23.166 -15 -44.499 -31s-40.833 -32.333 -58.5 -49s-34.667 -38 -51 -64s-27.166 -52 -32.499 -78c-5.33301 -29.333 -4.66602 -52.333 2.00098 -69
c4.66699 -11.333 11 -20 19 -26s14.167 -10.333 18.5 -13s5.16602 -6.66699 2.49902 -12c-8.66699 -16.667 -26.334 -32.667 -53.001 -48s-53.334 -23 -80.001 -23c-41.333 0 -73.833 13.5 -97.5 40.5s-31.167 64.5 -22.5 112.5c4.66699 26.667 15 53.167 31 79.5
s33.5 49 52.5 68s40.833 37.333 65.5 55s45.5 31.5 62.5 41.5s34.167 19 51.5 27h-279l-4 4l26 146c0 2.66699 1.66699 4 5 4h430z" />
    <glyph glyph-name="eight" unicode="8" horiz-adv-x="530" 
d="M403 287c31.333 -10 55.6641 -26.1631 72.9971 -48.4961s23 -49.5 17 -81.5c-11.333 -62 -43.333 -107.5 -96 -136.5s-113 -43.5 -181 -43.5h-10c-31.333 0 -60.166 3.16699 -86.499 9.5s-50.333 16.166 -72 29.499s-37.5 32.166 -47.5 56.499s-12 52.5 -6 84.5
c5.33301 32 20.5 59 45.5 81s54.833 38.333 89.5 49c-28.667 7.33301 -50 22.166 -64 44.499s-18.333 49.166 -13 80.499c6.66699 39.333 23.834 71.833 51.501 97.5s59 43.667 94 54s73.5 15.5 115.5 15.5h10c64.667 0 116.834 -13.833 156.501 -41.5
s54.5 -69.5 44.5 -125.5c-5.33301 -31.333 -19 -58 -41 -80s-48.667 -37 -80 -45zM229.998 89.0039c16.667 0 31.165 6.83301 43.498 20.5s20.833 32.167 25.5 55.5c3.33301 20.667 1.33301 39.167 -6 55.5s-19 24.5 -35 24.5c-15.333 0 -29.666 -8.33301 -42.999 -25
s-21.666 -35 -24.999 -55c-4.66699 -23.333 -3.16699 -41.833 4.5 -55.5s19.5 -20.5 35.5 -20.5zM271.996 327.004c15.333 0 29.499 7.83203 42.499 23.499s21.167 32.834 24.5 51.501c4 20.667 2.16699 37.834 -5.5 51.501s-19.5 20.5 -35.5 20.5s-30.333 -7 -43 -21
s-20.667 -31 -24 -51c-3.33301 -18.667 -1.16602 -35.834 6.50098 -51.501s19.167 -23.5 34.5 -23.5z" />
    <glyph glyph-name="nine" unicode="9" horiz-adv-x="510" 
d="M288 578c81.333 0 139.829 -28.6709 175.496 -86.0039s45.834 -129.666 30.501 -216.999c-16.667 -93.333 -52.334 -166.333 -107.001 -219s-122.667 -79 -204 -79c-55.333 0 -100.166 11.667 -134.499 35s-49.833 52.333 -46.5 87c3.33301 26 14.833 49 34.5 69
s43.834 30 72.501 30c16 0.666992 31 -1.16602 45 -5.49902s21.667 -8.16602 23 -11.499c1.33301 -2.66699 -0.666992 -16.334 -6 -41.001c-6.66699 -40 4.66602 -60 33.999 -60c38.667 0 66.667 49.333 84 148c-62.667 -20 -114.167 -24.167 -154.5 -12.5
s-69.666 32.667 -87.999 63s-24.166 64.5 -17.499 102.5c5.33301 31.333 15.5 59.333 30.5 84s31.667 43.834 50 57.501s38.833 24.834 61.5 33.501s43.334 14.5 62.001 17.5s37 4.5 55 4.5zM303.996 318.996c10.667 41.333 13.3301 75.333 7.99707 102
s-20.333 39.667 -45 39c-20 -0.666992 -35.667 -10.5 -47 -29.5s-17.666 -36.833 -18.999 -53.5c-3.33301 -27.333 2.83398 -46.5 18.501 -57.5s43.834 -11.167 84.501 -0.5z" />
    <glyph glyph-name="colon" unicode=":" horiz-adv-x="226" 
d="M234 347c-4.66699 -26.667 -18.167 -49.667 -40.5 -69s-47.166 -29 -74.499 -29c-26.667 0 -48 9.5 -64 28.5s-21.667 42.167 -17 69.5c5.33301 27.333 19.166 50.5 41.499 69.5s46.833 28.5 73.5 28.5c27.333 0 48.833 -9.66699 64.5 -29s21.167 -42.333 16.5 -69z
M187 80c-5.33301 -27.333 -19.168 -50.5 -41.501 -69.5s-46.833 -28.5 -73.5 -28.5c-27.333 0 -48.666 9.66699 -63.999 29s-20.666 42.333 -15.999 69c4 26.667 17.167 49.667 39.5 69s47.166 29 74.499 29c26.667 0 48 -9.5 64 -28.5s21.667 -42.167 17 -69.5z" />
    <glyph glyph-name="semicolon" unicode=";" horiz-adv-x="226" 
d="M243 347c-4.66699 -26.667 -18.167 -49.667 -40.5 -69s-47.166 -29 -74.499 -29c-26.667 0 -48 9.5 -64 28.5s-21.667 42.167 -17 69.5c5.33301 27.333 19.166 50.5 41.499 69.5s46.833 28.5 73.5 28.5c27.333 0 48.833 -9.66699 64.5 -29s21.167 -42.333 16.5 -69z
M195 74c-8.66699 -48 -29.334 -87.499 -62.001 -118.499s-62.667 -51.167 -90 -60.5c-14 -4.66699 -25 -7.33398 -33 -8.00098s-12.833 0 -14.5 2s-2.16699 5 -1.5 9c0.666992 6.66699 7.33398 15 20.001 25c43.333 34.667 55 56 35 64c-18 7.33301 -31.5 19.333 -40.5 36
s-11.833 35.667 -8.5 57c4.66699 26.667 18.167 49.667 40.5 69s47.166 29 74.499 29c26.667 0 47.834 -10 63.501 -30s21.167 -44.667 16.5 -74z" />
    <glyph glyph-name="equal" unicode="=" horiz-adv-x="500" 
d="M488 372l-14.998 -88c-0.666992 -2 -2.33398 -3 -5.00098 -3h-428l-4 4l15 86c1.33301 3.33301 3.66602 5 6.99902 5h427zM458.002 202l-14.998 -88c-0.666992 -2 -2.33398 -3 -5.00098 -3h-428l-4 4l15 86c1.33301 3.33301 3.66602 5 6.99902 5h427z" />
    <glyph glyph-name="question" unicode="?" horiz-adv-x="299" 
d="M192 80c-4.66699 -27.333 -18.1641 -50.666 -40.4971 -69.999s-47.166 -29 -74.499 -29c-26.667 0 -47.834 9.66699 -63.501 29s-21.167 42.666 -16.5 69.999c4.66699 26.667 18.167 49.667 40.5 69s47.166 29 74.499 29s48.666 -9.66699 63.999 -29
s20.666 -42.333 15.999 -69zM253.003 371c-6.66699 -9.33301 -17.167 -24.999 -31.5 -46.999l-34.5 -52c-8.66699 -12.667 -19.834 -24.667 -33.501 -36s-26.5 -17 -38.5 -17c-22 0 -37.667 17.333 -47 52s-9 69 1 103c8 28 23.333 56.167 46 84.5l65 78
c20.667 23.667 32.667 44.834 36 63.501c2.66699 12 2.33398 23.333 -0.999023 34s-12 16 -26 16c-23.333 0 -39.666 -21.667 -48.999 -65c-0.666992 -4 -1.33398 -10 -2.00098 -18s-1.5 -14.5 -2.5 -19.5s-2.5 -8.83301 -4.5 -11.5c-2.66699 -3.33301 -12.5 -7 -29.5 -11
s-33.167 -6.33301 -48.5 -7c-29.333 0 -50.333 7.83301 -63 23.5s-16.667 35.5 -12 59.5c7.33301 37.333 33.5 71.166 78.5 101.499s97.833 45.5 158.5 45.5c66 0 115.667 -16.5 149 -49.5s46.333 -70.167 39 -111.5c-4 -23.333 -13.167 -45.333 -27.5 -66
s-34.5 -45.334 -60.5 -74.001s-46.667 -54 -62 -76z" />
    <glyph glyph-name="at" unicode="@" horiz-adv-x="719" 
d="M478 60c-54.667 0 -88.3301 27.001 -100.997 81.001c-36 -52 -77 -78 -123 -78c-41.333 0 -70.833 19 -88.5 57s-21.834 82 -12.501 132c8.66699 50.667 28.5 94.5 59.5 131.5s68.167 55.5 111.5 55.5c44.667 0 75.334 -22 92.001 -66l8 48l4 4h139c2 0 3 -1 3 -3
c-28.667 -139.333 -43 -210.666 -43 -213.999c-2 -29.333 8.33301 -44 31 -44c17.333 0 34.166 10.833 50.499 32.5s27.166 48.167 32.499 79.5c7.33301 30 7.33301 60.5 0 91.5s-19 58.833 -35 83.5s-41 45 -75 61s-74 24 -120 24c-82.667 0 -155 -29 -217 -87
s-99.667 -125 -113 -201c-8.66699 -48.667 -7.33398 -91.834 3.99902 -129.501s29.333 -67.167 54 -88.5s51.667 -37.166 81 -47.499s59.333 -15.5 90 -15.5c40 0 77.5 4 112.5 12s59.167 14.5 72.5 19.5s20.333 5.83301 21 2.5c0.666992 -2 -1.33301 -6.33301 -6 -13
s-12.5 -14.834 -23.5 -24.501s-24.5 -18.834 -40.5 -27.501s-37.333 -16 -64 -22s-55.334 -9 -86.001 -9c-98 0 -174.333 33.667 -229 101s-73.667 149 -57 245s64.5 177.667 143.5 245s167.5 101 265.5 101c100.667 0 179.167 -29.833 235.5 -89.5s75.5 -137.5 57.5 -233.5
c-12 -63.333 -41.667 -114.833 -89 -154.5s-95.666 -59.5 -144.999 -59.5zM330.004 158.001c16.667 0 31.166 8.83301 43.499 26.5s20.833 40.167 25.5 67.5s4 49.833 -2 67.5s-17.333 26.5 -34 26.5s-31 -8.83301 -43 -26.5s-20.333 -40.167 -25 -67.5
s-4.16699 -49.833 1.5 -67.5s16.834 -26.5 33.501 -26.5z" />
    <glyph glyph-name="A" unicode="A" horiz-adv-x="689" 
d="M618 5l-4.00098 -5.00391h-226c-3.33301 0 -5 1.66699 -5 5l-6 106h-177l-41 -106l-8 -5h-208l-1 5c177.333 358.667 266 538.334 266 539.001c13.333 24 22 44.333 26 61s4.33301 28.334 1 35.001l-9 18.5c-2.66699 5.66699 -2.66699 10.834 0 15.501
c10 18.667 30.833 34.834 62.5 48.501s62.5 20.5 92.5 20.5c38.667 0 72.334 -13.167 101.001 -39.5s47.667 -65.5 57 -117.5c6.66699 -34.667 16.5 -100.5 29.5 -197.5l34.5 -264.5zM250.999 245.996h117l-7 290c-12 -28.667 -31.833 -80.5 -59.5 -155.5
s-44.5 -119.833 -50.5 -134.5z" />
    <glyph glyph-name="B" unicode="B" horiz-adv-x="645" 
d="M511 411c-4.66699 -2.66699 -4.66504 -4.67188 0.00195312 -6.00488c39.333 -14.667 67.5 -39.167 84.5 -73.5s22.167 -70.166 15.5 -107.499c-7.33301 -42.667 -22.5 -80.167 -45.5 -112.5s-51.167 -58 -84.5 -77s-69 -33.167 -107 -42.5s-78 -14 -120 -14
c-43.333 0 -81 6 -113 18s-56.667 28 -74 48s-31.333 42.667 -42 68s-15.834 51.333 -15.501 78s1.83301 53 4.5 79l26.5 149.5l33.5 193.5l16 88c0.666992 4 2.66699 6 6 6c74.667 20.667 165.667 31 273 31c27.333 0 53.166 -1.66699 77.499 -5
s48.5 -9.16602 72.5 -17.499s44.167 -19.166 60.5 -32.499s28.333 -30.666 36 -51.999s9.16699 -45.666 4.5 -72.999c-6 -32.667 -20.167 -63.167 -42.5 -91.5s-44.5 -46.5 -66.5 -54.5zM410.002 540.995c4.66699 28 0.833008 49.502 -11.5 64.502s-28 22.667 -47 23
s-37.5 -0.833984 -55.5 -3.50098l-34 -189c44 0 78.333 10.167 103 30.5s39.667 45.166 45 74.499zM289.001 97.9971c27.333 0 50.333 9.66504 69 28.998s31 45.333 37 78c8 44.667 -3 78.334 -33 101.001s-69.667 29.334 -119 20.001c-13.333 -76 -21 -119 -23 -129
c-8 -66 15 -99 69 -99z" />
    <glyph glyph-name="C" unicode="C" horiz-adv-x="642" 
d="M594 198c13.333 10 19.6641 9.99316 18.9971 -0.00683594c0 -5.33301 -2.33301 -13 -7 -23c-4 -10 -10.167 -21.833 -18.5 -35.5s-21.5 -30 -39.5 -49s-38.167 -36.333 -60.5 -52s-50.666 -29.334 -84.999 -41.001s-71.166 -17.834 -110.499 -18.501
c-64.667 -1.33301 -120.834 15.5 -168.501 50.5s-81.334 82 -101.001 141s-23.834 122.5 -12.501 190.5c18 102.667 66.333 190.834 145 264.501s169.334 110.834 272.001 111.501c78 0.666992 138.833 -16.166 182.5 -50.499s60.834 -78.5 51.501 -132.5
c-4.66699 -29.333 -19.167 -55.666 -43.5 -78.999s-53.5 -35 -87.5 -35c-22 0 -40 3.5 -54 10.5s-19.667 15.5 -17 25.5c12.667 32.667 15.334 63.334 8.00098 92.001s-26.666 43 -57.999 43c-28.667 0 -56.167 -14.667 -82.5 -44s-47 -63.666 -62 -102.999
s-23.5 -76.333 -25.5 -111c-3.33301 -61.333 6.5 -110.666 29.5 -147.999s52.833 -60.166 89.5 -68.499s76.167 -7.16602 118.5 3.50098s81.5 30 117.5 58z" />
    <glyph glyph-name="D" unicode="D" horiz-adv-x="657" 
d="M649 356c-19.333 -109.333 -67 -199.833 -143 -271.5s-170.667 -107.5 -284 -107.5c-48.667 0 -93.667 2.5 -135 7.5s-70.333 10.167 -87 15.5l-26 7c-3.33301 0 -4.66602 2 -3.99902 6l120 686c0.666992 4 2.66699 6 6 6c63.333 18.667 149.666 28 258.999 28
c107.333 0 187.833 -36 241.5 -108s71.167 -161.667 52.5 -269zM297 624l-95 -537.001c57.333 -2.66699 106 23 146 77s67 119.667 81 197c6.66699 30.667 8.66699 62.334 6 95.001s-8 62.334 -16 89.001s-22.667 47.667 -44 63s-47.333 20.666 -78 15.999z" />
    <glyph glyph-name="E" unicode="E" horiz-adv-x="541" 
d="M479 171c11.333 6 18.668 6.49707 22.001 1.49707s2.66602 -13.5 -2.00098 -25.5c-6.66699 -20 -20.834 -42.167 -42.501 -66.5s-54 -47.5 -97 -69.5s-89.5 -33 -139.5 -33c-80.667 0 -138.667 26.5 -174 79.5s-46.666 117.167 -33.999 192.5l83 461
c0 1.33301 0.666992 2.5 2 3.5s2.33301 1.5 3 1.5h2h477c4 0 6.33301 -1.66699 7 -5s1.16699 -7.66602 1.5 -12.999s-0.666992 -15.666 -3 -30.999s-6.66602 -29.666 -12.999 -42.999s-17.333 -27.5 -33 -42.5s-34.834 -26.833 -57.501 -35.5
c-23.333 -8.66699 -51.166 -13.167 -83.499 -13.5s-58.833 1.5 -79.5 5.5l-30 6c-0.666992 -6 -2.33398 -16 -5.00098 -30l-9.5 -51l-9.5 -51h165l4 -5l-18 -100l-6 -5h-165c-8.66699 -47.333 -13 -71.333 -13 -72c-4.66699 -30.667 1.83301 -54 19.5 -70
s40.5 -24.5 68.5 -25.5s56.667 1.83301 86 8.5s54 16 74 28z" />
    <glyph glyph-name="F" unicode="F" horiz-adv-x="527" 
d="M576 715c4 0 6.66602 -1.6709 7.99902 -5.00391c0.666992 -3.33301 1.16699 -7.66602 1.5 -12.999s-0.666992 -15.5 -3 -30.5s-6.5 -29.167 -12.5 -42.5s-16.833 -27.5 -32.5 -42.5s-35.167 -27.167 -58.5 -36.5c-24 -9.33301 -52.167 -14.166 -84.5 -14.499
s-58.5 1.5 -78.5 5.5l-30 7c-0.666992 -4 -2.5 -13.5 -5.5 -28.5s-6 -31 -9 -48l-8.5 -49.5h163l5 -6l-19 -106c0 -1.33301 -0.666992 -2.5 -2 -3.5s-2.66602 -1.5 -3.99902 -1.5h-2h-163l-15 -89c-4.66699 -38 -5.16699 -66.833 -1.5 -86.5s9.66699 -32.5 18 -38.5
l19.5 -14c4.66699 -3.33301 5.66699 -7.66602 3 -12.999c-10 -19.333 -30 -37.666 -60 -54.999s-59.333 -26 -88 -26c-44 0 -77.667 14.5 -101 43.5s-30 72.833 -20 131.5l99 557l5 5h476z" />
    <glyph glyph-name="G" unicode="G" horiz-adv-x="657" 
d="M524 375c40.667 0 70.1738 -13.5029 88.5068 -40.5029s23.166 -64.167 14.499 -111.5c-3.33301 -33.333 -14.333 -80.666 -33 -141.999c-1.33301 -6 -4 -10 -8 -12c-0.666992 -0.666992 -4.33398 -3 -11.001 -7l-15.5 -9.5c-3.66699 -2.33301 -9.83398 -6 -18.501 -11
s-16.334 -9.16699 -23.001 -12.5s-15.5 -7.33301 -26.5 -12s-21.5 -8.66699 -31.5 -12s-21.667 -6.66602 -35 -9.99902s-26.333 -6.16602 -39 -8.49902s-26.834 -4.16602 -42.501 -5.49902s-31.5 -2 -47.5 -2c-98 0 -174 37.667 -228 113s-72 165.333 -54 270
c18 102.667 66.333 191 145 265s169.334 111.333 272.001 112c79.333 0.666992 140.833 -16.166 184.5 -50.499s60.834 -78.5 51.501 -132.5c-4.66699 -29.333 -19.167 -55.833 -43.5 -79.5s-53.5 -35.5 -87.5 -35.5c-22.667 0 -41 3.5 -55 10.5s-19.667 15.5 -17 25.5
c12.667 32.667 15.334 63.5 8.00098 92.5s-26.666 43.5 -57.999 43.5c-28.667 0 -55.834 -14.833 -81.501 -44.5s-46 -63.834 -61 -102.501s-24.5 -76 -28.5 -112c0 -12 -0.833008 -27.333 -2.5 -46s0.333008 -38.667 6 -60s13.167 -41.166 22.5 -59.499
s25.166 -33.333 47.499 -45s49.166 -16.834 80.499 -15.501c8 31.333 12.833 58.166 14.5 80.499s0.833984 37.833 -2.49902 46.5s-6.83301 16.667 -10.5 24s-6.83398 11.5 -9.50098 12.5s-2.33398 5.16699 0.999023 12.5c9.33301 17.333 27.166 33.5 53.499 48.5
s53.166 22.5 80.499 22.5z" />
    <glyph glyph-name="H" unicode="H" horiz-adv-x="687" 
d="M716 714l2.99805 -5l-125 -704l-6 -5h-207l-3 5l53 288h-176l-50 -288l-6 -5h-205l-3 5c64.667 364 97 546.333 97 547c2 26.667 0.666992 48.167 -4 64.5s-10.5 26.333 -17.5 30s-12.5 7 -16.5 10s-4.66699 7.16699 -2 12.5c8.66699 17.333 28.167 34 58.5 50
s59.5 24 87.5 24c40.667 0 72.334 -13.5 95.001 -40.5s29.334 -67.167 20.001 -120.5c-11.333 -56.667 -20.333 -105 -27 -145h174l46 272l6 5h208z" />
    <glyph glyph-name="I" unicode="I" horiz-adv-x="311" 
d="M198 739c42.667 0 75.666 -13.332 98.999 -39.999s30 -66.667 20 -120l-101 -574l-6 -5h-212l-3 5l60.5 347l29.5 167l5 29c2 26.667 0.5 48.167 -4.5 64.5s-11 26.333 -18 30s-12.667 7.16699 -17 10.5s-5.16602 7.66602 -2.49902 12.999
c9.33301 17.333 29.5 33.833 60.5 49.5s60.833 23.5 89.5 23.5z" />
    <glyph glyph-name="J" unicode="J" horiz-adv-x="468" 
d="M361 739c42 0 74.002 -13.167 96.002 -39.5s28.333 -66.5 19 -120.5c-0.666992 -4.66699 -2.33398 -13.834 -5.00098 -27.501s-7.83398 -42.5 -15.501 -86.5l-29.5 -167c-38 -212 -135.667 -318 -293 -318c-60.667 0 -105.834 13.5 -135.501 40.5
s-41.167 58.833 -34.5 95.5c4.66699 27.333 18.334 51.666 41.001 72.999s48.334 32 77.001 32c17.333 0 34.166 -2 50.499 -6s25.166 -8 26.499 -12c0.666992 -2.66699 0 -7 -2 -13s-5 -14.5 -9 -25.5s-7 -21.833 -9 -32.5c-7.33301 -42.667 0.666992 -64 24 -64
c28.667 0 46.667 20.333 54 61c4 22.667 2.83301 51.167 -3.5 85.5s-7.16602 64.833 -2.49902 91.5l44 250c3.33301 24 2.5 43.333 -2.5 58s-11.167 23.834 -18.5 27.501s-13.333 7.33398 -18 11.001s-5.66699 8.16699 -3 13.5c8.66699 17.333 28.5 33.833 59.5 49.5
s60.833 23.5 89.5 23.5z" />
    <glyph glyph-name="K" unicode="K" horiz-adv-x="692" 
d="M637 105c6 -2 4.83594 -12.501 -3.49707 -31.501s-24 -38.5 -47 -58.5s-49.167 -31.667 -78.5 -35c-68.667 -7.33301 -119.334 9.33398 -152.001 50.001s-51 100.334 -55 179.001c-1.33301 17.333 -1 52 1 104c-2.66699 -0.666992 -12.334 -2 -29.001 -4l-54 -304l-5 -5
h-213l-3 5l60.5 347l29.5 167l5 29c2 26.667 0.5 48.167 -4.5 64.5s-11 26.333 -18 30s-12.667 7.16699 -17 10.5s-5.16602 7.66602 -2.49902 12.999c9.33301 17.333 29.5 33.833 60.5 49.5s60.833 23.5 89.5 23.5c42.667 0 75.667 -13.333 99 -40s30.333 -66.667 21 -120
l-29 -163c26 0 50.667 9.5 74 28.5s40.833 42 52.5 69s18.5 55.5 20.5 85.5s-5 56 -21 78c-4 4.66699 -0.166992 12 11.5 22s28.167 19.167 49.5 27.5s42.333 12.5 63 12.5c41.333 0 72.666 -15 93.999 -45s28.333 -66.333 21 -109c-16.667 -94.667 -79.667 -168 -189 -220
c0 -4 1 -12.167 3 -24.5s6.66699 -30 14 -53s16.666 -45.5 27.999 -67.5s27.833 -43.833 49.5 -65.5s46.5 -38.167 74.5 -49.5z" />
    <glyph glyph-name="L" unicode="L" horiz-adv-x="529" 
d="M490 143c-2.66699 -43.333 -17.502 -78.8311 -44.502 -106.498s-58.5 -45.667 -94.5 -54s-73.667 -9.5 -113 -3.5c-108.667 14 -187.667 21 -237 21l-3 5l60.5 347l29.5 167l5 29c2 26.667 0.5 48.167 -4.5 64.5s-11 26.333 -18 30s-12.667 7.16699 -17 10.5
s-5.16602 7.66602 -2.49902 12.999c9.33301 17.333 29.5 33.833 60.5 49.5s60.833 23.5 89.5 23.5c42.667 0 75.667 -13.333 99 -40s30.333 -66.667 21 -120l-75 -423h17c22.667 0 43.334 0.5 62.001 1.5s34.5 2.5 47.5 4.5s24.667 4.16699 35 6.5
s18.5 4.66602 24.5 6.99902s11.333 4.66602 16 6.99902s8.16699 4.5 10.5 6.5s4.33301 3.5 6 4.5s3.16699 1.33301 4.5 1s2.66602 -1.16602 3.99902 -2.49902c12.667 -10.667 18.334 -27 17.001 -49z" />
    <glyph glyph-name="M" unicode="M" horiz-adv-x="841" 
d="M438 401l226 307.997l8 5h193l4 -5l-121 -704c0 -1.33301 -0.666992 -2.5 -2 -3.5s-2.66602 -1.5 -3.99902 -1.5h-1h-204l-4 5l59 320l37 103l-209 -298c-2 -2.66699 -6.66699 -4 -14 -4h-28c-8 0 -12.333 1.33301 -13 4l-111 301l3 -93l-53 -333l-6 -5h-210l-4 5
c68 364 102 546.333 102 547c3.33301 23.333 3.66602 41.333 0.999023 54s-6.5 22.5 -11.5 29.5s-10 11.833 -15 14.5s-8.83301 5.33398 -11.5 8.00098s-2.66699 6.33398 0 11.001c9.33301 17.333 31 34 65 50s67 24 99 24c22.667 0 42.5 -3.66699 59.5 -11
s31.667 -19.166 44 -35.499s22 -31.5 29 -45.5s15.5 -33.667 25.5 -59c10.667 -25.333 21.5 -54 32.5 -86l25.5 -76z" />
    <glyph glyph-name="N" unicode="N" horiz-adv-x="696" 
d="M727 710l-127.003 -704.999l-6 -5h-184c-2.66699 -0.666992 -4.66699 1 -6 5l-139 417l-5 -83l-50 -334l-6 -5h-213l-4 5c67.333 364 101 546.333 101 547c3.33301 26 2.83301 47 -1.5 63s-10.166 26 -17.499 30s-13.166 7.66699 -17.499 11
s-5.16602 7.66602 -2.49902 12.999c9.33301 17.333 30.333 34 63 50s64.667 24 96 24c19.333 0 36.333 -3 51 -9s27.834 -15.667 39.501 -29s21.167 -26 28.5 -38s16.666 -29 27.999 -51c48.667 -120 83 -215.333 103 -286l7 96l45 284l5 5h208z" />
    <glyph glyph-name="O" unicode="O" horiz-adv-x="710" 
d="M702 357c-18.667 -106 -66 -195.5 -142 -268.5s-166.333 -109.5 -271 -109.5c-68 0 -125.667 17.333 -173 52s-80 80.5 -98 137.5s-21 119.833 -9 188.5c18.667 105.333 66.667 195 144 269s167 111 269 111c68 0 125.667 -17.5 173 -52.5s80 -81.333 98 -139
s21 -120.5 9 -188.5zM235 357c-11.333 -63.333 -10.6689 -123.5 1.99805 -180.5s36.334 -85.5 71.001 -85.5c24.667 0 49 14.167 73 42.5s44 62.333 60 102s27.667 80.167 35 121.5c11.333 65.333 10.833 126.333 -1.5 183s-36.166 85 -71.499 85s-69.333 -28.333 -102 -85
s-54.667 -117.667 -66 -183z" />
    <glyph glyph-name="P" unicode="P" horiz-adv-x="588" 
d="M-10 152l97.001 546.996l6 5c8.66699 2.66699 21 5.83398 37 9.50098s47.333 8.33398 94 14.001s92.334 7.83398 137.001 6.50098c81.333 -2.66699 145.666 -24 192.999 -64s64.666 -95 51.999 -165c-4 -23.333 -10.667 -46 -20 -68s-23.833 -44.667 -43.5 -68
s-43.167 -43.333 -70.5 -60s-62 -29.834 -104 -39.501s-88.667 -13.5 -140 -11.5l-9 -48c-4.66699 -38 -5 -66.833 -1 -86.5s10 -32.5 18 -38.5l19 -14c4.66699 -3.33301 5.66699 -7.66602 3 -12.999c-10 -19.333 -30.167 -37.666 -60.5 -54.999s-59.833 -26 -88.5 -26
c-44 0 -77.5 14.5 -100.5 43.5s-29.167 72.833 -18.5 131.5zM399.001 506.996c6.66699 38.667 0.166016 69.667 -19.501 93s-48.5 32 -86.5 26l-47 -265c38 0 71.333 14.667 100 44s46.334 63.333 53.001 102z" />
    <glyph glyph-name="Q" unicode="Q" horiz-adv-x="693" 
d="M660 -45c-4 -36.667 -20.667 -68.165 -50 -94.498s-61.333 -40.833 -96 -43.5c-27.333 -2 -50.666 1.16699 -69.999 9.5s-35 21.333 -47 39s-21.167 35.5 -27.5 53.5s-11.833 39.667 -16.5 65c-16.667 -2.66699 -36.334 -4 -59.001 -4
c-101.333 0 -176.166 36.5 -224.499 109.5s-63.5 162.5 -45.5 268.5c18.667 106 65 195.667 139 269s162 110 264 110s177.333 -36.667 226 -110s63.667 -163 45 -269c-12 -72 -37.833 -138.167 -77.5 -198.5s-88.167 -105.5 -145.5 -135.5c10.667 -21.333 23 -32 37 -32
c36 0 66.667 21 92 63c4 6.66699 8.33301 9.66699 13 9s10.5 -4.33398 17.5 -11.001s13.667 -18.834 20 -36.501s8.16602 -38.167 5.49902 -61.5zM407 624.002c-34.667 0 -66.333 -27.498 -95 -82.498s-49 -116.167 -61 -183.5c-12.667 -76 -16.334 -131.667 -11.001 -167
c66 18.667 118.667 3 158 -47c14.667 21.333 28.834 52.666 42.501 93.999s23.834 81.333 30.501 120c6 41.333 9.33301 81.666 10 120.999s-5.33301 73.333 -18 102s-31.334 43 -56.001 43zM313.001 92.0039c4 0 7.33301 0.333008 10 1c-15.333 38 -39.333 54 -72 48
c14 -32.667 34.667 -49 62 -49z" />
    <glyph glyph-name="R" unicode="R" horiz-adv-x="634" 
d="M586 99c4.66699 -1.33301 2.83203 -11.1699 -5.50098 -29.5029s-23.5 -37.333 -45.5 -57s-47.667 -31.167 -77 -34.5c-51.333 -6 -92.833 4.16699 -124.5 30.5s-52.5 62 -62.5 107s-12.333 97.833 -7 158.5h-29l-47 -268l-5 -6h-209l-4 6l121 692l6 5
c8.66699 2.66699 21 5.83398 37 9.50098s47.333 8.33398 94 14.001s92.334 7.83398 137.001 6.50098c80.667 -2.66699 144.5 -24 191.5 -64s64.167 -95 51.5 -165c-8 -43.333 -27.167 -85 -57.5 -125s-70.5 -69.667 -120.5 -89c20.667 -86 72.667 -149.667 156 -191z
M296.998 624.996l-44.001 -248c38 0 70.667 13.5 98 40.5s44.333 59.833 51 98.5c6.66699 38 0.333984 67.167 -18.999 87.5s-48 27.5 -86 21.5z" />
    <glyph glyph-name="S" unicode="S" horiz-adv-x="637" 
d="M420 407c138 -44.667 199.001 -114.666 183.001 -209.999c-7.33301 -39.333 -23.666 -73.833 -48.999 -103.5s-56.166 -52.5 -92.499 -68.5s-73.5 -27.833 -111.5 -35.5s-76.667 -11.5 -116 -11.5c-31.333 0 -61.833 2.66699 -91.5 8s-58.834 14 -87.501 26
s-51 29.833 -67 53.5s-22.333 51.5 -19 83.5c3.33301 29.333 17.5 55.666 42.5 78.999s53.833 35 86.5 35c19.333 0 39.166 -3.33301 59.499 -10s31.833 -12.667 34.5 -18c1.33301 -2 1.33301 -5.33301 0 -10s-3.33301 -11.167 -6 -19.5s-4.66699 -15.833 -6 -22.5
c-6.66699 -40.667 3.66602 -69.334 30.999 -86.001s57.5 -17.834 90.5 -3.50098s53.167 39.166 60.5 74.499c2 13.333 0.833008 25.5 -3.5 36.5s-13.5 21.333 -27.5 31s-26.167 17.334 -36.5 23.001s-27.333 13.667 -51 24l-50.5 22.5c-53.333 25.333 -88.333 45 -105 59
c-41.333 34.667 -58.666 80.334 -51.999 137.001c6 44.667 26.833 85.334 62.5 122.001s77.334 64.667 125.001 84s95.167 29.666 142.5 30.999c84 2 151 -12.333 201 -43s70 -75 60 -133c-6 -35.333 -20.167 -63.166 -42.5 -83.499s-52.833 -30.5 -91.5 -30.5
c-20.667 0 -38.667 2.66699 -54 8s-24.333 10.666 -27 15.999c-0.666992 2 -0.166992 6.16699 1.5 12.5s4.16699 15 7.5 26s5.66602 19.833 6.99902 26.5c8.66699 38 -2 64 -32 78c-27.333 12.667 -55.333 10.334 -84 -6.99902c-22 -12.667 -36.333 -31.667 -43 -57
c-10.667 -60 39.666 -108 150.999 -144z" />
    <glyph glyph-name="T" unicode="T" horiz-adv-x="636" 
d="M683 716c0.666992 -4 1.16797 -9.16699 1.50098 -15.5s-0.833984 -18.166 -3.50098 -35.499s-7 -33.333 -13 -48s-16.833 -29.334 -32.5 -44.001s-35.167 -25.334 -58.5 -32.001c-14 -4 -32.333 -6.16699 -55 -6.5s-41.667 0.166992 -57 1.5l-23 3l-54 -339
c-4.66699 -36 -5 -63.167 -1 -81.5s10 -30.333 18 -36l19 -13.5c4.66699 -3.33301 5.66699 -7.66602 3 -12.999c-8.66699 -18 -28.667 -35.167 -60 -51.5s-61.333 -24.5 -90 -24.5c-42.667 0 -75.667 13.667 -99 41s-30.333 68.666 -21 123.999l79 408
c-66.667 1.33301 -128 -3.33398 -184 -14.001l-6 5c-0.666992 0.666992 -1.5 5 -2.5 13s-0.833008 18.667 0.5 32s4.5 27.333 9.5 42s14.667 29.834 29 45.501s32.5 28.834 54.5 39.501c32 15.333 64.833 23.5 98.5 24.5s88 -2 163 -9s145.833 -10.833 212.5 -11.5l65 1
c4 0 6.33301 -1.66699 7 -5z" />
    <glyph glyph-name="U" unicode="U" horiz-adv-x="698" 
d="M738 710c-33.333 -173.333 -61.335 -327.666 -84.002 -462.999c-16 -94.667 -67 -167 -153 -217c-74 -43.333 -153.667 -59.666 -239 -48.999c-82.667 10.667 -142.667 44 -180 100c-29.333 44.667 -38.666 99 -27.999 163l1 1c2 10 9.33301 51.333 22 124l23 132
c6.66699 40.667 7.83398 71.334 3.50098 92.001s-10.833 34.167 -19.5 40.5s-16 11.166 -22 14.499s-7.66699 7.66602 -5 12.999c9.33301 18 28.166 35 56.499 51s56.5 24 84.5 24c44.667 0 80.334 -14.667 107.001 -44s36 -68 28 -116c-2 -12 -24.667 -139.667 -68 -383v-2
c-6.66699 -38.667 4.33301 -64.667 33 -78c26 -12 52.333 -8.66699 79 10c22 16 35.667 39 41 69l91 517l5 6h220c2.66699 -0.666992 4 -2.33398 4 -5.00098z" />
    <glyph glyph-name="V" unicode="V" horiz-adv-x="664" 
d="M546 746c52.667 0 90.998 -27.0029 114.998 -81.0029s26 -136.667 6 -248c-8 -43.333 -18.333 -84.666 -31 -123.999s-30 -78.666 -52 -117.999s-47.167 -73.166 -75.5 -101.499s-63.166 -51.333 -104.499 -69s-86.333 -26.5 -135 -26.5c-38.667 0 -74.5 6 -107.5 18
s-62.333 29.833 -88 53.5s-44 55.5 -55 95.5s-12.167 85.667 -3.5 137c0.666992 0 26.334 142.333 77.001 427c0 1.33301 0.666992 2.66602 2 3.99902s2.66602 2.33301 3.99902 3h1h216l3 -8l-82 -462c-7.33301 -40 -6.5 -72.167 2.5 -96.5s26.167 -36.5 51.5 -36.5
c28.667 0 56.5 19.167 83.5 57.5s46.833 94.5 59.5 168.5c10.667 59.333 14 108.333 10 147s-10.833 67.167 -20.5 85.5s-18.834 33.333 -27.501 45s-12.667 19.834 -12 24.501c2.66699 18 20.334 40 53.001 66s69.334 39 110.001 39z" />
    <glyph glyph-name="W" unicode="W" horiz-adv-x="1001" 
d="M876 746c52.667 0 91 -27.001 115 -81.001s26 -136.667 6 -248c-8 -44 -18.167 -85.5 -30.5 -124.5s-29.5 -78.167 -51.5 -117.5s-47 -73 -75 -101s-62.5 -50.833 -103.5 -68.5s-85.833 -26.5 -134.5 -26.5c-91.333 0 -155 32.667 -191 98
c-47.333 -64.667 -116.666 -97 -207.999 -97c-74 0 -127.5 28.667 -160.5 86s-42.167 128 -27.5 212l76 431c0 2 0.5 3.5 1.5 4.5s2.16699 1.83301 3.5 2.5h1h214l5 -8l-89 -507c-8 -46 1 -75 27 -87c23.333 -10 47 -3.33301 71 20c22 20 36 48 42 84l87 491l5 7h209l2 -8
l-84 -478c-8 -38.667 -8.5 -69.5 -1.5 -92.5s22.833 -34.5 47.5 -34.5c27.333 0 52.666 20.333 75.999 61s41.666 99 54.999 175c10.667 59.333 14 108.333 10 147s-11 67.167 -21 85.5s-19.333 33.333 -28 45s-12.334 19.834 -11.001 24.501
c2.66699 18 20.334 40 53.001 66s69.334 39 110.001 39z" />
    <glyph glyph-name="X" unicode="X" horiz-adv-x="708" 
d="M636 5c2 -3.33301 0.998047 -4.99902 -3.00195 -4.99902h-270l-6 5l-93 264c-23.333 -16 -39.5 -34.667 -48.5 -56s-11.667 -41.666 -8 -60.999s8.33398 -35.666 14.001 -48.999s11.5 -23.333 17.5 -30c2 -2.66699 1.33301 -7.66699 -2 -15s-9 -15.5 -17 -24.5
s-17.5 -17.667 -28.5 -26s-24.667 -15.333 -41 -21s-33.166 -8.5 -50.499 -8.5c-43.333 0 -78.166 15.5 -104.499 46.5s-36.833 68.5 -31.5 112.5c6 52 33.167 101.5 81.5 148.5s108.166 80.5 179.499 100.5l-145 323c-0.666992 4.66699 1.66602 7 6.99902 7h253
c1.33301 0 2.66602 -0.5 3.99902 -1.5s2 -1.83301 2 -2.5l1 -2l89 -265c24.667 14 42.334 32.667 53.001 56s14.667 46.166 12 68.499s-6.83398 42 -12.501 59s-11.5 28.5 -17.5 34.5c-1.33301 1.33301 -1.16602 4.5 0.500977 9.5s5.5 11 11.5 18s13.333 14 22 21
s20.334 13.167 35.001 18.5s30.667 8.66602 48 9.99902c48.667 4.66699 87.334 -7.5 116.001 -36.5s41.334 -66.5 38.001 -112.5c-4.66699 -52.667 -31.334 -102.834 -80.001 -150.501s-109.334 -82.167 -182.001 -103.5z" />
    <glyph glyph-name="Y" unicode="Y" horiz-adv-x="668" 
d="M704 615c-6 -31.333 -16.835 -61.835 -32.502 -91.502s-32 -54.667 -49 -75s-39.167 -41.5 -66.5 -63.5s-49.333 -38.667 -66 -50s-38.667 -25.333 -66 -42l-15 -85c-4.66699 -38 -5.16699 -66.833 -1.5 -86.5s9.66699 -32.5 18 -38.5l19.5 -14
c4.66699 -3.33301 5.66699 -7.66602 3 -12.999c-9.33301 -18.667 -29.166 -36.5 -59.499 -53.5s-59.833 -25.5 -88.5 -25.5c-44 0 -77.833 14.167 -101.5 42.5s-30.167 71.833 -19.5 130.5c2.66699 16.667 6.83398 41.334 12.501 74.001s9.83398 58 12.501 76l-147 408
c-0.666992 2 -0.5 3.66699 0.5 5s1.83301 2.33301 2.5 3h2h240c3.33301 0 5.33301 -2 6 -6l69 -305c16.667 20 31.5 42 44.5 66s22.833 46 29.5 66s12.167 40.333 16.5 61s7.16602 37.667 8.49902 51s2.33301 25.666 3 36.999l1 16c2 16 23.333 29 64 39
s79.5 5.33301 116.5 -14s51.5 -56.666 43.5 -111.999z" />
    <glyph glyph-name="Z" unicode="Z" horiz-adv-x="611" 
d="M565 143c-2.66699 -43.333 -17.5039 -78.8379 -44.5039 -106.505s-58.5 -45.667 -94.5 -54s-73.667 -9.5 -113 -3.5c-34 4.66699 -88.333 9.33398 -163 14.001s-135.667 7 -183 7l-4 5l25 141c2 8 6 15.333 12 22c8 8 44.333 48.5 109 121.5
s114.334 126.833 149.001 161.5c9.33301 9.33301 20.5 18.833 33.5 28.5s25.333 18.167 37 25.5l32.5 20c10 6 18.333 10.667 25 14l9 5c-116 6.66699 -230.667 -0.666016 -344 -21.999l-6 5c-0.666992 0.666992 -1.5 5.33398 -2.5 14.001s-0.666992 20.167 1 34.5
s5.16699 29.333 10.5 45s15.333 31.667 30 48s33 29.833 55 40.5c32.667 16 67 24 103 24s93.333 -3.83301 172 -11.5s157 -11.5 235 -11.5c4 0 6.33301 -1.66699 7 -5l-27 -145c0 -2.66699 -0.833008 -5.5 -2.5 -8.5s-3.16699 -5.5 -4.5 -7.5l-3 -2l-129.5 -139.5
l-76.5 -86l-43.5 -49c-15 -16.333 -31.833 -32.833 -50.5 -49.5c-5.33301 -5.33301 -15.333 -13.166 -30 -23.499s-28 -19.166 -40 -26.499l-18 -12h107c26.667 0 50.834 0.833008 72.501 2.5s39 4 52 7s24.833 6 35.5 9s18.167 6 22.5 9s8.83301 5.5 13.5 7.5
s7.33398 3.16699 8.00098 3.5s2.66699 -0.5 6 -2.5c12.667 -10.667 18.334 -27 17.001 -49z" />
    <glyph glyph-name="bracketleft" unicode="[" horiz-adv-x="305" 
d="M215 -92c2.66699 0 4.00098 -1 4.00098 -3l-15 -81c0.666992 -2.66699 -0.333008 -4 -3 -4l-245 1l-4 4l156 895c1.33301 3.33301 3.66602 5 6.99902 5h244l4 -4l-15 -81c0.666992 -2.66699 -0.333008 -4 -3 -4c-59.333 0 -111 0.333008 -155 1l-129 -729h154z" />
    <glyph glyph-name="backslash" unicode="\" horiz-adv-x="407" 
d="M224 -171l-143.999 890.001l3 5h84c3.33301 0 5 -1.66699 5 -5l146 -890c-0.666992 -2.66699 -2 -4 -4 -4h-85c-2.66699 -0.666992 -4.33398 0.666016 -5.00098 3.99902z" />
    <glyph glyph-name="bracketright" unicode="]" horiz-adv-x="291" 
d="M-42 -92h153.001l129 729c-44 -0.666992 -95.667 -1 -155 -1l-3 4l15 81c-0.666992 2.66699 0.666016 4 3.99902 4h244l5 -5l-157 -895l-6 -4c-139.333 -0.666992 -221 -1 -245 -1l-3 4l15 81c2 0 3.33301 1 4 3z" />
    <glyph glyph-name="underscore" unicode="_" horiz-adv-x="476" 
d="M459 -5l-14.998 -88c-0.666992 -2 -2.33398 -3 -5.00098 -3h-418l-4 4l15 86c1.33301 3.33301 3.66602 5 6.99902 5h417z" />
    <glyph glyph-name="grave" unicode="`" horiz-adv-x="272" 
d="M12 735c-1.33301 3.33301 -0.333984 6 2.99902 8c40.667 40 88.334 66.333 143.001 79c2.66699 0.666992 4.66699 0 6 -2c3.33301 -45.333 11.5 -83.166 24.5 -113.499s34.167 -63.5 63.5 -99.5c2.66699 -2.66699 2.66699 -5 0 -7c-14.667 -20 -31 -36.333 -49 -49
c-2 -0.666992 -4.66699 -0.333984 -8 0.999023c-92.667 34 -153.667 95 -183 183z" />
    <glyph glyph-name="a" unicode="a" horiz-adv-x="617" 
d="M553 201c-6 -38 -7.49902 -67 -4.49902 -87s8.16699 -32.833 15.5 -38.5l17.5 -13.5c4.33301 -3.33301 5.16602 -7.66602 2.49902 -12.999c-8.66699 -17.333 -26.334 -33.5 -53.001 -48.5s-53.334 -22.5 -80.001 -22.5c-34.667 0 -62.5 10.167 -83.5 30.5
s-31.5 48.166 -31.5 83.499c-53.333 -75.333 -112.666 -113 -177.999 -113c-59.333 0 -102 27.5 -128 82.5s-32.667 118.5 -20 190.5c12.667 73.333 41.834 136.833 87.501 190.5s99.5 80.5 161.5 80.5c64 0 108 -31.667 132 -95l12 69c0 1.33301 0.5 2.5 1.5 3.5
s2.16699 1.5 3.5 1.5l1 1h200l3 -5c-31.333 -152 -51 -251 -59 -297zM267.001 117c24 0 44.832 12.667 62.499 38s29.834 57.666 36.501 96.999s5.66699 71.833 -3 97.5s-24.667 38.5 -48 38.5s-44 -12.833 -62 -38.5s-30.333 -58.167 -37 -97.5s-5.66699 -71.666 3 -96.999
s24.667 -38 48 -38z" />
    <glyph glyph-name="b" unicode="b" horiz-adv-x="591" 
d="M416 525c30.667 0 57.166 -7.99902 79.499 -23.999s39 -36.833 50 -62.5s18.5 -54.834 22.5 -87.501s2.33301 -65.667 -5 -99c-12.667 -73.333 -41.667 -136.833 -87 -190.5s-99 -80.5 -161 -80.5c-64 0 -108 31.667 -132 95l-12 -70c0 -1.33301 -0.5 -2.5 -1.5 -3.5
s-2.16699 -1.83301 -3.5 -2.5h-1h-192l-3 5l124 709l4 4h194l4 -1v-3l-23.5 -133l-29.5 -163c50.667 71.333 108.334 107 173.001 107zM258.999 116.001c23.333 0 44.001 12.833 62.001 38.5s30.333 58.167 37 97.5s5.66699 71.666 -3 96.999s-24.667 38 -48 38
c-24 0 -44.833 -12.667 -62.5 -38s-29.834 -57.666 -36.501 -96.999s-5.66699 -71.833 3 -97.5s24.667 -38.5 48 -38.5z" />
    <glyph glyph-name="c" unicode="c" horiz-adv-x="521" 
d="M494 155c3.33301 -3.33301 3.66699 -8.66992 1 -16.0029c-6 -12.667 -15.833 -27.167 -29.5 -43.5s-31.334 -33.666 -53.001 -51.999s-48.334 -33.666 -80.001 -45.999s-64.5 -18.5 -98.5 -18.5c-76 0 -135.667 26.5 -179 79.5s-58.333 117.5 -45 193.5
c12.667 73.333 48.667 136.166 108 188.499s127.666 80.166 204.999 83.499c61.333 0 111.833 -12.167 151.5 -36.5s55.5 -58.833 47.5 -103.5c-4 -25.333 -17.167 -48.333 -39.5 -69s-47.5 -31 -75.5 -31c-15.333 0 -29.833 2 -43.5 6s-21.5 7.66699 -23.5 11
c-0.666992 4.66699 -0.833984 8 -0.500977 10s1.33301 6.5 3 13.5s2.83398 12.833 3.50098 17.5c4 20.667 2.66699 37.334 -4 50.001s-17 19 -31 19c-25.333 0 -47.666 -16.5 -66.999 -49.5s-30.666 -69.5 -33.999 -109.5c-3.33301 -34 0.333984 -62.167 11.001 -84.5
s25.667 -37.5 45 -45.5s41.5 -11.667 66.5 -11s50 4.83398 75 12.501s49.167 17.834 72.5 30.501c6 4 10.667 4.33301 14 1z" />
    <glyph glyph-name="d" unicode="d" horiz-adv-x="607" 
d="M533 202c-6 -38 -7.99805 -67.001 -5.99805 -87.001s6.33301 -32.833 13 -38.5l15.5 -13.5c3.66699 -3.33301 4.16699 -7.66602 1.5 -12.999c-8.66699 -17.333 -26.334 -33.5 -53.001 -48.5s-53.334 -22.5 -80.001 -22.5c-34.667 0 -62.5 10.167 -83.5 30.5
s-31.833 48.166 -32.5 83.499c-52 -76 -111.333 -114 -178 -114c-59.333 0 -101.833 27.333 -127.5 82s-32.167 118.334 -19.5 191.001c12.667 73.333 41.5 136.833 86.5 190.5s98.833 80.5 161.5 80.5c64 0 108 -31.667 132 -95l51 286l6 5h200l3 -4zM240.002 116.999
c23.333 0 43.833 12.6689 61.5 38.002s29.834 57.666 36.501 96.999c7.33301 39.333 6.66602 71.833 -2.00098 97.5s-25 38.5 -49 38.5c-23.333 0 -44 -12.833 -62 -38.5s-30.667 -58.167 -38 -97.5c-6.66699 -38.667 -5.5 -70.834 3.5 -96.501s25.5 -38.5 49.5 -38.5z" />
    <glyph glyph-name="e" unicode="e" horiz-adv-x="540" 
d="M501 155c4 -3.33301 4.33008 -8.66504 0.99707 -15.998c-5.33301 -12 -15.333 -26.333 -30 -43s-33.334 -34.167 -56.001 -52.5s-50.334 -33.666 -83.001 -45.999s-66 -18.5 -100 -18.5c-75.333 0 -134.666 26.5 -177.999 79.5s-58.333 117.5 -45 193.5
c12.667 75.333 50.334 139.5 113.001 192.5s136 79.5 220 79.5c74.667 0 129.167 -18.5 163.5 -55.5s47.833 -76.5 40.5 -118.5c-6.66699 -37.333 -22.5 -68.5 -47.5 -93.5s-53.667 -41.833 -86 -50.5s-67.166 -14.334 -104.499 -17.001s-71.666 -0.333984 -102.999 6.99902
c8 -48.667 40.333 -76.667 97 -84s118.334 6.66699 185.001 42c6 3.33301 10.333 3.66602 13 0.999023zM285.997 401.001c-32.667 -17.333 -57.001 -56.332 -73.001 -116.999c42.667 -4 76.667 1.16699 102 15.5s40.333 35.5 45 63.5
c2.66699 14 -0.166016 25.667 -8.49902 35s-20.166 13.666 -35.499 12.999c-0.666992 -0.666992 -1.33398 -1 -2.00098 -1h-3c-8 -1.33301 -16.333 -4.33301 -25 -9z" />
    <glyph glyph-name="f" unicode="f" horiz-adv-x="409" 
d="M340 555c-1.33301 2.66699 -1 6.00195 1 10.002s4.66699 10.167 8 18.5s6 17.5 8 27.5c5.33301 34.667 -4.33398 52 -29.001 52c-18 0 -31.667 -6.33301 -41 -19s-13.833 -29.167 -13.5 -49.5s1.33301 -37.5 3 -51.5s4.16699 -27.333 7.5 -40h138l3 -5l-15 -84l-5 -5
h-133l-71 -403l-5 -6h-193c-2 0.666992 -3 2.33398 -3 5.00098l71 404h-56l-3 5l15 85l5 4h57c5.33301 43.333 16.666 81.166 33.999 113.499s38.5 57.333 63.5 75s51.167 30.667 78.5 39s56 12.5 86 12.5c57.333 0 100.666 -11.333 129.999 -34s41 -50.334 35 -83.001
c-3.33301 -24.667 -15.166 -45.667 -35.499 -63s-44.166 -26 -71.499 -26c-15.333 0 -30.166 2.16699 -44.499 6.5s-22.5 8.16602 -24.5 11.499z" />
    <glyph glyph-name="g" unicode="g" horiz-adv-x="596" 
d="M550 56c-12.667 -88.667 -47.9971 -160.332 -105.997 -214.999s-132.333 -82 -223 -82c-34 0 -64.5 5.16699 -91.5 15.5s-47.833 23.333 -62.5 39s-25.667 30.334 -33 44.001s-12 26.167 -14 37.5c-2 16 -2.33301 28.167 -1 36.5s3.33301 13.833 6 16.5s6 3.66699 10 3
c4.66699 -0.666992 10.667 -5.16699 18 -13.5l24 -27c8.66699 -9.66699 22.667 -18.334 42 -26.001s41.666 -11.5 66.999 -11.5c38 0 70.833 12.5 98.5 37.5s45.167 53.833 52.5 86.5c10 54.667 15.333 84.334 16 89.001c-48.667 -69.333 -107.334 -104 -176.001 -104
c-30.667 0 -57.334 7.83301 -80.001 23.5s-39.5 36.167 -50.5 61.5s-18.5 54.166 -22.5 86.499s-2.33301 65.166 5 98.499c12.667 73.333 41.667 136.833 87 190.5s99.333 80.5 162 80.5c64.667 0 109 -32.333 133 -97l12 71l5 5h193l3 -5zM287.003 120.002
c23.333 0 43.832 12.333 61.499 37s29.834 56.334 36.501 95.001c6.66699 39.333 5.66699 71.833 -3 97.5s-24.667 38.5 -48 38.5c-24 0 -45 -13 -63 -39s-30.333 -58.333 -37 -97s-5.5 -70.334 3.5 -95.001s25.5 -37 49.5 -37z" />
    <glyph glyph-name="h" unicode="h" horiz-adv-x="601" 
d="M512 204c-6 -38 -7.16602 -66.999 -3.49902 -86.999s9.66699 -33 18 -39s15.333 -10.667 21 -14s7.16699 -7.66602 4.5 -12.999c-9.33301 -16.667 -27.333 -32.5 -54 -47.5s-53.334 -22.5 -80.001 -22.5c-41.333 0 -73.666 13.833 -96.999 41.5s-31 64.5 -23 110.5
l34 194c6.66699 35.333 0 54.666 -20 57.999c-19.333 3.33301 -39.333 -8.33398 -60 -35.001c-16 -21.333 -26.667 -46.666 -32 -75.999l-47 -268l-5 -6h-192l-3 5l121 710l4 4h197l3 -1v-3l-25.5 -145l-27.5 -157c26.667 38 57 66.167 91 84.5s65.667 27.5 95 27.5
c38 0 67.667 -15.333 89 -46s27.666 -70.334 18.999 -119.001z" />
    <glyph glyph-name="i" unicode="i" horiz-adv-x="286" 
d="M191 6l-5.00098 -6h-199c-2.66699 0.666992 -4 2.33398 -4 5.00098c32 152 52 251 60 297c8.66699 53.333 9.16699 88 1.5 104s-16 26.667 -25 32s-12.167 10.666 -9.5 15.999c9.33301 17.333 27.333 33.5 54 48.5s53.334 22.5 80.001 22.5
c41.333 0 72.5 -13.833 93.5 -41.5s27.167 -64.5 18.5 -110.5zM296.999 645c-4.66699 -26 -20 -48 -46 -66s-55 -27 -87 -27s-57.833 9 -77.5 27s-27.167 40 -22.5 66c4.66699 25.333 20 47.166 46 65.499s55 27.5 87 27.5s57.833 -9.16699 77.5 -27.5
s27.167 -40.166 22.5 -65.499z" />
    <glyph glyph-name="j" unicode="j" horiz-adv-x="306" 
d="M316 498c-51.333 -290.667 -78.999 -445.998 -82.999 -465.998c-34 -197.333 -124.667 -296 -272 -296c-56 0 -97.667 12.5 -125 37.5s-38 54.5 -32 88.5c4.66699 25.333 17.667 48.166 39 68.499s45.333 30.5 72 30.5c15.333 0 30.166 -2 44.499 -6
s22.166 -8 23.499 -12c0.666992 -2 0 -5.83301 -2 -11.5l-8.5 -23.5c-3.66699 -10 -6.5 -20 -8.5 -30c-6 -40 2.66699 -60 26 -60c24.667 0 40.667 19 48 57c3.33301 20.667 2.33301 47 -3 79s-5.66602 60.667 -0.999023 86c0 2 0.666992 6.83301 2 14.5l8 46l14 79
l23.5 132l32.5 185.5l5 6h193c2.66699 -0.666992 4 -2.33398 4 -5.00098zM224.001 552.002c-32 0 -57.8301 9 -77.4971 27s-27.167 40 -22.5 66c4.66699 25.333 20 47.166 46 65.499s55 27.5 87 27.5c32.667 0 58.667 -9.16699 78 -27.5s26.666 -40.166 21.999 -65.499
c-4.66699 -26 -19.834 -48 -45.501 -66s-54.834 -27 -87.501 -27z" />
    <glyph glyph-name="k" unicode="k" horiz-adv-x="601" 
d="M543 66c7.33301 -4 10.8281 -8.00293 10.4951 -12.0029s-5.5 -11 -15.5 -21c-15.333 -14 -36.666 -26.667 -63.999 -38s-54 -17 -80 -17c-27.333 0 -51.166 4.5 -71.499 13.5s-36.166 21 -47.499 36s-20.5 31 -27.5 48s-11.333 35.167 -13 54.5
s-2.33398 36.166 -2.00098 50.499s1.5 27.833 3.5 40.5c2 14.667 7 22 15 22c50 0 84.333 18.667 103 56c14 28 14.333 52.333 1 73c-8 12.667 -19.333 19 -34 19c-27.333 0 -49.166 -10.667 -65.499 -32s-27.5 -46 -33.5 -74l-49 -279l-5 -6h-192l-3 5l121 710l5 4h196
l3 -1v-3c-3.33301 -17.333 -10.833 -59.166 -22.5 -125.499l-29.5 -167.5c26 34 55.667 59.667 89 77s66.333 26 99 26c54 0 90.833 -21.5 110.5 -64.5s16.334 -87.833 -9.99902 -134.5s-69.166 -74.667 -128.499 -84l-1 -2c0.666992 -3.33301 1.66699 -7.66602 3 -12.999
s5.33301 -15.666 12 -30.999s14.667 -29.833 24 -43.5s22.833 -28.667 40.5 -45s37.167 -30.166 58.5 -41.499z" />
    <glyph glyph-name="l" unicode="l" horiz-adv-x="295" 
d="M94 714l5.99902 4.99902h200l3 -5c-51.333 -296 -81.333 -467 -90 -513c-6 -38 -7.5 -67 -4.5 -87s8.16699 -32.833 15.5 -38.5s13.5 -10.167 18.5 -13.5s6.16699 -7.66602 3.5 -12.999c-8.66699 -16.667 -27.667 -32.667 -57 -48s-57.666 -23 -84.999 -23
c-41.333 0 -72.5 13.833 -93.5 41.5s-27.167 64.5 -18.5 110.5z" />
    <glyph glyph-name="m" unicode="m" horiz-adv-x="911" 
d="M840 204c-6 -38 -7.16602 -67 -3.49902 -87s9.66699 -33 18 -39s15.166 -10.667 20.499 -14s6.66602 -7.66602 3.99902 -12.999c-9.33301 -16.667 -27.166 -32.5 -53.499 -47.5s-52.833 -22.5 -79.5 -22.5c-41.333 0 -73.833 13.833 -97.5 41.5s-31.5 64.5 -23.5 110.5
l35 194c6 36 -0.666992 55.333 -20 58c-18 2.66699 -36.333 -9.66602 -55 -36.999c-14 -20.667 -23.667 -45.334 -29 -74.001l-3 -18l-36 -250c0 -1.33301 -0.5 -2.5 -1.5 -3.5s-2.16699 -1.83301 -3.5 -2.5h-1h-200l-3 5c20.667 124 35 207.667 43 251
c0.666992 2 5 25.667 13 71c6 36 -0.666992 55.333 -20 58c-18 2.66699 -36.333 -9.66602 -55 -36.999c-14 -21.333 -23.667 -46 -29 -74l-47 -268c0 -1.33301 -0.5 -2.5 -1.5 -3.5s-2.16699 -1.83301 -3.5 -2.5h-1h-200l-3 5c31.333 152 51 251 59 297c6 38 7.5 67 4.5 87
s-8.16699 32.833 -15.5 38.5l-17.5 13.5c-4.33301 3.33301 -5.16602 7.66602 -2.49902 12.999c8.66699 17.333 26.167 33.5 52.5 48.5s52.833 22.5 79.5 22.5c35.333 0 63.5 -10.167 84.5 -30.5s31.833 -48.5 32.5 -84.5c26 39.333 55.333 68.333 88 87s63.667 28 93 28
c32 0 58.5 -10.667 79.5 -32s31.833 -50.333 32.5 -87c26.667 40.667 56.5 70.667 89.5 90s64.5 29 94.5 29c38.667 0 68.667 -15.333 90 -46s27.666 -70.334 18.999 -119.001z" />
    <glyph glyph-name="n" unicode="n" horiz-adv-x="622" 
d="M550 204c-6 -38 -7.16504 -66.999 -3.49805 -86.999s9.83398 -33 18.501 -39s15.667 -10.667 21 -14s6.66602 -7.66602 3.99902 -12.999c-9.33301 -16.667 -27.166 -32.5 -53.499 -47.5s-52.833 -22.5 -79.5 -22.5c-41.333 0 -73.833 13.833 -97.5 41.5
s-31.5 64.5 -23.5 110.5l35 194c6 35.333 -1 54.666 -21 57.999c-19.333 3.33301 -39 -8.33398 -59 -35.001c-16 -21.333 -26.667 -46.666 -32 -75.999l-47 -268c0 -1.33301 -0.5 -2.5 -1.5 -3.5l-2.5 -2.5h-2h-200l-3 5c32 152 52 251 60 297c6 38 7.5 67 4.5 87
s-8.16699 32.833 -15.5 38.5l-18 13.5c-4.66699 3.33301 -5.66699 7.66602 -3 12.999c8.66699 17.333 26.167 33.5 52.5 48.5s52.833 22.5 79.5 22.5c35.333 0 63.666 -10.5 84.999 -31.5s32 -49.5 32 -85.5c27.333 40 58.166 69.5 92.499 88.5s66.5 28.5 96.5 28.5
c38.667 0 68.667 -15.333 90 -46s27.666 -70.334 18.999 -119.001c-2 -13.333 -6 -36.166 -12 -68.499z" />
    <glyph glyph-name="o" unicode="o" horiz-adv-x="580" 
d="M570 249c-14 -76.667 -51.999 -141.167 -113.999 -193.5s-133.333 -78.5 -214 -78.5c-80 0 -142 26.333 -186 79s-59.333 117 -46 193s51.166 140.333 113.499 193s133.5 79 213.5 79s142.167 -26.333 186.5 -79s59.833 -117 46.5 -193zM207.001 249
c-9.33301 -42 -9.50195 -78.998 -0.501953 -110.998s27.167 -48 54.5 -48c28.667 0 52.334 14.667 71.001 44s32.334 67.666 41.001 114.999c8 46 7.66699 84 -1 114s-26.667 45 -54 45c-28 0 -51.5 -14.833 -70.5 -44.5s-32.5 -67.834 -40.5 -114.501z" />
    <glyph glyph-name="p" unicode="p" horiz-adv-x="616" 
d="M476 525c30.667 0 57.165 -7.99902 79.498 -23.999s39 -36.833 50 -62.5s18.5 -54.834 22.5 -87.501s2.33301 -65.667 -5 -99c-12.667 -73.333 -41.667 -136.833 -87 -190.5s-99 -80.5 -161 -80.5c-64 0 -108 31.667 -132 95l-51 -290c0 -1.33301 -0.5 -2.5 -1.5 -3.5
l-2.5 -2.5h-2h-199l-3 5l89 517c6 38 8 67 6 87s-6.16699 32.833 -12.5 38.5l-15.5 13.5c-4 3.33301 -4.66699 7.66602 -2 12.999c8.66699 17.333 26.334 33.5 53.001 48.5s53.334 22.5 80.001 22.5c34.667 0 62.5 -10.167 83.5 -30.5s31.833 -48.166 32.5 -83.499
c52.667 76 112 114 178 114zM318.998 116.001c23.333 0 44.001 12.833 62.001 38.5s30.333 58.167 37 97.5s5.66699 71.666 -3 96.999s-24.667 38 -48 38c-24 0 -44.833 -12.667 -62.5 -38s-29.834 -57.666 -36.501 -96.999s-5.66699 -71.833 3 -97.5s24.667 -38.5 48 -38.5
z" />
    <glyph glyph-name="q" unicode="q" horiz-adv-x="584" 
d="M622 503c0 -2 1 -3.33398 3 -4.00098l-126 -713l-5 -5h-193l-3 5c13.333 81.333 30.333 179.666 51 294.999c-48.667 -67.333 -107 -101 -175 -101c-30.667 0 -57.167 7.83301 -79.5 23.5s-39 36.334 -50 62.001s-18.5 54.834 -22.5 87.501s-2.33301 66 5 100
c12.667 73.333 41.667 136.833 87 190.5s99 80.5 161 80.5c66 0 111 -34.333 135 -103c3.33301 20 8 46 14 78l4 4h194zM283 116.999c23.333 0 44.001 12.833 62.001 38.5s30.333 58.167 37 97.5s5.66699 71.666 -3 96.999s-24.667 38 -48 38
c-24 0 -44.833 -12.667 -62.5 -38s-29.834 -57.666 -36.501 -96.999s-5.66699 -71.833 3 -97.5s24.667 -38.5 48 -38.5z" />
    <glyph glyph-name="r" unicode="r" horiz-adv-x="483" 
d="M423 524c32.667 0 57.4951 -9.83203 74.4951 -29.499s22.5 -47.167 16.5 -82.5c-7.33301 -40 -25 -71.5 -53 -94.5s-59.667 -34.5 -95 -34.5c-10.667 0 -20.667 2.33301 -30 7s-14.666 9 -15.999 13c-1.33301 4.66699 -2 7.66699 -2 9s0.833008 5 2.5 11
s2.83398 11.333 3.50098 16c6 29.333 1.66699 44 -13 44c-22.667 0 -40.667 -37.667 -54 -113l-47 -265l-5 -5h-201l-3 5c32 151.333 52 250 60 296c6 38 7.5 67 4.5 87s-8.16699 32.833 -15.5 38.5l-18 13.5c-4.66699 3.33301 -5.66699 7.66602 -3 12.999
c9.33301 17.333 27.333 33.5 54 48.5s53.334 22.5 80.001 22.5c34 0 61.333 -9.66699 82 -29s31.334 -46 32.001 -80c19.333 32.667 42.333 59 69 79s52.334 30 77.001 30z" />
    <glyph glyph-name="s" unicode="s" horiz-adv-x="513" 
d="M346 294c104 -31.333 149.669 -82.667 137.002 -154c-6.66699 -38 -26.334 -69.833 -59.001 -95.5s-68.334 -43.334 -107.001 -53.001s-79 -14.5 -121 -14.5c-34 0 -67 3.66699 -99 11s-60 21.333 -84 42s-33.333 46.334 -28 77.001
c4.66699 25.333 17.5 46.833 38.5 64.5s45.5 26.5 73.5 26.5c16.667 0 32.5 -1.83301 47.5 -5.5s23.167 -7.5 24.5 -11.5c1.33301 -5.33301 1.83301 -8.83301 1.5 -10.5s-1.33301 -6.16699 -3 -13.5s-2.83398 -13 -3.50098 -17c-3.33301 -19.333 -0.5 -34.333 8.5 -45
s22.167 -16 39.5 -16c34.667 0 55.334 15 62.001 45c0.666992 6.66699 0.333984 12.834 -0.999023 18.501s-4.5 10.667 -9.5 15s-10 8.16602 -15 11.499s-12 6.83301 -21 10.5s-17 6.66699 -24 9s-16.5 5.33301 -28.5 9s-21.667 6.83398 -29 9.50098
c-36 13.333 -64.667 32.666 -86 57.999s-29.333 56.333 -24 93c0.666992 0.666992 1 1.66699 1 3c8.66699 48.667 39.167 88 91.5 118s106.5 45 162.5 45c40.667 0 77.5 -4.5 110.5 -13.5s59.5 -23.667 79.5 -44s27.667 -44.5 23 -72.5
c-4 -24.667 -16.333 -45.334 -37 -62.001s-46 -25 -76 -25c-16.667 0 -31.834 2 -45.501 6s-21.167 8 -22.5 12c-1.33301 2 0.666992 15.667 6 41c3.33301 20 1.66602 34.667 -5.00098 44s-18.667 13.666 -36 12.999c-14.667 -0.666992 -27 -6 -37 -16s-16 -20.333 -18 -31
v0c-2 -10.667 -0.666992 -20.167 4 -28.5s11.334 -15.166 20.001 -20.499s19.667 -10.5 33 -15.5s27 -9.5 41 -13.5c6.66699 -1.33301 11.667 -2.66602 15 -3.99902z" />
    <glyph glyph-name="t" unicode="t" horiz-adv-x="380" 
d="M327 90c8.66699 0 13.6631 -2.66406 14.9961 -7.99707s-0.666992 -11.333 -6 -18c-18 -26.667 -45 -48.5 -81 -65.5s-72.333 -25.5 -109 -25.5c-34.667 1.33301 -63 9 -85 23c-40.667 27.333 -55.667 72 -45 134c2.66699 13.333 9.83398 53.666 21.501 120.999
s21.167 120 28.5 158h-51c-2.66699 0 -4 1.66699 -4 5l15 85l5 4h51l14 76l5 5l206 79l3 -5c-7.33301 -46.667 -16 -98.334 -26 -155.001h122l2 -5l-15 -84l-4 -5h-121l-22 -122c-8.66699 -48.667 -13.667 -77.334 -15 -86.001c-0.666992 -4 -1.66699 -9.33301 -3 -16v0
c-1.33301 -8 -2.66602 -18.667 -3.99902 -32c0 -12.667 1.66699 -23.5 5 -32.5s7.33301 -15.667 12 -20s11.334 -7.5 20.001 -9.5s15.834 -3 21.501 -3s13.5 0.333008 23.5 1s17 1 21 1z" />
    <glyph glyph-name="u" unicode="u" 
d="M551 201c-6 -38 -7.50098 -67.002 -4.50098 -87.002s8.16699 -32.833 15.5 -38.5l18 -13.5c4.66699 -3.33301 5.66699 -7.66602 3 -12.999c-9.33301 -17.333 -27.166 -33.5 -53.499 -48.5s-52.833 -22.5 -79.5 -22.5c-34.667 0 -62.5 10.167 -83.5 30.5
s-31.833 48.5 -32.5 84.5c-26.667 -39.333 -56.167 -68.333 -88.5 -87s-63.5 -28 -93.5 -28c-38 0 -67.667 15.333 -89 46s-27.666 70.334 -18.999 119.001l27 156c6 38 7.16699 67 3.5 87s-9.66699 32.833 -18 38.5s-15.333 10.167 -21 13.5s-7.16699 7.66602 -4.5 12.999
c9.33301 17.333 27.166 33.5 53.499 48.5s52.833 22.5 79.5 22.5c42 0 74.833 -13.833 98.5 -41.5s31.5 -64.5 23.5 -110.5l-35 -194c-6 -36 0.333008 -55.333 19 -58c18 -2.66699 36.333 9.33301 55 36c13.333 18.667 23 41.334 29 68.001l48 275l5 6h201l3 -5
c-32 -152 -52 -251 -60 -297z" />
    <glyph glyph-name="v" unicode="v" horiz-adv-x="548" 
d="M433 525c43.333 0 76.3301 -18.665 98.9971 -55.998s27 -96 13 -176c-4 -21.333 -10 -44 -18 -68s-20.667 -51.167 -38 -81.5s-37.5 -57.333 -60.5 -81s-52.833 -43.667 -89.5 -60s-77 -24.5 -121 -24.5h-6c-65.333 0 -118.333 18.833 -159 56.5s-55 92.834 -43 165.501
h1l1 1l52 297l5 5h193l3 -6l-55 -308c-6 -32.667 -7.33301 -56.834 -4 -72.501s13 -23.5 29 -23.5v0c23.333 0 45.833 13.167 67.5 39.5s37.167 65.833 46.5 118.5c8.66699 61.333 8.83398 103.666 0.500977 126.999s-19.166 41.166 -32.499 53.499
s-19.666 19.833 -18.999 22.5c2.66699 12.667 17.667 27.667 45 45s57.333 26 90 26z" />
    <glyph glyph-name="w" unicode="w" horiz-adv-x="860" 
d="M745 525c43.333 0 76.3311 -18.666 98.998 -55.999s27 -96 13 -176c-4 -21.333 -10 -44 -18 -68s-20.667 -51.167 -38 -81.5s-37.5 -57.333 -60.5 -81s-52.833 -43.667 -89.5 -60s-77 -24.5 -121 -24.5h-6c-80 0 -138.333 24.667 -175 74
c-45.333 -49.333 -102 -74 -170 -74c-50.667 0 -92 16.333 -124 49s-48.333 75.334 -49 128.001c0 14.667 1.33301 28.667 4 42v3c0.666992 0.666992 1 1.33398 1 2.00098l52 296l5 5h195l4 -6l-57 -323c-7.33301 -54 6 -81 40 -81c14.667 0 28.667 8 42 24
s22.666 40 27.999 72l1 -1c0 1.33301 0.166992 3.33301 0.5 6s0.5 4.66699 0.5 6h1l1 1l52 297l5 5h193l3 -6l-55 -308c-6 -32.667 -7.33301 -56.834 -4 -72.501s13 -23.5 29 -23.5v0c23.333 0 45.833 13.167 67.5 39.5s37.167 65.833 46.5 118.5
c8.66699 61.333 8.83398 103.666 0.500977 126.999s-19.166 41.166 -32.499 53.499s-19.666 19.833 -18.999 22.5c2.66699 12.667 17.667 27.667 45 45s57.333 26 90 26z" />
    <glyph glyph-name="x" unicode="x" horiz-adv-x="580" 
d="M405 248l127.999 -242.003c1.33301 -4 0 -6 -4 -6h-221c-4 0 -6.66699 1.66699 -8 5l-81 173c-16.667 -4 -28.5 -11 -35.5 -21s-9.5 -20.667 -7.5 -32s5.33301 -22.333 10 -33s9.33398 -20.167 14.001 -28.5s7 -13.166 7 -14.499
c-2.66699 -17.333 -15.834 -33.5 -39.501 -48.5s-49.167 -22.5 -76.5 -22.5c-39.333 0 -69.166 10.833 -89.499 32.5s-28.166 49.834 -23.499 84.501c12 86.667 78 143.334 198 170.001l-122 233c-1.33301 3.33301 0 5 4 5h217c3.33301 0 5.66602 -1.66699 6.99902 -5
l82 -170c19.333 5.33301 31.333 14.666 36 27.999s4.16699 26.333 -1.5 39s-11.834 24.834 -18.501 36.501s-10 17.834 -10 18.501c2.66699 16.667 15.834 32.5 39.501 47.5s49.167 22.5 76.5 22.5c39.333 0 69.333 -11.833 90 -35.5s28 -52.834 22 -87.501
c-6.66699 -36 -28 -67.167 -64 -93.5s-79 -44.833 -129 -55.5z" />
    <glyph glyph-name="y" unicode="y" horiz-adv-x="595" 
d="M550 71c-12.667 -88.667 -47.9971 -160.33 -105.997 -214.997s-132 -82 -222 -82c-34 0 -64.5 5.16699 -91.5 15.5s-47.833 23.166 -62.5 38.499s-25.834 30 -33.501 44s-12.167 26.667 -13.5 38c-2.66699 16 -3.33398 28.167 -2.00098 36.5s3.33301 13.833 6 16.5
s6 3.66699 10 3c4.66699 -0.666992 10.834 -5.33398 18.501 -14.001l24 -27.5c8.33301 -9.66699 22.166 -18.5 41.499 -26.5s41.666 -12 66.999 -12c38.667 0 71.5 11.167 98.5 33.5s43.833 49.166 50.5 80.499l18 100c-26 -40 -55.333 -69.333 -88 -88s-64 -28 -94 -28
c-38 0 -67.667 15.333 -89 46s-27.666 70.334 -18.999 119.001l26 150c6 38 7.16699 67 3.5 87s-9.66699 32.833 -18 38.5s-15.333 10.167 -21 13.5s-7.16699 7.66602 -4.5 12.999c9.33301 17.333 27.166 33.5 53.499 48.5s52.833 22.5 79.5 22.5
c42 0 74.667 -13.833 98 -41.5s31 -64.5 23 -110.5l-34 -188c-6 -36.667 0.666992 -56 20 -58c18.667 -2.66699 37.667 10 57 38c14 20 23.667 44 29 72l46 263l5 5h193l3 -5z" />
    <glyph glyph-name="z" unicode="z" horiz-adv-x="496" 
d="M471 127c-3.33301 -56.667 -26.335 -97.1719 -69.002 -121.505s-89.667 -32.5 -141 -24.5c-92 12.667 -186.667 19 -284 19l-3 4c3.33301 48.667 9 86.667 17 114c9.33301 32.667 40.333 68.5 93 107.5s106 72.167 160 99.5c16.667 8 45.667 20 87 36
c-104.667 6.66699 -205 0.666992 -301 -18l-5 4c-0.666992 0.666992 -1.33398 4.83398 -2.00098 12.501s-0.166992 17.834 1.5 30.501s4.66699 25.834 9 39.501s12.666 27.667 24.999 42s27.5 25.833 45.5 34.5c20.667 10.667 43.834 16.834 69.501 18.501
s51.334 0.5 77.001 -3.5s64.167 -8.5 115.5 -13.5s104 -7.5 158 -7.5c3.33301 0 5 -1.33301 5 -4c-1.33301 -8 -3.16602 -20.333 -5.49902 -37s-4.66602 -31.5 -6.99902 -44.5s-5.5 -25.167 -9.5 -36.5c-10 -30.667 -35.5 -62.5 -76.5 -95.5s-90.5 -64.167 -148.5 -93.5
c-52.667 -26.667 -87.334 -43.667 -104.001 -51h106c30 0 56.333 1.5 79 4.5s38.834 6.33301 48.501 10s18.5 7.33398 26.5 11.001s12.167 6.16699 12.5 7.5s2.83301 1 7.5 -1c10 -10 14.333 -24.333 13 -43z" />
    <glyph glyph-name="braceleft" unicode="{" horiz-adv-x="212" 
d="M120 -151c5.33301 -6.66699 7.66992 -10.999 7.00293 -12.999c-1.33301 -5.33301 -8 -8.33301 -20 -9c-53.333 -2 -89.333 16 -108 54s-19.334 93.333 -2.00098 166c2 6.66699 3 11.667 3 15c14 52 21.667 98.167 23 138.5s-2.66699 63.5 -12 69.5
c-4.66699 5.33301 -6.83398 9.33301 -6.50098 12s4.16602 7 11.499 13c12.667 10 25 34.333 37 73s20 83.667 24 135l2 15c8.66699 73.333 29.167 128.833 61.5 166.5s74.833 55.5 127.5 53.5c6 0 10.333 -0.833008 13 -2.5s3.66699 -3.83398 3 -6.50098
c0.666992 -2 -3 -6.33301 -11 -13c-12.667 -10 -24.5 -30.667 -35.5 -62s-18.5 -72 -22.5 -122l-1 -15c-6.66699 -58 -21.334 -108.5 -44.001 -151.5s-50.667 -70.5 -84 -82.5c28.667 -12 46.834 -40 54.501 -84s4.5 -94 -9.5 -150c-1.33301 -6.66699 -2.33301 -12 -3 -16
c-27.333 -100 -30 -161.333 -8 -184z" />
    <glyph glyph-name="bar" unicode="|" horiz-adv-x="158" 
d="M44 -171c-0.666992 -2.66699 -1.66699 -4 -3 -4h-87l-4 1v3l161 910l5 5h86l3 -5z" />
    <glyph glyph-name="braceright" unicode="}" horiz-adv-x="232" 
d="M-51 -151c30.667 24 49.665 85.332 56.998 183.999l1 16c6.66699 58 21.5 108.5 44.5 151.5s51.167 70.5 84.5 82.5c-29.333 12 -47.833 40 -55.5 84s-4.5 94 9.5 150c2 6.66699 3 11.667 3 15c27.333 100 30 161.333 8 184c-5.33301 6.66699 -7.66602 11 -6.99902 13
c1.33301 6 8 9 20 9c54 2 90.333 -15.833 109 -53.5s19.334 -93.167 2.00098 -166.5c-2 -6.66699 -3.33301 -11.667 -4 -15c-14 -51.333 -21.667 -97.166 -23 -137.499s2.66699 -63.833 12 -70.5c4.66699 -6 6.83398 -10.333 6.50098 -13s-4.16602 -6.66699 -11.499 -12
c-12.667 -8.66699 -24.834 -32.5 -36.501 -71.5s-19.834 -84.5 -24.501 -136.5l-2 -15c-8.66699 -72.667 -29.167 -128 -61.5 -166s-74.5 -56 -126.5 -54c-6 0.666992 -10.333 1.66699 -13 3s-3.66699 3.33301 -3 6c-0.666992 2 3 6.33301 11 13z" />
    <glyph glyph-name="asciitilde" unicode="~" horiz-adv-x="596" 
d="M494 332c20 4.66699 37.9961 -2.66504 53.9961 -21.998s19 -43 9 -71c-11.333 -28 -31 -49.833 -59 -65.5s-63.667 -17.834 -107 -6.50098c-15.333 4 -33.166 12.167 -53.499 24.5s-37.166 23 -50.499 32s-30.666 16 -51.999 21s-41.333 2.16699 -60 -8.5
c-12.667 -6 -24.5 -13.667 -35.5 -23s-19.333 -17.5 -25 -24.5s-9.16699 -10.833 -10.5 -11.5c-22 -5.33301 -41.5 1.66699 -58.5 21s-20.167 43 -9.5 71c10.667 29.333 31.834 51.666 63.501 66.999s67.5 16.666 107.5 3.99902c14.667 -4.66699 32.167 -13 52.5 -25
l50.5 -29c13.333 -7.33301 31 -13.5 53 -18.5s41.667 -3.16699 59 5.5c13.333 4.66699 25.333 11.834 36 21.501s19 18.167 25 25.5s9.66699 11.333 11 12z" />
    <glyph glyph-name="exclamdown" unicode="&#xa1;" horiz-adv-x="266" 
d="M72 433c5.33301 27.333 19.166 50.666 41.499 69.999s46.833 29 73.5 29c27.333 0 48.833 -9.66699 64.5 -29s21.167 -42.666 16.5 -69.999c-5.33301 -27.333 -19.166 -50.5 -41.499 -69.5s-46.833 -28.5 -73.5 -28.5c-27.333 0 -48.833 9.66699 -64.5 29
s-21.167 42.333 -16.5 69zM-30 -85c6 34.667 14.8359 72.499 26.5029 113.499s25.167 82 40.5 123s33 75 53 102s39.667 40.5 59 40.5c11.333 0 20.666 -5.5 27.999 -16.5s12.333 -26 15 -45s4.33398 -39.333 5.00098 -61s0 -44.834 -2 -69.501s-4 -46.167 -6 -64.5
s-4.33301 -35.833 -7 -52.5c-5.33301 -38 -6.33301 -66.833 -3 -86.5s8.5 -32.5 15.5 -38.5s12.667 -10.667 17 -14s5.16602 -7.66602 2.49902 -12.999c-8.66699 -16.667 -26.334 -32.667 -53.001 -48s-53.334 -23 -80.001 -23c-41.333 0 -72.333 13.833 -93 41.5
s-26.667 64.834 -18 111.501z" />
    <glyph glyph-name="cent" unicode="&#xa2;" horiz-adv-x="423" 
d="M400 174c3.33301 -3.33301 3.6709 -7.66504 1.00391 -12.998c-10.667 -22.667 -32.834 -48.167 -66.501 -76.5s-73.167 -45.166 -118.5 -50.499l-6 -66l-5 -5h-67l-3 6c6.66699 22.667 12.667 45 18 67c-50 9.33301 -88.5 34.166 -115.5 74.499s-36.167 87.5 -27.5 141.5
c9.33301 53.333 34.666 100.166 75.999 140.499s89.333 65.166 144 74.499l4 62l5 4h67l4 -5c-6.66699 -17.333 -12.334 -36.666 -17.001 -57.999c42.667 -4.66699 77 -16.667 103 -36s36.333 -45 31 -77c-4 -21.333 -14 -39.5 -30 -54.5s-38 -23.5 -66 -25.5
c-12.667 -0.666992 -24.5 0.833008 -35.5 4.5s-17.5 7.16699 -19.5 10.5c-1.33301 4 0.666992 15 6 33c8 28 0.666992 43.333 -22 46c-38 3.33301 -64.667 -36.334 -80 -119.001c-8 -45.333 -2.33301 -78.333 17 -99s46.166 -28.5 80.499 -23.5s71.5 19.5 111.5 43.5
c6 2.66699 9.66699 3 11 1z" />
    <glyph glyph-name="sterling" unicode="&#xa3;" horiz-adv-x="488" 
d="M446 152l-25.998 -147.001c-0.666992 -2.66699 -2.66699 -4 -6 -4h-429l-5 4l25 146c0.666992 2 2 3.33301 4 4v1c29.333 11.333 51.666 25.666 66.999 42.999c-10 -0.666992 -20.333 -1.5 -31 -2.5s-19.834 -2 -27.501 -3s-12.5 -1.5 -14.5 -1.5l-3 4l10 68
c0 2 1.33301 3 4 3c6 0.666992 29.667 -0.333008 71 -3l-17 17c-8.66699 8.66699 -15.167 15.834 -19.5 21.501s-8 14.5 -11 26.5s-3.16699 25.333 -0.5 40c6.66699 38 24.834 69.167 54.501 93.5s62 40.666 97 48.999s73.167 12.5 114.5 12.5
c23.333 0 46.666 -2.16699 69.999 -6.5s45.833 -11.333 67.5 -21s38.167 -23.5 49.5 -41.5s15 -38.667 11 -62c-4.66699 -24.667 -17.5 -46 -38.5 -64s-45.5 -27 -73.5 -27c-16 0 -31.167 2 -45.5 6s-22.166 8 -23.499 12c-1.33301 2.66699 0.666992 16.334 6 41.001
c10 42 -2.33301 63 -37 63c-22 0 -38 -10.333 -48 -31c-10.667 -21.333 -7.33398 -63.333 9.99902 -126l94 8l4 -4l-10 -67c-0.666992 -3.33301 -2.66699 -5 -6 -5c-30 2.66699 -64 4.33398 -102 5.00098c-16 -20 -44.667 -36.333 -86 -49c68 0.666992 167.333 1 298 1z" />
    <glyph glyph-name="section" unicode="&#xa7;" horiz-adv-x="500" 
d="M394 143c37.333 -28.667 53.3369 -64.3311 48.0039 -106.998v-10c-8.66699 -48 -38.667 -86.667 -90 -116s-104.333 -44 -159 -44c-38.667 0 -74 4.5 -106 13.5s-57.5 23.333 -76.5 43s-26.167 43.167 -21.5 70.5c3.33301 24.667 14.666 45.167 33.999 61.5
s44 24.5 74 24.5c15.333 0 30 -2 44 -6s21.667 -8 23 -12c0.666992 -4.66699 0.833984 -8 0.500977 -10s-1.33301 -6.33301 -3 -13s-2.83398 -12.334 -3.50098 -17.001c-3.33301 -19.333 -1.83301 -33.666 4.5 -42.999s18.166 -13.666 35.499 -12.999
c14 0.666992 25.833 6 35.5 16s15.5 20.333 17.5 31h-1c4 24.667 -11 44 -45 58c-9.33301 4 -31 11.333 -65 22c-70.667 21.333 -113.334 51 -128.001 89c-7.33301 18 -9.33301 35 -6 51c0 2 0.333008 3.33301 1 4c0 2.66699 0.333008 4.66699 1 6
c9.33301 51.333 41.666 91 96.999 119c-37.333 29.333 -53.666 65.333 -48.999 108c0 0.666992 0.166992 2.16699 0.5 4.5s0.5 4.16602 0.5 5.49902c8.66699 48 38.5 86.667 89.5 116s103.833 44 158.5 44c39.333 0 75 -4.5 107 -13.5s57.667 -23.333 77 -43
s26.666 -43.167 21.999 -70.5c-3.33301 -24.667 -15 -45.167 -35 -61.5s-44.667 -24.5 -74 -24.5c-15.333 0 -30 2 -44 6s-21.667 8 -23 12c-0.666992 4.66699 -0.833984 8 -0.500977 10s1.33301 6.33301 3 13s2.83398 12.334 3.50098 17.001
c3.33301 19.333 1.66602 33.666 -5.00098 42.999s-18.334 13.666 -35.001 12.999c-14 -0.666992 -25.833 -6 -35.5 -16s-15.5 -20.333 -17.5 -31v0c-3.33301 -20 2.83398 -34.833 18.501 -44.5s42.5 -20.167 80.5 -31.5c5.33301 -2 9.33301 -3.33301 12 -4
c70 -20.667 112.667 -50.334 128 -89.001c7.33301 -18 9.33301 -35 6 -51c0 -2 -0.333008 -3.66699 -1 -5c0 -2 -0.333008 -3.66699 -1 -5c-9.33301 -51.333 -41.666 -91.333 -96.999 -120zM290.004 191.003c11.333 3.33301 21.332 12.667 29.999 28
s8.33398 30.333 -0.999023 45c-4 7.33301 -11.333 13 -22 17l-27 10l-24 9l-26 10l-2 1l-6 2c-7.33301 -2 -14.5 -7.33301 -21.5 -16s-11.333 -19 -13 -31s2.83301 -23.667 13.5 -35v1c3.33301 -4.66699 8.33301 -8 15 -10l60 -22z" />
    <glyph glyph-name="dieresis" unicode="&#xa8;" horiz-adv-x="441" 
d="M204 638c-4.66699 -24 -18.332 -44.333 -40.999 -61s-47.667 -25 -75 -25s-49 8.33301 -65 25s-22 37 -18 61s17.167 44.333 39.5 61s47.166 25 74.499 25s49.333 -8.33301 66 -25s23 -37 19 -61zM436.002 638c-4.66699 -24 -18.168 -44.333 -40.501 -61
s-47.166 -25 -74.499 -25s-49.166 8.33301 -65.499 25s-22.166 37 -17.499 61c4 24 17.167 44.333 39.5 61s47.166 25 74.499 25s49.166 -8.33301 65.499 -25s22.5 -37 18.5 -61z" />
    <glyph glyph-name="copyright" unicode="&#xa9;" horiz-adv-x="725" 
d="M503 184c4.66699 2.66699 7.99902 3.00098 9.99902 1.00098s2.33301 -5.66699 1 -11c-10.667 -22.667 -32.5 -46.667 -65.5 -72s-71.5 -38 -115.5 -38c-52 0 -93.167 18.333 -123.5 55s-40.833 81 -31.5 133c9.33301 50 34.666 93.167 75.999 129.5s88 55.833 140 58.5
c42 0 77.333 -8.66699 106 -26s40.334 -41.333 35.001 -72c-3.33301 -18 -11.833 -33.5 -25.5 -46.5s-32.5 -20.167 -56.5 -21.5c-10.667 -0.666992 -20.834 0.5 -30.501 3.5s-15.167 5.83301 -16.5 8.5c-1.33301 4 0.333984 13.333 5.00098 28
c3.33301 14 3.33301 26.167 0 36.5s-8.33301 15.833 -15 16.5c-19.333 2 -36 -9 -50 -33s-23.667 -51.333 -29 -82c-6.66699 -38.667 -1.16699 -66.834 16.5 -84.501s41.834 -24.5 72.501 -20.5s63 16.333 97 37zM417.999 578.001c89.333 0 160.166 -31.833 212.499 -95.5
s70.833 -140.167 55.5 -229.5c-16 -89.333 -61.5 -165.833 -136.5 -229.5s-157.167 -95.5 -246.5 -95.5s-160.166 31.833 -212.499 95.5s-70.5 140.167 -54.5 229.5c15.333 89.333 60.5 165.833 135.5 229.5s157.167 95.5 246.5 95.5zM313.999 -8.99902
c72 0 138.331 25.5 198.998 76.5s97.334 112.833 110.001 185.5c12.667 72 -2.16602 133.667 -44.499 185s-99.5 77 -171.5 77c-72.667 0 -139 -25.667 -199 -77s-96.333 -113 -109 -185c-13.333 -72.667 1 -134.5 43 -185.5s99.333 -76.5 172 -76.5z" />
    <glyph glyph-name="guillemotleft" unicode="&#xab;" horiz-adv-x="421" 
d="M367 68c1.33301 -8.66699 -0.669922 -15.001 -6.00293 -19.001s-12 -3 -20 3l-28 29l-29 31.5l-28 30.5c-9.33301 10 -17.666 19.333 -24.999 28l-20 23l-14 16l-5 6c-7.33301 10.667 -10.333 18.834 -9 24.501s7.33301 13.834 18 24.501
c1.33301 1.33301 12.333 10.666 33 27.999l82.5 67c34.333 27.333 64.833 50.333 91.5 69c8.66699 6 15.334 7.33301 20.001 4s4.33398 -10 -0.999023 -20l-87 -172c0.666992 -2 2.66699 -14.167 6 -36.5l11 -73.5c4 -26.667 7.33301 -47.667 10 -63zM193.997 67.999
c1.33301 -8.66699 -0.669922 -15.001 -6.00293 -19.001s-12 -3 -20 3l-28 29l-29 31.5l-27.5 30.5l-25 28l-20.5 23l-14 16l-5 6c-7.33301 10.667 -10.333 18.834 -9 24.501s7.33301 13.834 18 24.501c1.33301 1.33301 12.333 10.666 33 27.999l82.5 67
c34.333 27.333 64.833 50.333 91.5 69c8.66699 6 15.334 7.33301 20.001 4s4.33398 -10 -0.999023 -20l-31 -62l-37 -73c-11.333 -22.667 -17.666 -35 -18.999 -37c0.666992 -2 2.66699 -14.167 6 -36.5l11 -73.5c4 -26.667 7.33301 -47.667 10 -63z" />
    <glyph glyph-name="registered" unicode="&#xae;" horiz-adv-x="444" 
d="M320 331c5.33301 -4.66699 4.66602 -9.66797 -2.00098 -15.001c-16.667 -15.333 -35 -23 -55 -23c-12.667 0 -23.167 2.5 -31.5 7.5s-14.166 12.167 -17.499 21.5s-5.5 17.5 -6.5 24.5s-1.5 15.5 -1.5 25.5l1 14l-12 1c-1.33301 -6.66699 -3.66602 -19 -6.99902 -37
s-6 -33 -8 -45l-2 -3h-81c-1.33301 0.666992 -2 1.66699 -2 3c23.333 132.667 35.666 202.334 36.999 209.001l1 2c38 6 75.667 9 113 9c28.667 0 53.167 -6 73.5 -18s28.5 -29.333 24.5 -52c-5.33301 -27.333 -27 -48 -65 -62c10 -29.333 23.667 -50 41 -62zM256 451.999
c4 18.667 -3.66895 28 -23.002 28c-5.33301 0 -12.666 -0.666992 -21.999 -2c-1.33301 -6.66699 -4.66602 -25 -9.99902 -55h19c20.667 0 32.667 9.66699 36 29zM258.998 620.999c58.667 0 105.002 -20.667 139.002 -62s46 -91.333 36 -150
c-10.667 -58.667 -40.334 -108.667 -89.001 -150s-102.334 -62 -161.001 -62s-104.834 20.667 -138.501 62s-45.5 91.333 -35.5 150s39.333 108.667 88 150s102.334 62 161.001 62zM191 237.999c47.333 0 90.6689 16.8311 130.002 50.498s63.333 73.834 72 120.501
c8 47.333 -1.83301 87.666 -29.5 120.999s-64.834 50 -111.501 50c-47.333 0 -90.666 -16.667 -129.999 -50s-63 -73.666 -71 -120.999c-8.66699 -47.333 0.666016 -87.666 27.999 -120.999s64.666 -50 111.999 -50z" />
    <glyph glyph-name="degree" unicode="&#xb0;" horiz-adv-x="324" 
d="M135 431c-42 0 -75.168 14.833 -99.501 44.5s-32.833 65.5 -25.5 107.5c6.66699 42 27.5 77.833 62.5 107.5s73.5 44.5 115.5 44.5s75.333 -14.833 100 -44.5s33.334 -65.5 26.001 -107.5s-28.5 -77.833 -63.5 -107.5s-73.5 -44.5 -115.5 -44.5zM171.999 641
c-16 0 -30.6689 -5.66699 -44.002 -17s-21.333 -25 -24 -41s0.5 -29.5 9.5 -40.5s21.5 -16.5 37.5 -16.5s30.833 5.5 44.5 16.5s21.834 24.5 24.501 40.5s-0.666016 29.667 -9.99902 41s-22 17 -38 17z" />
    <glyph glyph-name="acute" unicode="&#xb4;" horiz-adv-x="274" 
d="M277 735c-60 -87.333 -142.335 -148.334 -247.002 -183.001c-4.66699 -1.33301 -7.33398 -1.66602 -8.00098 -0.999023c-12 10.667 -22.667 27 -32 49c-1.33301 2 -0.666016 4.33301 2.00098 7c42.667 36 75.834 69.167 99.501 99.5s44.834 68.166 63.501 113.499
c1.33301 2.66699 3.33301 3.33398 6 2.00098c50.667 -12.667 89 -39 115 -79c2.66699 -2 3 -4.66699 1 -8z" />
    <glyph glyph-name="paragraph" unicode="&#xb6;" horiz-adv-x="676" 
d="M718 701c0 -1.33301 -11.667 -68 -35 -200l-75 -425c-26.667 -151.333 -40.334 -228.333 -41.001 -231l-4 -5h-114c-2.66699 0 -4 1.33301 -4 4l135 769l-3 5h-52c-2.66699 0 -4.33398 -1.33301 -5.00098 -4c-89.333 -508 -134.333 -764 -135 -768l-5 -4h-115l-3 1v3
c0 0.666992 3.33301 20.5 10 59.5l27 153.5l33 188c-32 -2 -63.333 -2.16699 -94 -0.5s-59.167 8.83398 -85.5 21.501s-48.666 28.5 -66.999 47.5s-31.166 44.667 -38.499 77s-7.33301 69.166 0 110.499c14.667 80 54 138.833 118 176.5s139.333 56.5 226 56.5
c46 0 96 -2.5 150 -7.5s96.333 -9.83301 127 -14.5l47 -8z" />
    <glyph glyph-name="cedilla" unicode="&#xb8;" horiz-adv-x="265" 
d="M121 5h13.0029l3 -3l-13 -74c60 8 101 -6 123 -42c17.333 -29.333 16.666 -60.333 -2.00098 -93c-22.667 -38 -60 -57.667 -112 -59c-6 -0.666992 -12.333 -0.666992 -19 0c-48.667 2.66699 -85.667 19.667 -111 51c-11.333 16 -14 25.333 -8 28
c0.666992 0 6.66699 -1.5 18 -4.5s24.333 -5.83301 39 -8.5s29.667 -4.16699 45 -4.5s28.666 3 39.999 10s18 18.167 20 33.5c2 16.667 -8.66699 27.667 -32 33s-56.333 3 -99 -7c-3.33301 0 -4.33301 1.33301 -3 4c1.33301 2 16.166 23.167 44.499 63.5
s44.833 63.5 49.5 69.5z" />
    <glyph glyph-name="guillemotright" unicode="&#xbb;" horiz-adv-x="410" 
d="M-18 68l51.999 101.504c24 47 36 70.833 36 71.5l-27 172c-1.33301 10 0.833984 16.667 6.50098 20s11.834 2 18.501 -4c9.33301 -8.66699 19.166 -18.334 29.499 -29.001l29.5 -31l27.5 -30.5l24.5 -28.5l19.5 -23l13.5 -16l5 -6
c7.33301 -10.667 10.333 -18.834 9 -24.501s-7.33301 -13.834 -18 -24.501c-1.33301 -1.33301 -12.333 -10.5 -33 -27.5l-83 -66.5l-91 -70c-9.33301 -6.66699 -16 -7.83398 -20 -3.50098s-3.66699 10.833 1 19.5zM153.999 68.0039
c45.333 86.667 74.9971 144.338 88.9971 173.005c-6 29.333 -15 86.666 -27 171.999c-1.33301 10 0.833984 16.667 6.50098 20s11.834 2 18.501 -4c9.33301 -8.66699 19.166 -18.334 29.499 -29.001l29.5 -31l27.5 -30.5l24.5 -28.5l19.5 -23l13.5 -16l5 -6
c7.33301 -10.667 10.333 -18.834 9 -24.501s-7.33301 -13.834 -18 -24.501c-1.33301 -1.33301 -12.5 -10.5 -33.5 -27.5l-83 -66.5l-90.5 -70c-9.33301 -6.66699 -16.166 -7.83398 -20.499 -3.50098s-4.16602 10.833 0.500977 19.5z" />
    <glyph glyph-name="questiondown" unicode="&#xbf;" horiz-adv-x="299" 
d="M107 428c4.66699 27.333 18.1641 50.666 40.4971 69.999s47.166 29 74.499 29c26.667 0 47.834 -9.66699 63.501 -29s21.167 -42.666 16.5 -69.999c-4.66699 -26.667 -18.167 -49.667 -40.5 -69s-47.166 -29 -74.499 -29s-48.666 9.66699 -63.999 29
s-20.666 42.333 -15.999 69zM45.9971 137c6.66699 9.33301 17.167 24.999 31.5 46.999l34.5 52c8.66699 12.667 19.834 24.667 33.501 36s26.5 17 38.5 17c22 0 37.667 -17.333 47 -52s9 -69 -1 -103c-8 -28 -23.333 -56.167 -46 -84.5l-65 -78
c-20.667 -23.667 -32.667 -44.834 -36 -63.501c-2.66699 -12 -2.33398 -23.333 0.999023 -34s12 -16 26 -16c23.333 0 39.666 21.667 48.999 65c0.666992 4 1.33398 10 2.00098 18s1.5 14.5 2.5 19.5s2.5 8.83301 4.5 11.5c2.66699 3.33301 12.5 7 29.5 11
s33.167 6.33301 48.5 7c29.333 0 50.333 -7.83301 63 -23.5s16.667 -35.5 12 -59.5c-7.33301 -37.333 -33.5 -71.166 -78.5 -101.499s-97.833 -45.5 -158.5 -45.5c-66 0 -115.667 16.5 -149 49.5s-46.333 70.167 -39 111.5c4 23.333 13.167 45.333 27.5 66
s34.5 45.334 60.5 74.001s46.667 54 62 76z" />
    </font>
</defs>
</svg>
